M48
; DRILL file {KiCad (5.1.8)-1} date 01/17/21 15:05:40
; FORMAT={-:-/ absolute / inch / decimal}
; #@! TF.CreationDate,2021-01-17T15:05:40-05:00
; #@! TF.GenerationSoftware,Kicad,Pcbnew,(5.1.8)-1
; #@! TF.FileFunction,Plated,1,2,PTH
FMAT,2
INCH
T1C0.0157
T2C0.0197
T3C0.0217
T4C0.0394
T5C0.0670
%
G90
G05
T1
X5.53Y-3.92
X6.43Y-4.0
X6.695Y-4.0375
X6.75Y-3.91
X6.81Y-4.0
X6.85Y-3.91
X6.895Y-4.0
X7.07Y-4.06
X7.08Y-3.95
X7.46Y-4.0525
T4
X8.35Y-3.9
X8.35Y-4.0
X8.35Y-4.1
X5.29Y-3.95
X5.29Y-4.05
T5
X5.62Y-4.0
X5.92Y-3.9
X5.92Y-4.1
X7.72Y-3.9
X7.72Y-4.1
X8.02Y-4.0
T2
G00X5.0716Y-3.8622
M15
G01X5.046Y-3.8622
M16
G05
G00X5.0716Y-4.1378
M15
G01X5.046Y-4.1378
M16
G05
T3
G00X5.1651Y-3.8957
M15
G01X5.1651Y-3.9075
M16
G05
G00X5.1651Y-4.0925
M15
G01X5.1651Y-4.1043
M16
G05
T0
M30
