%TF.GenerationSoftware,KiCad,Pcbnew,(5.1.8)-1*%
%TF.CreationDate,2021-01-17T15:05:37-05:00*%
%TF.ProjectId,electronics-li-ion-charger,656c6563-7472-46f6-9e69-63732d6c692d,rev?*%
%TF.SameCoordinates,Original*%
%TF.FileFunction,Soldermask,Bot*%
%TF.FilePolarity,Negative*%
%FSLAX46Y46*%
G04 Gerber Fmt 4.6, Leading zero omitted, Abs format (unit mm)*
G04 Created by KiCad (PCBNEW (5.1.8)-1) date 2021-01-17 15:05:37*
%MOMM*%
%LPD*%
G01*
G04 APERTURE LIST*
%ADD10C,2.200000*%
%ADD11C,0.100000*%
%ADD12C,2.540000*%
%ADD13R,1.560000X0.650000*%
%ADD14O,1.700000X1.700000*%
%ADD15R,1.700000X1.700000*%
%ADD16O,1.550000X0.890000*%
%ADD17O,0.950000X1.250000*%
G04 APERTURE END LIST*
D10*
%TO.C,M2*%
X155448000Y-104902000D03*
%TD*%
%TO.C,M1*%
X155448000Y-98298000D03*
%TD*%
%TO.C,M4*%
X191008000Y-104902000D03*
%TD*%
%TO.C,M3*%
X191008000Y-98298000D03*
%TD*%
D11*
%TO.C,JP2*%
G36*
X187177000Y-102933500D02*
G01*
X187677000Y-102183500D01*
X188677000Y-102183500D01*
X188677000Y-103683500D01*
X187677000Y-103683500D01*
X187177000Y-102933500D01*
G37*
G36*
X186227000Y-102183500D02*
G01*
X187377000Y-102183500D01*
X186877000Y-102933500D01*
X187377000Y-103683500D01*
X186227000Y-103683500D01*
X186227000Y-102183500D01*
G37*
%TD*%
%TO.C,JP1*%
G36*
X187177000Y-100139500D02*
G01*
X187677000Y-99389500D01*
X188677000Y-99389500D01*
X188677000Y-100889500D01*
X187677000Y-100889500D01*
X187177000Y-100139500D01*
G37*
G36*
X186227000Y-99389500D02*
G01*
X187377000Y-99389500D01*
X186877000Y-100139500D01*
X187377000Y-100889500D01*
X186227000Y-100889500D01*
X186227000Y-99389500D01*
G37*
%TD*%
D12*
%TO.C,BT1*%
X150368000Y-104140000D03*
X150368000Y-99060000D03*
X142748000Y-101600000D03*
X196088000Y-99060000D03*
X196088000Y-104140000D03*
X203708000Y-101600000D03*
%TD*%
%TO.C,D1*%
G36*
G01*
X165114000Y-99950000D02*
X165594000Y-99950000D01*
G75*
G02*
X165754000Y-100110000I0J-160000D01*
G01*
X165754000Y-100590000D01*
G75*
G02*
X165594000Y-100750000I-160000J0D01*
G01*
X165114000Y-100750000D01*
G75*
G02*
X164954000Y-100590000I0J160000D01*
G01*
X164954000Y-100110000D01*
G75*
G02*
X165114000Y-99950000I160000J0D01*
G01*
G37*
G36*
G01*
X165024000Y-101250000D02*
X165684000Y-101250000D01*
G75*
G02*
X165904000Y-101470000I0J-220000D01*
G01*
X165904000Y-103030000D01*
G75*
G02*
X165684000Y-103250000I-220000J0D01*
G01*
X165024000Y-103250000D01*
G75*
G02*
X164804000Y-103030000I0J220000D01*
G01*
X164804000Y-101470000D01*
G75*
G02*
X165024000Y-101250000I220000J0D01*
G01*
G37*
%TD*%
D13*
%TO.C,U1*%
X171370000Y-100650000D03*
X171370000Y-102550000D03*
X174070000Y-102550000D03*
X174070000Y-101600000D03*
X174070000Y-100650000D03*
%TD*%
%TO.C,R3*%
G36*
G01*
X159120000Y-100974999D02*
X159120000Y-102225001D01*
G75*
G02*
X158870001Y-102475000I-249999J0D01*
G01*
X158069999Y-102475000D01*
G75*
G02*
X157820000Y-102225001I0J249999D01*
G01*
X157820000Y-100974999D01*
G75*
G02*
X158069999Y-100725000I249999J0D01*
G01*
X158870001Y-100725000D01*
G75*
G02*
X159120000Y-100974999I0J-249999D01*
G01*
G37*
G36*
G01*
X162220000Y-100974999D02*
X162220000Y-102225001D01*
G75*
G02*
X161970001Y-102475000I-249999J0D01*
G01*
X161169999Y-102475000D01*
G75*
G02*
X160920000Y-102225001I0J249999D01*
G01*
X160920000Y-100974999D01*
G75*
G02*
X161169999Y-100725000I249999J0D01*
G01*
X161970001Y-100725000D01*
G75*
G02*
X162220000Y-100974999I0J-249999D01*
G01*
G37*
%TD*%
%TO.C,R2*%
G36*
G01*
X184034000Y-103482301D02*
X184034000Y-102232299D01*
G75*
G02*
X184283999Y-101982300I249999J0D01*
G01*
X185084001Y-101982300D01*
G75*
G02*
X185334000Y-102232299I0J-249999D01*
G01*
X185334000Y-103482301D01*
G75*
G02*
X185084001Y-103732300I-249999J0D01*
G01*
X184283999Y-103732300D01*
G75*
G02*
X184034000Y-103482301I0J249999D01*
G01*
G37*
G36*
G01*
X180934000Y-103482301D02*
X180934000Y-102232299D01*
G75*
G02*
X181183999Y-101982300I249999J0D01*
G01*
X181984001Y-101982300D01*
G75*
G02*
X182234000Y-102232299I0J-249999D01*
G01*
X182234000Y-103482301D01*
G75*
G02*
X181984001Y-103732300I-249999J0D01*
G01*
X181183999Y-103732300D01*
G75*
G02*
X180934000Y-103482301I0J249999D01*
G01*
G37*
%TD*%
%TO.C,R1*%
G36*
G01*
X184034000Y-100942301D02*
X184034000Y-99692299D01*
G75*
G02*
X184283999Y-99442300I249999J0D01*
G01*
X185084001Y-99442300D01*
G75*
G02*
X185334000Y-99692299I0J-249999D01*
G01*
X185334000Y-100942301D01*
G75*
G02*
X185084001Y-101192300I-249999J0D01*
G01*
X184283999Y-101192300D01*
G75*
G02*
X184034000Y-100942301I0J249999D01*
G01*
G37*
G36*
G01*
X180934000Y-100942301D02*
X180934000Y-99692299D01*
G75*
G02*
X181183999Y-99442300I249999J0D01*
G01*
X181984001Y-99442300D01*
G75*
G02*
X182234000Y-99692299I0J-249999D01*
G01*
X182234000Y-100942301D01*
G75*
G02*
X181984001Y-101192300I-249999J0D01*
G01*
X181183999Y-101192300D01*
G75*
G02*
X180934000Y-100942301I0J249999D01*
G01*
G37*
%TD*%
D14*
%TO.C,J4*%
X212090000Y-99060000D03*
X212090000Y-101600000D03*
D15*
X212090000Y-104140000D03*
%TD*%
D16*
%TO.C,J3*%
X128494000Y-105100000D03*
X128494000Y-98100000D03*
D17*
X131194000Y-104100000D03*
X131194000Y-99100000D03*
%TD*%
D15*
%TO.C,J2*%
X134366000Y-102870000D03*
%TD*%
%TO.C,J1*%
X134366000Y-100330000D03*
%TD*%
%TO.C,C2*%
G36*
G01*
X177149998Y-102500000D02*
X178450002Y-102500000D01*
G75*
G02*
X178700000Y-102749998I0J-249998D01*
G01*
X178700000Y-103575002D01*
G75*
G02*
X178450002Y-103825000I-249998J0D01*
G01*
X177149998Y-103825000D01*
G75*
G02*
X176900000Y-103575002I0J249998D01*
G01*
X176900000Y-102749998D01*
G75*
G02*
X177149998Y-102500000I249998J0D01*
G01*
G37*
G36*
G01*
X177149998Y-99375000D02*
X178450002Y-99375000D01*
G75*
G02*
X178700000Y-99624998I0J-249998D01*
G01*
X178700000Y-100450002D01*
G75*
G02*
X178450002Y-100700000I-249998J0D01*
G01*
X177149998Y-100700000D01*
G75*
G02*
X176900000Y-100450002I0J249998D01*
G01*
X176900000Y-99624998D01*
G75*
G02*
X177149998Y-99375000I249998J0D01*
G01*
G37*
%TD*%
%TO.C,C1*%
G36*
G01*
X166989998Y-99375000D02*
X168290002Y-99375000D01*
G75*
G02*
X168540000Y-99624998I0J-249998D01*
G01*
X168540000Y-100450002D01*
G75*
G02*
X168290002Y-100700000I-249998J0D01*
G01*
X166989998Y-100700000D01*
G75*
G02*
X166740000Y-100450002I0J249998D01*
G01*
X166740000Y-99624998D01*
G75*
G02*
X166989998Y-99375000I249998J0D01*
G01*
G37*
G36*
G01*
X166989998Y-102500000D02*
X168290002Y-102500000D01*
G75*
G02*
X168540000Y-102749998I0J-249998D01*
G01*
X168540000Y-103575002D01*
G75*
G02*
X168290002Y-103825000I-249998J0D01*
G01*
X166989998Y-103825000D01*
G75*
G02*
X166740000Y-103575002I0J249998D01*
G01*
X166740000Y-102749998D01*
G75*
G02*
X166989998Y-102500000I249998J0D01*
G01*
G37*
%TD*%
M02*
