%TF.GenerationSoftware,KiCad,Pcbnew,(5.1.8)-1*%
%TF.CreationDate,2021-01-17T15:05:37-05:00*%
%TF.ProjectId,electronics-li-ion-charger,656c6563-7472-46f6-9e69-63732d6c692d,rev?*%
%TF.SameCoordinates,Original*%
%TF.FileFunction,Legend,Top*%
%TF.FilePolarity,Positive*%
%FSLAX46Y46*%
G04 Gerber Fmt 4.6, Leading zero omitted, Abs format (unit mm)*
G04 Created by KiCad (PCBNEW (5.1.8)-1) date 2021-01-17 15:05:37*
%MOMM*%
%LPD*%
G01*
G04 APERTURE LIST*
%ADD10C,0.150000*%
%ADD11C,0.127000*%
%ADD12C,0.120000*%
%ADD13C,0.254000*%
G04 APERTURE END LIST*
D10*
X135080595Y-107767380D02*
X135080595Y-106767380D01*
X135318690Y-106767380D01*
X135461547Y-106815000D01*
X135556785Y-106910238D01*
X135604404Y-107005476D01*
X135652023Y-107195952D01*
X135652023Y-107338809D01*
X135604404Y-107529285D01*
X135556785Y-107624523D01*
X135461547Y-107719761D01*
X135318690Y-107767380D01*
X135080595Y-107767380D01*
X136271071Y-106767380D02*
X136461547Y-106767380D01*
X136556785Y-106815000D01*
X136652023Y-106910238D01*
X136699642Y-107100714D01*
X136699642Y-107434047D01*
X136652023Y-107624523D01*
X136556785Y-107719761D01*
X136461547Y-107767380D01*
X136271071Y-107767380D01*
X136175833Y-107719761D01*
X136080595Y-107624523D01*
X136032976Y-107434047D01*
X136032976Y-107100714D01*
X136080595Y-106910238D01*
X136175833Y-106815000D01*
X136271071Y-106767380D01*
X137128214Y-107767380D02*
X137128214Y-106767380D01*
X137699642Y-107767380D01*
X137699642Y-106767380D01*
X138175833Y-107243571D02*
X138509166Y-107243571D01*
X138652023Y-107767380D02*
X138175833Y-107767380D01*
X138175833Y-106767380D01*
X138652023Y-106767380D01*
X136636214Y-96369142D02*
X136588595Y-96416761D01*
X136445738Y-96464380D01*
X136350500Y-96464380D01*
X136207642Y-96416761D01*
X136112404Y-96321523D01*
X136064785Y-96226285D01*
X136017166Y-96035809D01*
X136017166Y-95892952D01*
X136064785Y-95702476D01*
X136112404Y-95607238D01*
X136207642Y-95512000D01*
X136350500Y-95464380D01*
X136445738Y-95464380D01*
X136588595Y-95512000D01*
X136636214Y-95559619D01*
X137064785Y-96464380D02*
X137064785Y-95464380D01*
X137064785Y-95940571D02*
X137636214Y-95940571D01*
X137636214Y-96464380D02*
X137636214Y-95464380D01*
X138636214Y-95512000D02*
X138540976Y-95464380D01*
X138398119Y-95464380D01*
X138255261Y-95512000D01*
X138160023Y-95607238D01*
X138112404Y-95702476D01*
X138064785Y-95892952D01*
X138064785Y-96035809D01*
X138112404Y-96226285D01*
X138160023Y-96321523D01*
X138255261Y-96416761D01*
X138398119Y-96464380D01*
X138493357Y-96464380D01*
X138636214Y-96416761D01*
X138683833Y-96369142D01*
X138683833Y-96035809D01*
X138493357Y-96035809D01*
D11*
X210082190Y-96154119D02*
X210154761Y-96178309D01*
X210275714Y-96178309D01*
X210324095Y-96154119D01*
X210348285Y-96129928D01*
X210372476Y-96081547D01*
X210372476Y-96033166D01*
X210348285Y-95984785D01*
X210324095Y-95960595D01*
X210275714Y-95936404D01*
X210178952Y-95912214D01*
X210130571Y-95888023D01*
X210106380Y-95863833D01*
X210082190Y-95815452D01*
X210082190Y-95767071D01*
X210106380Y-95718690D01*
X210130571Y-95694500D01*
X210178952Y-95670309D01*
X210299904Y-95670309D01*
X210372476Y-95694500D01*
X210590190Y-96178309D02*
X210590190Y-95839642D01*
X210590190Y-95670309D02*
X210566000Y-95694500D01*
X210590190Y-95718690D01*
X210614380Y-95694500D01*
X210590190Y-95670309D01*
X210590190Y-95718690D01*
X210832095Y-95839642D02*
X210832095Y-96178309D01*
X210832095Y-95888023D02*
X210856285Y-95863833D01*
X210904666Y-95839642D01*
X210977238Y-95839642D01*
X211025619Y-95863833D01*
X211049809Y-95912214D01*
X211049809Y-96178309D01*
X211509428Y-95839642D02*
X211509428Y-96250880D01*
X211485238Y-96299261D01*
X211461047Y-96323452D01*
X211412666Y-96347642D01*
X211340095Y-96347642D01*
X211291714Y-96323452D01*
X211509428Y-96154119D02*
X211461047Y-96178309D01*
X211364285Y-96178309D01*
X211315904Y-96154119D01*
X211291714Y-96129928D01*
X211267523Y-96081547D01*
X211267523Y-95936404D01*
X211291714Y-95888023D01*
X211315904Y-95863833D01*
X211364285Y-95839642D01*
X211461047Y-95839642D01*
X211509428Y-95863833D01*
X211823904Y-96178309D02*
X211775523Y-96154119D01*
X211751333Y-96105738D01*
X211751333Y-95670309D01*
X212210952Y-96154119D02*
X212162571Y-96178309D01*
X212065809Y-96178309D01*
X212017428Y-96154119D01*
X211993238Y-96105738D01*
X211993238Y-95912214D01*
X212017428Y-95863833D01*
X212065809Y-95839642D01*
X212162571Y-95839642D01*
X212210952Y-95863833D01*
X212235142Y-95912214D01*
X212235142Y-95960595D01*
X211993238Y-96008976D01*
X213130190Y-96129928D02*
X213106000Y-96154119D01*
X213033428Y-96178309D01*
X212985047Y-96178309D01*
X212912476Y-96154119D01*
X212864095Y-96105738D01*
X212839904Y-96057357D01*
X212815714Y-95960595D01*
X212815714Y-95888023D01*
X212839904Y-95791261D01*
X212864095Y-95742880D01*
X212912476Y-95694500D01*
X212985047Y-95670309D01*
X213033428Y-95670309D01*
X213106000Y-95694500D01*
X213130190Y-95718690D01*
X213541428Y-96154119D02*
X213493047Y-96178309D01*
X213396285Y-96178309D01*
X213347904Y-96154119D01*
X213323714Y-96105738D01*
X213323714Y-95912214D01*
X213347904Y-95863833D01*
X213396285Y-95839642D01*
X213493047Y-95839642D01*
X213541428Y-95863833D01*
X213565619Y-95912214D01*
X213565619Y-95960595D01*
X213323714Y-96008976D01*
X213855904Y-96178309D02*
X213807523Y-96154119D01*
X213783333Y-96105738D01*
X213783333Y-95670309D01*
X214122000Y-96178309D02*
X214073619Y-96154119D01*
X214049428Y-96105738D01*
X214049428Y-95670309D01*
X211340095Y-96559309D02*
X211654571Y-96559309D01*
X211485238Y-96752833D01*
X211557809Y-96752833D01*
X211606190Y-96777023D01*
X211630380Y-96801214D01*
X211654571Y-96849595D01*
X211654571Y-96970547D01*
X211630380Y-97018928D01*
X211606190Y-97043119D01*
X211557809Y-97067309D01*
X211412666Y-97067309D01*
X211364285Y-97043119D01*
X211340095Y-97018928D01*
X211872285Y-97018928D02*
X211896476Y-97043119D01*
X211872285Y-97067309D01*
X211848095Y-97043119D01*
X211872285Y-97018928D01*
X211872285Y-97067309D01*
X212065809Y-96559309D02*
X212404476Y-96559309D01*
X212186761Y-97067309D01*
X212525428Y-96559309D02*
X212694761Y-97067309D01*
X212864095Y-96559309D01*
D12*
X209169000Y-101663500D02*
X209169000Y-99758500D01*
X210502500Y-101663500D02*
X209169000Y-101663500D01*
D10*
X208684880Y-104068571D02*
X208827738Y-104116190D01*
X208875357Y-104163809D01*
X208922976Y-104259047D01*
X208922976Y-104401904D01*
X208875357Y-104497142D01*
X208827738Y-104544761D01*
X208732500Y-104592380D01*
X208351547Y-104592380D01*
X208351547Y-103592380D01*
X208684880Y-103592380D01*
X208780119Y-103640000D01*
X208827738Y-103687619D01*
X208875357Y-103782857D01*
X208875357Y-103878095D01*
X208827738Y-103973333D01*
X208780119Y-104020952D01*
X208684880Y-104068571D01*
X208351547Y-104068571D01*
X209351547Y-104211428D02*
X210113452Y-104211428D01*
X208684880Y-98988571D02*
X208827738Y-99036190D01*
X208875357Y-99083809D01*
X208922976Y-99179047D01*
X208922976Y-99321904D01*
X208875357Y-99417142D01*
X208827738Y-99464761D01*
X208732500Y-99512380D01*
X208351547Y-99512380D01*
X208351547Y-98512380D01*
X208684880Y-98512380D01*
X208780119Y-98560000D01*
X208827738Y-98607619D01*
X208875357Y-98702857D01*
X208875357Y-98798095D01*
X208827738Y-98893333D01*
X208780119Y-98940952D01*
X208684880Y-98988571D01*
X208351547Y-98988571D01*
X209351547Y-99131428D02*
X210113452Y-99131428D01*
X209732500Y-99512380D02*
X209732500Y-98750476D01*
X133540595Y-104465500D02*
X133445357Y-104417880D01*
X133302500Y-104417880D01*
X133159642Y-104465500D01*
X133064404Y-104560738D01*
X133016785Y-104655976D01*
X132969166Y-104846452D01*
X132969166Y-104989309D01*
X133016785Y-105179785D01*
X133064404Y-105275023D01*
X133159642Y-105370261D01*
X133302500Y-105417880D01*
X133397738Y-105417880D01*
X133540595Y-105370261D01*
X133588214Y-105322642D01*
X133588214Y-104989309D01*
X133397738Y-104989309D01*
X134016785Y-105417880D02*
X134016785Y-104417880D01*
X134588214Y-105417880D01*
X134588214Y-104417880D01*
X135064404Y-105417880D02*
X135064404Y-104417880D01*
X135302500Y-104417880D01*
X135445357Y-104465500D01*
X135540595Y-104560738D01*
X135588214Y-104655976D01*
X135635833Y-104846452D01*
X135635833Y-104989309D01*
X135588214Y-105179785D01*
X135540595Y-105275023D01*
X135445357Y-105370261D01*
X135302500Y-105417880D01*
X135064404Y-105417880D01*
X133016785Y-98369428D02*
X133778690Y-98369428D01*
X133397738Y-98750380D02*
X133397738Y-97988476D01*
X134731071Y-97750380D02*
X134254880Y-97750380D01*
X134207261Y-98226571D01*
X134254880Y-98178952D01*
X134350119Y-98131333D01*
X134588214Y-98131333D01*
X134683452Y-98178952D01*
X134731071Y-98226571D01*
X134778690Y-98321809D01*
X134778690Y-98559904D01*
X134731071Y-98655142D01*
X134683452Y-98702761D01*
X134588214Y-98750380D01*
X134350119Y-98750380D01*
X134254880Y-98702761D01*
X134207261Y-98655142D01*
X135064404Y-97750380D02*
X135397738Y-98750380D01*
X135731071Y-97750380D01*
D12*
%TO.C,BT1*%
X207518000Y-107950000D02*
X138938000Y-107950000D01*
X138938000Y-107950000D02*
X138938000Y-95250000D01*
X207518000Y-95250000D02*
X138938000Y-95250000D01*
X207518000Y-107950000D02*
X207518000Y-95250000D01*
%TO.C,J4*%
X213420000Y-97730000D02*
X210760000Y-97730000D01*
X213420000Y-102870000D02*
X213420000Y-97730000D01*
X210760000Y-102870000D02*
X210760000Y-97730000D01*
X213420000Y-102870000D02*
X210760000Y-102870000D01*
X213420000Y-104140000D02*
X213420000Y-105470000D01*
X213420000Y-105470000D02*
X212090000Y-105470000D01*
%TO.C,J3*%
X131684000Y-99840000D02*
X132134000Y-99840000D01*
X132134000Y-100290000D02*
X132134000Y-99840000D01*
X131454000Y-97840000D02*
X131454000Y-98260000D01*
X129474000Y-97840000D02*
X131454000Y-97840000D01*
X127104000Y-97840000D02*
X127504000Y-97840000D01*
X127504000Y-105360000D02*
X127104000Y-105360000D01*
X131454000Y-105360000D02*
X131454000Y-104940000D01*
X129474000Y-105360000D02*
X131454000Y-105360000D01*
%TO.C,J2*%
X135696000Y-104200000D02*
X135696000Y-101540000D01*
X135636000Y-104200000D02*
X135696000Y-104200000D01*
X135636000Y-101540000D02*
X135696000Y-101540000D01*
X135636000Y-104200000D02*
X135636000Y-101540000D01*
X134366000Y-104200000D02*
X133036000Y-104200000D01*
X133036000Y-104200000D02*
X133036000Y-102870000D01*
%TO.C,J1*%
X133036000Y-99000000D02*
X133036000Y-101660000D01*
X133096000Y-99000000D02*
X133036000Y-99000000D01*
X133096000Y-101660000D02*
X133036000Y-101660000D01*
X133096000Y-99000000D02*
X133096000Y-101660000D01*
X134366000Y-99000000D02*
X135696000Y-99000000D01*
X135696000Y-99000000D02*
X135696000Y-100330000D01*
%TO.C,D3*%
X136279000Y-102540000D02*
X136279000Y-106600000D01*
X136279000Y-106600000D02*
X138549000Y-106600000D01*
X138549000Y-106600000D02*
X138549000Y-102540000D01*
%TO.C,D2*%
X136279000Y-97460000D02*
X136279000Y-101520000D01*
X136279000Y-101520000D02*
X138549000Y-101520000D01*
X138549000Y-101520000D02*
X138549000Y-97460000D01*
%TO.C,BT1*%
D13*
X158592761Y-101962857D02*
X162463238Y-101962857D01*
X183992761Y-101962857D02*
X187863238Y-101962857D01*
X185928000Y-103898095D02*
X185928000Y-100027619D01*
%TO.C,J4*%
D10*
X211718566Y-105814880D02*
X211718566Y-106529166D01*
X211670947Y-106672023D01*
X211575709Y-106767261D01*
X211432852Y-106814880D01*
X211337614Y-106814880D01*
X212623328Y-106148214D02*
X212623328Y-106814880D01*
X212385233Y-105767261D02*
X212147138Y-106481547D01*
X212766185Y-106481547D01*
%TO.C,J3*%
X129460666Y-106195880D02*
X129460666Y-106910166D01*
X129413047Y-107053023D01*
X129317809Y-107148261D01*
X129174952Y-107195880D01*
X129079714Y-107195880D01*
X129841619Y-106195880D02*
X130460666Y-106195880D01*
X130127333Y-106576833D01*
X130270190Y-106576833D01*
X130365428Y-106624452D01*
X130413047Y-106672071D01*
X130460666Y-106767309D01*
X130460666Y-107005404D01*
X130413047Y-107100642D01*
X130365428Y-107148261D01*
X130270190Y-107195880D01*
X129984476Y-107195880D01*
X129889238Y-107148261D01*
X129841619Y-107100642D01*
%TO.C,D3*%
X136675904Y-104655880D02*
X136675904Y-103655880D01*
X136914000Y-103655880D01*
X137056857Y-103703500D01*
X137152095Y-103798738D01*
X137199714Y-103893976D01*
X137247333Y-104084452D01*
X137247333Y-104227309D01*
X137199714Y-104417785D01*
X137152095Y-104513023D01*
X137056857Y-104608261D01*
X136914000Y-104655880D01*
X136675904Y-104655880D01*
X137580666Y-103655880D02*
X138199714Y-103655880D01*
X137866380Y-104036833D01*
X138009238Y-104036833D01*
X138104476Y-104084452D01*
X138152095Y-104132071D01*
X138199714Y-104227309D01*
X138199714Y-104465404D01*
X138152095Y-104560642D01*
X138104476Y-104608261D01*
X138009238Y-104655880D01*
X137723523Y-104655880D01*
X137628285Y-104608261D01*
X137580666Y-104560642D01*
%TO.C,D2*%
X136675904Y-99575880D02*
X136675904Y-98575880D01*
X136914000Y-98575880D01*
X137056857Y-98623500D01*
X137152095Y-98718738D01*
X137199714Y-98813976D01*
X137247333Y-99004452D01*
X137247333Y-99147309D01*
X137199714Y-99337785D01*
X137152095Y-99433023D01*
X137056857Y-99528261D01*
X136914000Y-99575880D01*
X136675904Y-99575880D01*
X137628285Y-98671119D02*
X137675904Y-98623500D01*
X137771142Y-98575880D01*
X138009238Y-98575880D01*
X138104476Y-98623500D01*
X138152095Y-98671119D01*
X138199714Y-98766357D01*
X138199714Y-98861595D01*
X138152095Y-99004452D01*
X137580666Y-99575880D01*
X138199714Y-99575880D01*
%TD*%
M02*
