%TF.GenerationSoftware,KiCad,Pcbnew,(5.1.8)-1*%
%TF.CreationDate,2021-01-17T15:05:36-05:00*%
%TF.ProjectId,electronics-li-ion-charger,656c6563-7472-46f6-9e69-63732d6c692d,rev?*%
%TF.SameCoordinates,Original*%
%TF.FileFunction,Copper,L1,Top*%
%TF.FilePolarity,Positive*%
%FSLAX46Y46*%
G04 Gerber Fmt 4.6, Leading zero omitted, Abs format (unit mm)*
G04 Created by KiCad (PCBNEW (5.1.8)-1) date 2021-01-17 15:05:36*
%MOMM*%
%LPD*%
G01*
G04 APERTURE LIST*
%TA.AperFunction,ComponentPad*%
%ADD10C,2.540000*%
%TD*%
%TA.AperFunction,ComponentPad*%
%ADD11O,1.700000X1.700000*%
%TD*%
%TA.AperFunction,ComponentPad*%
%ADD12R,1.700000X1.700000*%
%TD*%
%TA.AperFunction,ComponentPad*%
%ADD13O,1.550000X0.890000*%
%TD*%
%TA.AperFunction,SMDPad,CuDef*%
%ADD14R,1.550000X1.200000*%
%TD*%
%TA.AperFunction,SMDPad,CuDef*%
%ADD15R,1.550000X1.500000*%
%TD*%
%TA.AperFunction,ComponentPad*%
%ADD16O,0.950000X1.250000*%
%TD*%
%TA.AperFunction,SMDPad,CuDef*%
%ADD17R,1.350000X0.400000*%
%TD*%
%TA.AperFunction,ViaPad*%
%ADD18C,0.800000*%
%TD*%
%TA.AperFunction,Conductor*%
%ADD19C,0.250000*%
%TD*%
%TA.AperFunction,Conductor*%
%ADD20C,0.254000*%
%TD*%
%TA.AperFunction,Conductor*%
%ADD21C,0.100000*%
%TD*%
G04 APERTURE END LIST*
D10*
%TO.P,BT1,2*%
%TO.N,GND*%
X150368000Y-104140000D03*
X150368000Y-99060000D03*
X142748000Y-101600000D03*
%TO.P,BT1,1*%
%TO.N,/VBAT*%
X196088000Y-99060000D03*
X196088000Y-104140000D03*
X203708000Y-101600000D03*
%TD*%
D11*
%TO.P,J4,3*%
%TO.N,/VBAT*%
X212090000Y-99060000D03*
%TO.P,J4,2*%
X212090000Y-101600000D03*
D12*
%TO.P,J4,1*%
%TO.N,GND*%
X212090000Y-104140000D03*
%TD*%
D13*
%TO.P,J3,6*%
%TO.N,Net-(J3-Pad6)*%
X128494000Y-105100000D03*
X128494000Y-98100000D03*
D14*
X128494000Y-104500000D03*
X128494000Y-98700000D03*
D15*
X128494000Y-102600000D03*
X128494000Y-100600000D03*
D16*
X131194000Y-104100000D03*
X131194000Y-99100000D03*
D17*
%TO.P,J3,5*%
%TO.N,GND*%
X131194000Y-102900000D03*
%TO.P,J3,4*%
%TO.N,Net-(J3-Pad4)*%
X131194000Y-102250000D03*
%TO.P,J3,3*%
%TO.N,Net-(J3-Pad3)*%
X131194000Y-101600000D03*
%TO.P,J3,2*%
%TO.N,Net-(J3-Pad2)*%
X131194000Y-100950000D03*
%TO.P,J3,1*%
%TO.N,+5V*%
X131194000Y-100300000D03*
%TD*%
D12*
%TO.P,J2,1*%
%TO.N,GND*%
X134366000Y-102870000D03*
%TD*%
%TO.P,J1,1*%
%TO.N,+5V*%
X134366000Y-100330000D03*
%TD*%
%TO.P,D3,2*%
%TO.N,Net-(D2-Pad1)*%
%TA.AperFunction,SMDPad,CuDef*%
G36*
G01*
X138039000Y-103365000D02*
X136789000Y-103365000D01*
G75*
G02*
X136539000Y-103115000I0J250000D01*
G01*
X136539000Y-102190000D01*
G75*
G02*
X136789000Y-101940000I250000J0D01*
G01*
X138039000Y-101940000D01*
G75*
G02*
X138289000Y-102190000I0J-250000D01*
G01*
X138289000Y-103115000D01*
G75*
G02*
X138039000Y-103365000I-250000J0D01*
G01*
G37*
%TD.AperFunction*%
%TO.P,D3,1*%
%TO.N,GND*%
%TA.AperFunction,SMDPad,CuDef*%
G36*
G01*
X138039000Y-106340000D02*
X136789000Y-106340000D01*
G75*
G02*
X136539000Y-106090000I0J250000D01*
G01*
X136539000Y-105165000D01*
G75*
G02*
X136789000Y-104915000I250000J0D01*
G01*
X138039000Y-104915000D01*
G75*
G02*
X138289000Y-105165000I0J-250000D01*
G01*
X138289000Y-106090000D01*
G75*
G02*
X138039000Y-106340000I-250000J0D01*
G01*
G37*
%TD.AperFunction*%
%TD*%
%TO.P,D2,2*%
%TO.N,+5V*%
%TA.AperFunction,SMDPad,CuDef*%
G36*
G01*
X138039000Y-98285000D02*
X136789000Y-98285000D01*
G75*
G02*
X136539000Y-98035000I0J250000D01*
G01*
X136539000Y-97110000D01*
G75*
G02*
X136789000Y-96860000I250000J0D01*
G01*
X138039000Y-96860000D01*
G75*
G02*
X138289000Y-97110000I0J-250000D01*
G01*
X138289000Y-98035000D01*
G75*
G02*
X138039000Y-98285000I-250000J0D01*
G01*
G37*
%TD.AperFunction*%
%TO.P,D2,1*%
%TO.N,Net-(D2-Pad1)*%
%TA.AperFunction,SMDPad,CuDef*%
G36*
G01*
X138039000Y-101260000D02*
X136789000Y-101260000D01*
G75*
G02*
X136539000Y-101010000I0J250000D01*
G01*
X136539000Y-100085000D01*
G75*
G02*
X136789000Y-99835000I250000J0D01*
G01*
X138039000Y-99835000D01*
G75*
G02*
X138289000Y-100085000I0J-250000D01*
G01*
X138289000Y-101010000D01*
G75*
G02*
X138039000Y-101260000I-250000J0D01*
G01*
G37*
%TD.AperFunction*%
%TD*%
D18*
%TO.N,GND*%
X172974000Y-101600000D03*
X175133000Y-101600000D03*
X179578000Y-103124000D03*
X189484000Y-102933500D03*
%TO.N,+5V*%
X170053000Y-102552500D03*
%TO.N,STAT*%
X173990000Y-99314000D03*
X163322000Y-101600000D03*
%TO.N,PROG*%
X171450000Y-99314000D03*
X179832000Y-100330000D03*
%TO.N,Net-(D2-Pad1)*%
X140462000Y-99568000D03*
%TD*%
D19*
%TO.N,GND*%
X131194000Y-102900000D02*
X132558000Y-102900000D01*
X131194000Y-102900000D02*
X130335500Y-102900000D01*
X130335500Y-102900000D02*
X129921000Y-103314500D01*
%TO.N,+5V*%
X131194000Y-100300000D02*
X132812000Y-100300000D01*
X131194000Y-100300000D02*
X130335500Y-100300000D01*
X130335500Y-100300000D02*
X129921000Y-99885500D01*
%TO.N,STAT*%
X172248999Y-101055001D02*
X172248999Y-103341001D01*
X173990000Y-99314000D02*
X172248999Y-101055001D01*
X172248999Y-103341001D02*
X172212000Y-103378000D01*
X165100000Y-103378000D02*
X163322000Y-101600000D01*
X172212000Y-103378000D02*
X165100000Y-103378000D01*
%TO.N,Net-(J3-Pad6)*%
X128494000Y-98700000D02*
X128494000Y-104500000D01*
%TO.N,PROG*%
X172175001Y-98588999D02*
X171450000Y-99314000D01*
X180186499Y-98588999D02*
X172175001Y-98588999D01*
X181673500Y-100330000D02*
X180186499Y-98588999D01*
%TO.N,Net-(D2-Pad1)*%
X140462000Y-99568000D02*
X139446000Y-100584000D01*
X137450500Y-100584000D02*
X137414000Y-100547500D01*
X139446000Y-100584000D02*
X137450500Y-100584000D01*
X137414000Y-100547500D02*
X137414000Y-102652500D01*
%TD*%
D20*
%TO.N,GND*%
X201803000Y-101787626D02*
X201876209Y-102155668D01*
X202019811Y-102502356D01*
X202228290Y-102814366D01*
X202493634Y-103079710D01*
X202805644Y-103288189D01*
X203152332Y-103431791D01*
X203520374Y-103505000D01*
X203895626Y-103505000D01*
X204263668Y-103431791D01*
X204610356Y-103288189D01*
X204922366Y-103079710D01*
X205187710Y-102814366D01*
X205396189Y-102502356D01*
X205539791Y-102155668D01*
X205613000Y-101787626D01*
X205613000Y-101727000D01*
X210605000Y-101727000D01*
X210605000Y-101746260D01*
X210662068Y-102033158D01*
X210774010Y-102303411D01*
X210936525Y-102546632D01*
X211068380Y-102678487D01*
X210995820Y-102700498D01*
X210885506Y-102759463D01*
X210788815Y-102838815D01*
X210709463Y-102935506D01*
X210650498Y-103045820D01*
X210614188Y-103165518D01*
X210601928Y-103290000D01*
X210605000Y-103854250D01*
X210763750Y-104013000D01*
X211963000Y-104013000D01*
X211963000Y-103993000D01*
X212217000Y-103993000D01*
X212217000Y-104013000D01*
X213416250Y-104013000D01*
X213575000Y-103854250D01*
X213578072Y-103290000D01*
X213565812Y-103165518D01*
X213529502Y-103045820D01*
X213470537Y-102935506D01*
X213391185Y-102838815D01*
X213294494Y-102759463D01*
X213184180Y-102700498D01*
X213111620Y-102678487D01*
X213243475Y-102546632D01*
X213405990Y-102303411D01*
X213517932Y-102033158D01*
X213575000Y-101746260D01*
X213575000Y-101727000D01*
X215215001Y-101727000D01*
X215215001Y-107265000D01*
X127685000Y-107265000D01*
X127685000Y-106340000D01*
X135900928Y-106340000D01*
X135913188Y-106464482D01*
X135949498Y-106584180D01*
X136008463Y-106694494D01*
X136087815Y-106791185D01*
X136184506Y-106870537D01*
X136294820Y-106929502D01*
X136414518Y-106965812D01*
X136539000Y-106978072D01*
X137128250Y-106975000D01*
X137287000Y-106816250D01*
X137287000Y-105754500D01*
X137541000Y-105754500D01*
X137541000Y-106816250D01*
X137699750Y-106975000D01*
X138289000Y-106978072D01*
X138413482Y-106965812D01*
X138533180Y-106929502D01*
X138643494Y-106870537D01*
X138740185Y-106791185D01*
X138819537Y-106694494D01*
X138878502Y-106584180D01*
X138914812Y-106464482D01*
X138927072Y-106340000D01*
X138924000Y-105913250D01*
X138765250Y-105754500D01*
X137541000Y-105754500D01*
X137287000Y-105754500D01*
X136062750Y-105754500D01*
X135904000Y-105913250D01*
X135900928Y-106340000D01*
X127685000Y-106340000D01*
X127685000Y-106068568D01*
X127748702Y-106102617D01*
X127952283Y-106164373D01*
X128110949Y-106180000D01*
X128877051Y-106180000D01*
X129035717Y-106164373D01*
X129239298Y-106102617D01*
X129426919Y-106002332D01*
X129591370Y-105867370D01*
X129726332Y-105702919D01*
X129826617Y-105515298D01*
X129888373Y-105311717D01*
X129909225Y-105100000D01*
X129907072Y-105078140D01*
X129907072Y-103900000D01*
X129894812Y-103775518D01*
X129858502Y-103655820D01*
X129842028Y-103625000D01*
X129858502Y-103594180D01*
X129894812Y-103474482D01*
X129907072Y-103350000D01*
X129907072Y-103271286D01*
X129933479Y-103353576D01*
X129994200Y-103462933D01*
X130075088Y-103558343D01*
X130137761Y-103608122D01*
X130100062Y-103732402D01*
X130084000Y-103895479D01*
X130084000Y-104304520D01*
X130100062Y-104467597D01*
X130163532Y-104676833D01*
X130266604Y-104869666D01*
X130405314Y-105038686D01*
X130574334Y-105177396D01*
X130767166Y-105280468D01*
X130976402Y-105343938D01*
X131194000Y-105365370D01*
X131411597Y-105343938D01*
X131620833Y-105280468D01*
X131813666Y-105177396D01*
X131982686Y-105038686D01*
X132084191Y-104915000D01*
X135900928Y-104915000D01*
X135904000Y-105341750D01*
X136062750Y-105500500D01*
X137287000Y-105500500D01*
X137287000Y-104438750D01*
X137541000Y-104438750D01*
X137541000Y-105500500D01*
X138765250Y-105500500D01*
X138797898Y-105467852D01*
X149219753Y-105467852D01*
X149348076Y-105759871D01*
X149683695Y-105927723D01*
X150045611Y-106026874D01*
X150419916Y-106053514D01*
X150792227Y-106006618D01*
X151148235Y-105887988D01*
X151387924Y-105759871D01*
X151516247Y-105467852D01*
X150368000Y-104319605D01*
X149219753Y-105467852D01*
X138797898Y-105467852D01*
X138924000Y-105341750D01*
X138927072Y-104915000D01*
X138914812Y-104790518D01*
X138878502Y-104670820D01*
X138819537Y-104560506D01*
X138740185Y-104463815D01*
X138643494Y-104384463D01*
X138533180Y-104325498D01*
X138413482Y-104289188D01*
X138289000Y-104276928D01*
X137699750Y-104280000D01*
X137541000Y-104438750D01*
X137287000Y-104438750D01*
X137128250Y-104280000D01*
X136539000Y-104276928D01*
X136414518Y-104289188D01*
X136294820Y-104325498D01*
X136184506Y-104384463D01*
X136087815Y-104463815D01*
X136008463Y-104560506D01*
X135949498Y-104670820D01*
X135913188Y-104790518D01*
X135900928Y-104915000D01*
X132084191Y-104915000D01*
X132121396Y-104869666D01*
X132224468Y-104676834D01*
X132287938Y-104467598D01*
X132304000Y-104304521D01*
X132304000Y-103895480D01*
X132287938Y-103732403D01*
X132284176Y-103720000D01*
X132877928Y-103720000D01*
X132890188Y-103844482D01*
X132926498Y-103964180D01*
X132985463Y-104074494D01*
X133064815Y-104171185D01*
X133161506Y-104250537D01*
X133271820Y-104309502D01*
X133391518Y-104345812D01*
X133516000Y-104358072D01*
X134080250Y-104355000D01*
X134239000Y-104196250D01*
X134239000Y-102997000D01*
X134493000Y-102997000D01*
X134493000Y-104196250D01*
X134651750Y-104355000D01*
X135216000Y-104358072D01*
X135340482Y-104345812D01*
X135460180Y-104309502D01*
X135570494Y-104250537D01*
X135641924Y-104191916D01*
X148454486Y-104191916D01*
X148501382Y-104564227D01*
X148620012Y-104920235D01*
X148748129Y-105159924D01*
X149040148Y-105288247D01*
X150188395Y-104140000D01*
X150547605Y-104140000D01*
X151695852Y-105288247D01*
X151987871Y-105159924D01*
X152155723Y-104824305D01*
X152181252Y-104731117D01*
X153713000Y-104731117D01*
X153713000Y-105072883D01*
X153779675Y-105408081D01*
X153910463Y-105723831D01*
X154100337Y-106007998D01*
X154342002Y-106249663D01*
X154626169Y-106439537D01*
X154941919Y-106570325D01*
X155277117Y-106637000D01*
X155618883Y-106637000D01*
X155954081Y-106570325D01*
X156269831Y-106439537D01*
X156553998Y-106249663D01*
X156795663Y-106007998D01*
X156985537Y-105723831D01*
X157116325Y-105408081D01*
X157183000Y-105072883D01*
X157183000Y-104731117D01*
X189273000Y-104731117D01*
X189273000Y-105072883D01*
X189339675Y-105408081D01*
X189470463Y-105723831D01*
X189660337Y-106007998D01*
X189902002Y-106249663D01*
X190186169Y-106439537D01*
X190501919Y-106570325D01*
X190837117Y-106637000D01*
X191178883Y-106637000D01*
X191514081Y-106570325D01*
X191829831Y-106439537D01*
X192113998Y-106249663D01*
X192355663Y-106007998D01*
X192545537Y-105723831D01*
X192676325Y-105408081D01*
X192743000Y-105072883D01*
X192743000Y-104731117D01*
X192676325Y-104395919D01*
X192545537Y-104080169D01*
X192460148Y-103952374D01*
X194183000Y-103952374D01*
X194183000Y-104327626D01*
X194256209Y-104695668D01*
X194399811Y-105042356D01*
X194608290Y-105354366D01*
X194873634Y-105619710D01*
X195185644Y-105828189D01*
X195532332Y-105971791D01*
X195900374Y-106045000D01*
X196275626Y-106045000D01*
X196643668Y-105971791D01*
X196990356Y-105828189D01*
X197302366Y-105619710D01*
X197567710Y-105354366D01*
X197776189Y-105042356D01*
X197797875Y-104990000D01*
X210601928Y-104990000D01*
X210614188Y-105114482D01*
X210650498Y-105234180D01*
X210709463Y-105344494D01*
X210788815Y-105441185D01*
X210885506Y-105520537D01*
X210995820Y-105579502D01*
X211115518Y-105615812D01*
X211240000Y-105628072D01*
X211804250Y-105625000D01*
X211963000Y-105466250D01*
X211963000Y-104267000D01*
X212217000Y-104267000D01*
X212217000Y-105466250D01*
X212375750Y-105625000D01*
X212940000Y-105628072D01*
X213064482Y-105615812D01*
X213184180Y-105579502D01*
X213294494Y-105520537D01*
X213391185Y-105441185D01*
X213470537Y-105344494D01*
X213529502Y-105234180D01*
X213565812Y-105114482D01*
X213578072Y-104990000D01*
X213575000Y-104425750D01*
X213416250Y-104267000D01*
X212217000Y-104267000D01*
X211963000Y-104267000D01*
X210763750Y-104267000D01*
X210605000Y-104425750D01*
X210601928Y-104990000D01*
X197797875Y-104990000D01*
X197919791Y-104695668D01*
X197993000Y-104327626D01*
X197993000Y-103952374D01*
X197919791Y-103584332D01*
X197776189Y-103237644D01*
X197567710Y-102925634D01*
X197302366Y-102660290D01*
X196990356Y-102451811D01*
X196643668Y-102308209D01*
X196275626Y-102235000D01*
X195900374Y-102235000D01*
X195532332Y-102308209D01*
X195185644Y-102451811D01*
X194873634Y-102660290D01*
X194608290Y-102925634D01*
X194399811Y-103237644D01*
X194256209Y-103584332D01*
X194183000Y-103952374D01*
X192460148Y-103952374D01*
X192355663Y-103796002D01*
X192113998Y-103554337D01*
X191829831Y-103364463D01*
X191514081Y-103233675D01*
X191178883Y-103167000D01*
X190837117Y-103167000D01*
X190501919Y-103233675D01*
X190186169Y-103364463D01*
X189902002Y-103554337D01*
X189660337Y-103796002D01*
X189470463Y-104080169D01*
X189339675Y-104395919D01*
X189273000Y-104731117D01*
X157183000Y-104731117D01*
X157116325Y-104395919D01*
X156985537Y-104080169D01*
X156795663Y-103796002D01*
X156553998Y-103554337D01*
X156269831Y-103364463D01*
X155954081Y-103233675D01*
X155618883Y-103167000D01*
X155277117Y-103167000D01*
X154941919Y-103233675D01*
X154626169Y-103364463D01*
X154342002Y-103554337D01*
X154100337Y-103796002D01*
X153910463Y-104080169D01*
X153779675Y-104395919D01*
X153713000Y-104731117D01*
X152181252Y-104731117D01*
X152254874Y-104462389D01*
X152281514Y-104088084D01*
X152234618Y-103715773D01*
X152115988Y-103359765D01*
X151987871Y-103120076D01*
X151695852Y-102991753D01*
X150547605Y-104140000D01*
X150188395Y-104140000D01*
X149040148Y-102991753D01*
X148748129Y-103120076D01*
X148580277Y-103455695D01*
X148481126Y-103817611D01*
X148454486Y-104191916D01*
X135641924Y-104191916D01*
X135667185Y-104171185D01*
X135746537Y-104074494D01*
X135805502Y-103964180D01*
X135841812Y-103844482D01*
X135854072Y-103720000D01*
X135851000Y-103155750D01*
X135692250Y-102997000D01*
X134493000Y-102997000D01*
X134239000Y-102997000D01*
X133039750Y-102997000D01*
X132881000Y-103155750D01*
X132877928Y-103720000D01*
X132284176Y-103720000D01*
X132250238Y-103608122D01*
X132312912Y-103558343D01*
X132393800Y-103462933D01*
X132454521Y-103353576D01*
X132492741Y-103234474D01*
X132504000Y-103131750D01*
X132345250Y-102973000D01*
X132232678Y-102973000D01*
X132320185Y-102901185D01*
X132399537Y-102804494D01*
X132436032Y-102736218D01*
X132504000Y-102668250D01*
X132494012Y-102577120D01*
X132494812Y-102574482D01*
X132507072Y-102450000D01*
X132507072Y-102235000D01*
X132879099Y-102235000D01*
X132881000Y-102584250D01*
X133039750Y-102743000D01*
X134239000Y-102743000D01*
X134239000Y-102723000D01*
X134493000Y-102723000D01*
X134493000Y-102743000D01*
X135692250Y-102743000D01*
X135851000Y-102584250D01*
X135852901Y-102235000D01*
X135900928Y-102235000D01*
X135900928Y-103115000D01*
X135917992Y-103288254D01*
X135968528Y-103454850D01*
X136050595Y-103608386D01*
X136161038Y-103742962D01*
X136295614Y-103853405D01*
X136449150Y-103935472D01*
X136615746Y-103986008D01*
X136789000Y-104003072D01*
X138039000Y-104003072D01*
X138212254Y-103986008D01*
X138378850Y-103935472D01*
X138532386Y-103853405D01*
X138666962Y-103742962D01*
X138777405Y-103608386D01*
X138859472Y-103454850D01*
X138910008Y-103288254D01*
X138927072Y-103115000D01*
X138927072Y-102235000D01*
X140951616Y-102235000D01*
X141000012Y-102380235D01*
X141128129Y-102619924D01*
X141420148Y-102748247D01*
X141933395Y-102235000D01*
X142292605Y-102235000D01*
X141599753Y-102927852D01*
X141728076Y-103219871D01*
X142063695Y-103387723D01*
X142425611Y-103486874D01*
X142799916Y-103513514D01*
X143172227Y-103466618D01*
X143528235Y-103347988D01*
X143767924Y-103219871D01*
X143896247Y-102927852D01*
X143203395Y-102235000D01*
X143562605Y-102235000D01*
X144075852Y-102748247D01*
X144367871Y-102619924D01*
X144535723Y-102284305D01*
X144549231Y-102235000D01*
X150248491Y-102235000D01*
X149943773Y-102273382D01*
X149587765Y-102392012D01*
X149348076Y-102520129D01*
X149219753Y-102812148D01*
X150368000Y-103960395D01*
X151516247Y-102812148D01*
X151387924Y-102520129D01*
X151052305Y-102352277D01*
X150690389Y-102253126D01*
X150435710Y-102235000D01*
X162501510Y-102235000D01*
X162518063Y-102259774D01*
X162662226Y-102403937D01*
X162831744Y-102517205D01*
X163020102Y-102595226D01*
X163220061Y-102635000D01*
X163282199Y-102635000D01*
X164536201Y-103889003D01*
X164559999Y-103918001D01*
X164675724Y-104012974D01*
X164807753Y-104083546D01*
X164951014Y-104127003D01*
X165062667Y-104138000D01*
X165062675Y-104138000D01*
X165100000Y-104141676D01*
X165137325Y-104138000D01*
X172174678Y-104138000D01*
X172212000Y-104141676D01*
X172249322Y-104138000D01*
X172249333Y-104138000D01*
X172360986Y-104127003D01*
X172504247Y-104083546D01*
X172636276Y-104012974D01*
X172752001Y-103918001D01*
X172768678Y-103897679D01*
X172789000Y-103881002D01*
X172883973Y-103765277D01*
X172954545Y-103633248D01*
X172998002Y-103489987D01*
X173003411Y-103435066D01*
X173072787Y-103397983D01*
X173169013Y-103319013D01*
X173247983Y-103222787D01*
X173306664Y-103113004D01*
X173342799Y-102993882D01*
X173355000Y-102870000D01*
X173355000Y-102743000D01*
X181356000Y-102743000D01*
X181380776Y-102740560D01*
X181404601Y-102733333D01*
X181426557Y-102721597D01*
X181445803Y-102705803D01*
X181461597Y-102686557D01*
X181473333Y-102664601D01*
X181480560Y-102640776D01*
X181483000Y-102616000D01*
X181483000Y-101727000D01*
X201803000Y-101727000D01*
X201803000Y-101787626D01*
%TA.AperFunction,Conductor*%
D21*
G36*
X201803000Y-101787626D02*
G01*
X201876209Y-102155668D01*
X202019811Y-102502356D01*
X202228290Y-102814366D01*
X202493634Y-103079710D01*
X202805644Y-103288189D01*
X203152332Y-103431791D01*
X203520374Y-103505000D01*
X203895626Y-103505000D01*
X204263668Y-103431791D01*
X204610356Y-103288189D01*
X204922366Y-103079710D01*
X205187710Y-102814366D01*
X205396189Y-102502356D01*
X205539791Y-102155668D01*
X205613000Y-101787626D01*
X205613000Y-101727000D01*
X210605000Y-101727000D01*
X210605000Y-101746260D01*
X210662068Y-102033158D01*
X210774010Y-102303411D01*
X210936525Y-102546632D01*
X211068380Y-102678487D01*
X210995820Y-102700498D01*
X210885506Y-102759463D01*
X210788815Y-102838815D01*
X210709463Y-102935506D01*
X210650498Y-103045820D01*
X210614188Y-103165518D01*
X210601928Y-103290000D01*
X210605000Y-103854250D01*
X210763750Y-104013000D01*
X211963000Y-104013000D01*
X211963000Y-103993000D01*
X212217000Y-103993000D01*
X212217000Y-104013000D01*
X213416250Y-104013000D01*
X213575000Y-103854250D01*
X213578072Y-103290000D01*
X213565812Y-103165518D01*
X213529502Y-103045820D01*
X213470537Y-102935506D01*
X213391185Y-102838815D01*
X213294494Y-102759463D01*
X213184180Y-102700498D01*
X213111620Y-102678487D01*
X213243475Y-102546632D01*
X213405990Y-102303411D01*
X213517932Y-102033158D01*
X213575000Y-101746260D01*
X213575000Y-101727000D01*
X215215001Y-101727000D01*
X215215001Y-107265000D01*
X127685000Y-107265000D01*
X127685000Y-106340000D01*
X135900928Y-106340000D01*
X135913188Y-106464482D01*
X135949498Y-106584180D01*
X136008463Y-106694494D01*
X136087815Y-106791185D01*
X136184506Y-106870537D01*
X136294820Y-106929502D01*
X136414518Y-106965812D01*
X136539000Y-106978072D01*
X137128250Y-106975000D01*
X137287000Y-106816250D01*
X137287000Y-105754500D01*
X137541000Y-105754500D01*
X137541000Y-106816250D01*
X137699750Y-106975000D01*
X138289000Y-106978072D01*
X138413482Y-106965812D01*
X138533180Y-106929502D01*
X138643494Y-106870537D01*
X138740185Y-106791185D01*
X138819537Y-106694494D01*
X138878502Y-106584180D01*
X138914812Y-106464482D01*
X138927072Y-106340000D01*
X138924000Y-105913250D01*
X138765250Y-105754500D01*
X137541000Y-105754500D01*
X137287000Y-105754500D01*
X136062750Y-105754500D01*
X135904000Y-105913250D01*
X135900928Y-106340000D01*
X127685000Y-106340000D01*
X127685000Y-106068568D01*
X127748702Y-106102617D01*
X127952283Y-106164373D01*
X128110949Y-106180000D01*
X128877051Y-106180000D01*
X129035717Y-106164373D01*
X129239298Y-106102617D01*
X129426919Y-106002332D01*
X129591370Y-105867370D01*
X129726332Y-105702919D01*
X129826617Y-105515298D01*
X129888373Y-105311717D01*
X129909225Y-105100000D01*
X129907072Y-105078140D01*
X129907072Y-103900000D01*
X129894812Y-103775518D01*
X129858502Y-103655820D01*
X129842028Y-103625000D01*
X129858502Y-103594180D01*
X129894812Y-103474482D01*
X129907072Y-103350000D01*
X129907072Y-103271286D01*
X129933479Y-103353576D01*
X129994200Y-103462933D01*
X130075088Y-103558343D01*
X130137761Y-103608122D01*
X130100062Y-103732402D01*
X130084000Y-103895479D01*
X130084000Y-104304520D01*
X130100062Y-104467597D01*
X130163532Y-104676833D01*
X130266604Y-104869666D01*
X130405314Y-105038686D01*
X130574334Y-105177396D01*
X130767166Y-105280468D01*
X130976402Y-105343938D01*
X131194000Y-105365370D01*
X131411597Y-105343938D01*
X131620833Y-105280468D01*
X131813666Y-105177396D01*
X131982686Y-105038686D01*
X132084191Y-104915000D01*
X135900928Y-104915000D01*
X135904000Y-105341750D01*
X136062750Y-105500500D01*
X137287000Y-105500500D01*
X137287000Y-104438750D01*
X137541000Y-104438750D01*
X137541000Y-105500500D01*
X138765250Y-105500500D01*
X138797898Y-105467852D01*
X149219753Y-105467852D01*
X149348076Y-105759871D01*
X149683695Y-105927723D01*
X150045611Y-106026874D01*
X150419916Y-106053514D01*
X150792227Y-106006618D01*
X151148235Y-105887988D01*
X151387924Y-105759871D01*
X151516247Y-105467852D01*
X150368000Y-104319605D01*
X149219753Y-105467852D01*
X138797898Y-105467852D01*
X138924000Y-105341750D01*
X138927072Y-104915000D01*
X138914812Y-104790518D01*
X138878502Y-104670820D01*
X138819537Y-104560506D01*
X138740185Y-104463815D01*
X138643494Y-104384463D01*
X138533180Y-104325498D01*
X138413482Y-104289188D01*
X138289000Y-104276928D01*
X137699750Y-104280000D01*
X137541000Y-104438750D01*
X137287000Y-104438750D01*
X137128250Y-104280000D01*
X136539000Y-104276928D01*
X136414518Y-104289188D01*
X136294820Y-104325498D01*
X136184506Y-104384463D01*
X136087815Y-104463815D01*
X136008463Y-104560506D01*
X135949498Y-104670820D01*
X135913188Y-104790518D01*
X135900928Y-104915000D01*
X132084191Y-104915000D01*
X132121396Y-104869666D01*
X132224468Y-104676834D01*
X132287938Y-104467598D01*
X132304000Y-104304521D01*
X132304000Y-103895480D01*
X132287938Y-103732403D01*
X132284176Y-103720000D01*
X132877928Y-103720000D01*
X132890188Y-103844482D01*
X132926498Y-103964180D01*
X132985463Y-104074494D01*
X133064815Y-104171185D01*
X133161506Y-104250537D01*
X133271820Y-104309502D01*
X133391518Y-104345812D01*
X133516000Y-104358072D01*
X134080250Y-104355000D01*
X134239000Y-104196250D01*
X134239000Y-102997000D01*
X134493000Y-102997000D01*
X134493000Y-104196250D01*
X134651750Y-104355000D01*
X135216000Y-104358072D01*
X135340482Y-104345812D01*
X135460180Y-104309502D01*
X135570494Y-104250537D01*
X135641924Y-104191916D01*
X148454486Y-104191916D01*
X148501382Y-104564227D01*
X148620012Y-104920235D01*
X148748129Y-105159924D01*
X149040148Y-105288247D01*
X150188395Y-104140000D01*
X150547605Y-104140000D01*
X151695852Y-105288247D01*
X151987871Y-105159924D01*
X152155723Y-104824305D01*
X152181252Y-104731117D01*
X153713000Y-104731117D01*
X153713000Y-105072883D01*
X153779675Y-105408081D01*
X153910463Y-105723831D01*
X154100337Y-106007998D01*
X154342002Y-106249663D01*
X154626169Y-106439537D01*
X154941919Y-106570325D01*
X155277117Y-106637000D01*
X155618883Y-106637000D01*
X155954081Y-106570325D01*
X156269831Y-106439537D01*
X156553998Y-106249663D01*
X156795663Y-106007998D01*
X156985537Y-105723831D01*
X157116325Y-105408081D01*
X157183000Y-105072883D01*
X157183000Y-104731117D01*
X189273000Y-104731117D01*
X189273000Y-105072883D01*
X189339675Y-105408081D01*
X189470463Y-105723831D01*
X189660337Y-106007998D01*
X189902002Y-106249663D01*
X190186169Y-106439537D01*
X190501919Y-106570325D01*
X190837117Y-106637000D01*
X191178883Y-106637000D01*
X191514081Y-106570325D01*
X191829831Y-106439537D01*
X192113998Y-106249663D01*
X192355663Y-106007998D01*
X192545537Y-105723831D01*
X192676325Y-105408081D01*
X192743000Y-105072883D01*
X192743000Y-104731117D01*
X192676325Y-104395919D01*
X192545537Y-104080169D01*
X192460148Y-103952374D01*
X194183000Y-103952374D01*
X194183000Y-104327626D01*
X194256209Y-104695668D01*
X194399811Y-105042356D01*
X194608290Y-105354366D01*
X194873634Y-105619710D01*
X195185644Y-105828189D01*
X195532332Y-105971791D01*
X195900374Y-106045000D01*
X196275626Y-106045000D01*
X196643668Y-105971791D01*
X196990356Y-105828189D01*
X197302366Y-105619710D01*
X197567710Y-105354366D01*
X197776189Y-105042356D01*
X197797875Y-104990000D01*
X210601928Y-104990000D01*
X210614188Y-105114482D01*
X210650498Y-105234180D01*
X210709463Y-105344494D01*
X210788815Y-105441185D01*
X210885506Y-105520537D01*
X210995820Y-105579502D01*
X211115518Y-105615812D01*
X211240000Y-105628072D01*
X211804250Y-105625000D01*
X211963000Y-105466250D01*
X211963000Y-104267000D01*
X212217000Y-104267000D01*
X212217000Y-105466250D01*
X212375750Y-105625000D01*
X212940000Y-105628072D01*
X213064482Y-105615812D01*
X213184180Y-105579502D01*
X213294494Y-105520537D01*
X213391185Y-105441185D01*
X213470537Y-105344494D01*
X213529502Y-105234180D01*
X213565812Y-105114482D01*
X213578072Y-104990000D01*
X213575000Y-104425750D01*
X213416250Y-104267000D01*
X212217000Y-104267000D01*
X211963000Y-104267000D01*
X210763750Y-104267000D01*
X210605000Y-104425750D01*
X210601928Y-104990000D01*
X197797875Y-104990000D01*
X197919791Y-104695668D01*
X197993000Y-104327626D01*
X197993000Y-103952374D01*
X197919791Y-103584332D01*
X197776189Y-103237644D01*
X197567710Y-102925634D01*
X197302366Y-102660290D01*
X196990356Y-102451811D01*
X196643668Y-102308209D01*
X196275626Y-102235000D01*
X195900374Y-102235000D01*
X195532332Y-102308209D01*
X195185644Y-102451811D01*
X194873634Y-102660290D01*
X194608290Y-102925634D01*
X194399811Y-103237644D01*
X194256209Y-103584332D01*
X194183000Y-103952374D01*
X192460148Y-103952374D01*
X192355663Y-103796002D01*
X192113998Y-103554337D01*
X191829831Y-103364463D01*
X191514081Y-103233675D01*
X191178883Y-103167000D01*
X190837117Y-103167000D01*
X190501919Y-103233675D01*
X190186169Y-103364463D01*
X189902002Y-103554337D01*
X189660337Y-103796002D01*
X189470463Y-104080169D01*
X189339675Y-104395919D01*
X189273000Y-104731117D01*
X157183000Y-104731117D01*
X157116325Y-104395919D01*
X156985537Y-104080169D01*
X156795663Y-103796002D01*
X156553998Y-103554337D01*
X156269831Y-103364463D01*
X155954081Y-103233675D01*
X155618883Y-103167000D01*
X155277117Y-103167000D01*
X154941919Y-103233675D01*
X154626169Y-103364463D01*
X154342002Y-103554337D01*
X154100337Y-103796002D01*
X153910463Y-104080169D01*
X153779675Y-104395919D01*
X153713000Y-104731117D01*
X152181252Y-104731117D01*
X152254874Y-104462389D01*
X152281514Y-104088084D01*
X152234618Y-103715773D01*
X152115988Y-103359765D01*
X151987871Y-103120076D01*
X151695852Y-102991753D01*
X150547605Y-104140000D01*
X150188395Y-104140000D01*
X149040148Y-102991753D01*
X148748129Y-103120076D01*
X148580277Y-103455695D01*
X148481126Y-103817611D01*
X148454486Y-104191916D01*
X135641924Y-104191916D01*
X135667185Y-104171185D01*
X135746537Y-104074494D01*
X135805502Y-103964180D01*
X135841812Y-103844482D01*
X135854072Y-103720000D01*
X135851000Y-103155750D01*
X135692250Y-102997000D01*
X134493000Y-102997000D01*
X134239000Y-102997000D01*
X133039750Y-102997000D01*
X132881000Y-103155750D01*
X132877928Y-103720000D01*
X132284176Y-103720000D01*
X132250238Y-103608122D01*
X132312912Y-103558343D01*
X132393800Y-103462933D01*
X132454521Y-103353576D01*
X132492741Y-103234474D01*
X132504000Y-103131750D01*
X132345250Y-102973000D01*
X132232678Y-102973000D01*
X132320185Y-102901185D01*
X132399537Y-102804494D01*
X132436032Y-102736218D01*
X132504000Y-102668250D01*
X132494012Y-102577120D01*
X132494812Y-102574482D01*
X132507072Y-102450000D01*
X132507072Y-102235000D01*
X132879099Y-102235000D01*
X132881000Y-102584250D01*
X133039750Y-102743000D01*
X134239000Y-102743000D01*
X134239000Y-102723000D01*
X134493000Y-102723000D01*
X134493000Y-102743000D01*
X135692250Y-102743000D01*
X135851000Y-102584250D01*
X135852901Y-102235000D01*
X135900928Y-102235000D01*
X135900928Y-103115000D01*
X135917992Y-103288254D01*
X135968528Y-103454850D01*
X136050595Y-103608386D01*
X136161038Y-103742962D01*
X136295614Y-103853405D01*
X136449150Y-103935472D01*
X136615746Y-103986008D01*
X136789000Y-104003072D01*
X138039000Y-104003072D01*
X138212254Y-103986008D01*
X138378850Y-103935472D01*
X138532386Y-103853405D01*
X138666962Y-103742962D01*
X138777405Y-103608386D01*
X138859472Y-103454850D01*
X138910008Y-103288254D01*
X138927072Y-103115000D01*
X138927072Y-102235000D01*
X140951616Y-102235000D01*
X141000012Y-102380235D01*
X141128129Y-102619924D01*
X141420148Y-102748247D01*
X141933395Y-102235000D01*
X142292605Y-102235000D01*
X141599753Y-102927852D01*
X141728076Y-103219871D01*
X142063695Y-103387723D01*
X142425611Y-103486874D01*
X142799916Y-103513514D01*
X143172227Y-103466618D01*
X143528235Y-103347988D01*
X143767924Y-103219871D01*
X143896247Y-102927852D01*
X143203395Y-102235000D01*
X143562605Y-102235000D01*
X144075852Y-102748247D01*
X144367871Y-102619924D01*
X144535723Y-102284305D01*
X144549231Y-102235000D01*
X150248491Y-102235000D01*
X149943773Y-102273382D01*
X149587765Y-102392012D01*
X149348076Y-102520129D01*
X149219753Y-102812148D01*
X150368000Y-103960395D01*
X151516247Y-102812148D01*
X151387924Y-102520129D01*
X151052305Y-102352277D01*
X150690389Y-102253126D01*
X150435710Y-102235000D01*
X162501510Y-102235000D01*
X162518063Y-102259774D01*
X162662226Y-102403937D01*
X162831744Y-102517205D01*
X163020102Y-102595226D01*
X163220061Y-102635000D01*
X163282199Y-102635000D01*
X164536201Y-103889003D01*
X164559999Y-103918001D01*
X164675724Y-104012974D01*
X164807753Y-104083546D01*
X164951014Y-104127003D01*
X165062667Y-104138000D01*
X165062675Y-104138000D01*
X165100000Y-104141676D01*
X165137325Y-104138000D01*
X172174678Y-104138000D01*
X172212000Y-104141676D01*
X172249322Y-104138000D01*
X172249333Y-104138000D01*
X172360986Y-104127003D01*
X172504247Y-104083546D01*
X172636276Y-104012974D01*
X172752001Y-103918001D01*
X172768678Y-103897679D01*
X172789000Y-103881002D01*
X172883973Y-103765277D01*
X172954545Y-103633248D01*
X172998002Y-103489987D01*
X173003411Y-103435066D01*
X173072787Y-103397983D01*
X173169013Y-103319013D01*
X173247983Y-103222787D01*
X173306664Y-103113004D01*
X173342799Y-102993882D01*
X173355000Y-102870000D01*
X173355000Y-102743000D01*
X181356000Y-102743000D01*
X181380776Y-102740560D01*
X181404601Y-102733333D01*
X181426557Y-102721597D01*
X181445803Y-102705803D01*
X181461597Y-102686557D01*
X181473333Y-102664601D01*
X181480560Y-102640776D01*
X181483000Y-102616000D01*
X181483000Y-101727000D01*
X201803000Y-101727000D01*
X201803000Y-101787626D01*
G37*
%TD.AperFunction*%
%TD*%
D20*
%TO.N,+5V*%
X172593000Y-97828999D02*
X172212323Y-97828999D01*
X172175000Y-97825323D01*
X172137677Y-97828999D01*
X172137668Y-97828999D01*
X172026015Y-97839996D01*
X171882754Y-97883453D01*
X171750725Y-97954025D01*
X171635000Y-98048998D01*
X171611202Y-98077997D01*
X171410198Y-98279000D01*
X171348061Y-98279000D01*
X171148102Y-98318774D01*
X170959744Y-98396795D01*
X170790226Y-98510063D01*
X170646063Y-98654226D01*
X170532795Y-98823744D01*
X170454774Y-99012102D01*
X170415000Y-99212061D01*
X170415000Y-99415939D01*
X170454774Y-99615898D01*
X170532795Y-99804256D01*
X170646063Y-99973774D01*
X170790226Y-100117937D01*
X170959744Y-100231205D01*
X171148102Y-100309226D01*
X171348061Y-100349000D01*
X171551939Y-100349000D01*
X171751898Y-100309226D01*
X171940256Y-100231205D01*
X172085000Y-100134490D01*
X172085000Y-100144199D01*
X171738002Y-100491197D01*
X171708998Y-100515000D01*
X171653870Y-100582175D01*
X171614025Y-100630725D01*
X171578256Y-100697644D01*
X171543453Y-100762755D01*
X171499996Y-100906016D01*
X171488999Y-101017669D01*
X171488999Y-101017679D01*
X171485323Y-101055001D01*
X171488999Y-101092324D01*
X171489000Y-102618000D01*
X166484559Y-102618000D01*
X166433342Y-101593658D01*
X166429667Y-101569034D01*
X166421259Y-101545601D01*
X166408441Y-101524257D01*
X166391706Y-101505825D01*
X166371696Y-101491012D01*
X166349181Y-101480387D01*
X166325025Y-101474358D01*
X166306500Y-101473000D01*
X164352015Y-101473000D01*
X164317226Y-101298102D01*
X164239205Y-101109744D01*
X164125937Y-100940226D01*
X163981774Y-100796063D01*
X163812256Y-100682795D01*
X163623898Y-100604774D01*
X163423939Y-100565000D01*
X163220061Y-100565000D01*
X163020102Y-100604774D01*
X162831744Y-100682795D01*
X162662226Y-100796063D01*
X162518063Y-100940226D01*
X162404795Y-101109744D01*
X162326774Y-101298102D01*
X162291985Y-101473000D01*
X144653000Y-101473000D01*
X144653000Y-101412374D01*
X144579791Y-101044332D01*
X144436189Y-100697644D01*
X144227710Y-100385634D01*
X143962366Y-100120290D01*
X143650356Y-99911811D01*
X143303668Y-99768209D01*
X142935626Y-99695000D01*
X142560374Y-99695000D01*
X142192332Y-99768209D01*
X141845644Y-99911811D01*
X141533634Y-100120290D01*
X141268290Y-100385634D01*
X141059811Y-100697644D01*
X140916209Y-101044332D01*
X140843000Y-101412374D01*
X140843000Y-101473000D01*
X138793647Y-101473000D01*
X138859472Y-101349850D01*
X138861247Y-101344000D01*
X139408678Y-101344000D01*
X139446000Y-101347676D01*
X139483322Y-101344000D01*
X139483333Y-101344000D01*
X139594986Y-101333003D01*
X139738247Y-101289546D01*
X139870276Y-101218974D01*
X139986001Y-101124001D01*
X140009804Y-101094998D01*
X140501802Y-100603000D01*
X140563939Y-100603000D01*
X140763898Y-100563226D01*
X140952256Y-100485205D01*
X141121774Y-100371937D01*
X141265937Y-100227774D01*
X141379205Y-100058256D01*
X141457226Y-99869898D01*
X141497000Y-99669939D01*
X141497000Y-99466061D01*
X141457226Y-99266102D01*
X141379205Y-99077744D01*
X141265937Y-98908226D01*
X141230085Y-98872374D01*
X148463000Y-98872374D01*
X148463000Y-99247626D01*
X148536209Y-99615668D01*
X148679811Y-99962356D01*
X148888290Y-100274366D01*
X149153634Y-100539710D01*
X149465644Y-100748189D01*
X149812332Y-100891791D01*
X150180374Y-100965000D01*
X150555626Y-100965000D01*
X150923668Y-100891791D01*
X151270356Y-100748189D01*
X151582366Y-100539710D01*
X151847710Y-100274366D01*
X152056189Y-99962356D01*
X152199791Y-99615668D01*
X152273000Y-99247626D01*
X152273000Y-98872374D01*
X152199791Y-98504332D01*
X152056189Y-98157644D01*
X152035792Y-98127117D01*
X153713000Y-98127117D01*
X153713000Y-98468883D01*
X153779675Y-98804081D01*
X153910463Y-99119831D01*
X154100337Y-99403998D01*
X154342002Y-99645663D01*
X154626169Y-99835537D01*
X154941919Y-99966325D01*
X155277117Y-100033000D01*
X155618883Y-100033000D01*
X155954081Y-99966325D01*
X156269831Y-99835537D01*
X156553998Y-99645663D01*
X156795663Y-99403998D01*
X156985537Y-99119831D01*
X157116325Y-98804081D01*
X157183000Y-98468883D01*
X157183000Y-98127117D01*
X157116325Y-97791919D01*
X156985537Y-97476169D01*
X156795663Y-97192002D01*
X156553998Y-96950337D01*
X156269831Y-96760463D01*
X155954081Y-96629675D01*
X155618883Y-96563000D01*
X155277117Y-96563000D01*
X154941919Y-96629675D01*
X154626169Y-96760463D01*
X154342002Y-96950337D01*
X154100337Y-97192002D01*
X153910463Y-97476169D01*
X153779675Y-97791919D01*
X153713000Y-98127117D01*
X152035792Y-98127117D01*
X151847710Y-97845634D01*
X151582366Y-97580290D01*
X151270356Y-97371811D01*
X150923668Y-97228209D01*
X150555626Y-97155000D01*
X150180374Y-97155000D01*
X149812332Y-97228209D01*
X149465644Y-97371811D01*
X149153634Y-97580290D01*
X148888290Y-97845634D01*
X148679811Y-98157644D01*
X148536209Y-98504332D01*
X148463000Y-98872374D01*
X141230085Y-98872374D01*
X141121774Y-98764063D01*
X140952256Y-98650795D01*
X140763898Y-98572774D01*
X140563939Y-98533000D01*
X140360061Y-98533000D01*
X140160102Y-98572774D01*
X139971744Y-98650795D01*
X139802226Y-98764063D01*
X139658063Y-98908226D01*
X139544795Y-99077744D01*
X139466774Y-99266102D01*
X139427000Y-99466061D01*
X139427000Y-99528198D01*
X139131199Y-99824000D01*
X138883391Y-99824000D01*
X138859472Y-99745150D01*
X138777405Y-99591614D01*
X138666962Y-99457038D01*
X138532386Y-99346595D01*
X138378850Y-99264528D01*
X138212254Y-99213992D01*
X138039000Y-99196928D01*
X136789000Y-99196928D01*
X136615746Y-99213992D01*
X136449150Y-99264528D01*
X136295614Y-99346595D01*
X136161038Y-99457038D01*
X136050595Y-99591614D01*
X135968528Y-99745150D01*
X135917992Y-99911746D01*
X135900928Y-100085000D01*
X135900928Y-101010000D01*
X135917992Y-101183254D01*
X135968528Y-101349850D01*
X136034353Y-101473000D01*
X135779407Y-101473000D01*
X135805502Y-101424180D01*
X135841812Y-101304482D01*
X135854072Y-101180000D01*
X135851000Y-100615750D01*
X135692250Y-100457000D01*
X134493000Y-100457000D01*
X134493000Y-100477000D01*
X134239000Y-100477000D01*
X134239000Y-100457000D01*
X133039750Y-100457000D01*
X132881000Y-100615750D01*
X132877928Y-101180000D01*
X132890188Y-101304482D01*
X132926498Y-101424180D01*
X132952593Y-101473000D01*
X132507072Y-101473000D01*
X132507072Y-101400000D01*
X132494812Y-101275518D01*
X132494655Y-101275000D01*
X132494812Y-101274482D01*
X132507072Y-101150000D01*
X132507072Y-100750000D01*
X132494812Y-100625518D01*
X132494012Y-100622880D01*
X132504000Y-100531750D01*
X132436032Y-100463782D01*
X132399537Y-100395506D01*
X132320185Y-100298815D01*
X132232678Y-100227000D01*
X132345250Y-100227000D01*
X132504000Y-100068250D01*
X132492741Y-99965526D01*
X132454521Y-99846424D01*
X132393800Y-99737067D01*
X132312912Y-99641657D01*
X132250239Y-99591878D01*
X132284175Y-99480000D01*
X132877928Y-99480000D01*
X132881000Y-100044250D01*
X133039750Y-100203000D01*
X134239000Y-100203000D01*
X134239000Y-99003750D01*
X134493000Y-99003750D01*
X134493000Y-100203000D01*
X135692250Y-100203000D01*
X135851000Y-100044250D01*
X135854072Y-99480000D01*
X135841812Y-99355518D01*
X135805502Y-99235820D01*
X135746537Y-99125506D01*
X135667185Y-99028815D01*
X135570494Y-98949463D01*
X135460180Y-98890498D01*
X135340482Y-98854188D01*
X135216000Y-98841928D01*
X134651750Y-98845000D01*
X134493000Y-99003750D01*
X134239000Y-99003750D01*
X134080250Y-98845000D01*
X133516000Y-98841928D01*
X133391518Y-98854188D01*
X133271820Y-98890498D01*
X133161506Y-98949463D01*
X133064815Y-99028815D01*
X132985463Y-99125506D01*
X132926498Y-99235820D01*
X132890188Y-99355518D01*
X132877928Y-99480000D01*
X132284175Y-99480000D01*
X132287938Y-99467598D01*
X132304000Y-99304521D01*
X132304000Y-98895480D01*
X132287938Y-98732403D01*
X132224468Y-98523167D01*
X132121396Y-98330334D01*
X132084192Y-98285000D01*
X135900928Y-98285000D01*
X135913188Y-98409482D01*
X135949498Y-98529180D01*
X136008463Y-98639494D01*
X136087815Y-98736185D01*
X136184506Y-98815537D01*
X136294820Y-98874502D01*
X136414518Y-98910812D01*
X136539000Y-98923072D01*
X137128250Y-98920000D01*
X137287000Y-98761250D01*
X137287000Y-97699500D01*
X137541000Y-97699500D01*
X137541000Y-98761250D01*
X137699750Y-98920000D01*
X138289000Y-98923072D01*
X138413482Y-98910812D01*
X138533180Y-98874502D01*
X138643494Y-98815537D01*
X138740185Y-98736185D01*
X138819537Y-98639494D01*
X138878502Y-98529180D01*
X138914812Y-98409482D01*
X138927072Y-98285000D01*
X138924000Y-97858250D01*
X138765250Y-97699500D01*
X137541000Y-97699500D01*
X137287000Y-97699500D01*
X136062750Y-97699500D01*
X135904000Y-97858250D01*
X135900928Y-98285000D01*
X132084192Y-98285000D01*
X131982686Y-98161314D01*
X131813666Y-98022604D01*
X131620834Y-97919532D01*
X131411598Y-97856062D01*
X131194000Y-97834630D01*
X130976403Y-97856062D01*
X130767167Y-97919532D01*
X130574335Y-98022604D01*
X130405315Y-98161314D01*
X130266604Y-98330334D01*
X130163532Y-98523166D01*
X130100062Y-98732402D01*
X130084000Y-98895479D01*
X130084000Y-99304520D01*
X130100062Y-99467597D01*
X130137762Y-99591878D01*
X130075088Y-99641657D01*
X129994200Y-99737067D01*
X129933479Y-99846424D01*
X129907072Y-99928714D01*
X129907072Y-99850000D01*
X129894812Y-99725518D01*
X129858502Y-99605820D01*
X129842028Y-99575000D01*
X129858502Y-99544180D01*
X129894812Y-99424482D01*
X129907072Y-99300000D01*
X129907072Y-98121860D01*
X129909225Y-98100000D01*
X129888373Y-97888283D01*
X129826617Y-97684702D01*
X129726332Y-97497081D01*
X129591370Y-97332630D01*
X129426919Y-97197668D01*
X129239298Y-97097383D01*
X129035717Y-97035627D01*
X128877051Y-97020000D01*
X128110949Y-97020000D01*
X127952283Y-97035627D01*
X127748702Y-97097383D01*
X127685000Y-97131432D01*
X127685000Y-96860000D01*
X135900928Y-96860000D01*
X135904000Y-97286750D01*
X136062750Y-97445500D01*
X137287000Y-97445500D01*
X137287000Y-96383750D01*
X137541000Y-96383750D01*
X137541000Y-97445500D01*
X138765250Y-97445500D01*
X138924000Y-97286750D01*
X138927072Y-96860000D01*
X138914812Y-96735518D01*
X138878502Y-96615820D01*
X138819537Y-96505506D01*
X138740185Y-96408815D01*
X138643494Y-96329463D01*
X138533180Y-96270498D01*
X138413482Y-96234188D01*
X138289000Y-96221928D01*
X137699750Y-96225000D01*
X137541000Y-96383750D01*
X137287000Y-96383750D01*
X137128250Y-96225000D01*
X136539000Y-96221928D01*
X136414518Y-96234188D01*
X136294820Y-96270498D01*
X136184506Y-96329463D01*
X136087815Y-96408815D01*
X136008463Y-96505506D01*
X135949498Y-96615820D01*
X135913188Y-96735518D01*
X135900928Y-96860000D01*
X127685000Y-96860000D01*
X127685000Y-95935000D01*
X172593000Y-95935000D01*
X172593000Y-97828999D01*
%TA.AperFunction,Conductor*%
D21*
G36*
X172593000Y-97828999D02*
G01*
X172212323Y-97828999D01*
X172175000Y-97825323D01*
X172137677Y-97828999D01*
X172137668Y-97828999D01*
X172026015Y-97839996D01*
X171882754Y-97883453D01*
X171750725Y-97954025D01*
X171635000Y-98048998D01*
X171611202Y-98077997D01*
X171410198Y-98279000D01*
X171348061Y-98279000D01*
X171148102Y-98318774D01*
X170959744Y-98396795D01*
X170790226Y-98510063D01*
X170646063Y-98654226D01*
X170532795Y-98823744D01*
X170454774Y-99012102D01*
X170415000Y-99212061D01*
X170415000Y-99415939D01*
X170454774Y-99615898D01*
X170532795Y-99804256D01*
X170646063Y-99973774D01*
X170790226Y-100117937D01*
X170959744Y-100231205D01*
X171148102Y-100309226D01*
X171348061Y-100349000D01*
X171551939Y-100349000D01*
X171751898Y-100309226D01*
X171940256Y-100231205D01*
X172085000Y-100134490D01*
X172085000Y-100144199D01*
X171738002Y-100491197D01*
X171708998Y-100515000D01*
X171653870Y-100582175D01*
X171614025Y-100630725D01*
X171578256Y-100697644D01*
X171543453Y-100762755D01*
X171499996Y-100906016D01*
X171488999Y-101017669D01*
X171488999Y-101017679D01*
X171485323Y-101055001D01*
X171488999Y-101092324D01*
X171489000Y-102618000D01*
X166484559Y-102618000D01*
X166433342Y-101593658D01*
X166429667Y-101569034D01*
X166421259Y-101545601D01*
X166408441Y-101524257D01*
X166391706Y-101505825D01*
X166371696Y-101491012D01*
X166349181Y-101480387D01*
X166325025Y-101474358D01*
X166306500Y-101473000D01*
X164352015Y-101473000D01*
X164317226Y-101298102D01*
X164239205Y-101109744D01*
X164125937Y-100940226D01*
X163981774Y-100796063D01*
X163812256Y-100682795D01*
X163623898Y-100604774D01*
X163423939Y-100565000D01*
X163220061Y-100565000D01*
X163020102Y-100604774D01*
X162831744Y-100682795D01*
X162662226Y-100796063D01*
X162518063Y-100940226D01*
X162404795Y-101109744D01*
X162326774Y-101298102D01*
X162291985Y-101473000D01*
X144653000Y-101473000D01*
X144653000Y-101412374D01*
X144579791Y-101044332D01*
X144436189Y-100697644D01*
X144227710Y-100385634D01*
X143962366Y-100120290D01*
X143650356Y-99911811D01*
X143303668Y-99768209D01*
X142935626Y-99695000D01*
X142560374Y-99695000D01*
X142192332Y-99768209D01*
X141845644Y-99911811D01*
X141533634Y-100120290D01*
X141268290Y-100385634D01*
X141059811Y-100697644D01*
X140916209Y-101044332D01*
X140843000Y-101412374D01*
X140843000Y-101473000D01*
X138793647Y-101473000D01*
X138859472Y-101349850D01*
X138861247Y-101344000D01*
X139408678Y-101344000D01*
X139446000Y-101347676D01*
X139483322Y-101344000D01*
X139483333Y-101344000D01*
X139594986Y-101333003D01*
X139738247Y-101289546D01*
X139870276Y-101218974D01*
X139986001Y-101124001D01*
X140009804Y-101094998D01*
X140501802Y-100603000D01*
X140563939Y-100603000D01*
X140763898Y-100563226D01*
X140952256Y-100485205D01*
X141121774Y-100371937D01*
X141265937Y-100227774D01*
X141379205Y-100058256D01*
X141457226Y-99869898D01*
X141497000Y-99669939D01*
X141497000Y-99466061D01*
X141457226Y-99266102D01*
X141379205Y-99077744D01*
X141265937Y-98908226D01*
X141230085Y-98872374D01*
X148463000Y-98872374D01*
X148463000Y-99247626D01*
X148536209Y-99615668D01*
X148679811Y-99962356D01*
X148888290Y-100274366D01*
X149153634Y-100539710D01*
X149465644Y-100748189D01*
X149812332Y-100891791D01*
X150180374Y-100965000D01*
X150555626Y-100965000D01*
X150923668Y-100891791D01*
X151270356Y-100748189D01*
X151582366Y-100539710D01*
X151847710Y-100274366D01*
X152056189Y-99962356D01*
X152199791Y-99615668D01*
X152273000Y-99247626D01*
X152273000Y-98872374D01*
X152199791Y-98504332D01*
X152056189Y-98157644D01*
X152035792Y-98127117D01*
X153713000Y-98127117D01*
X153713000Y-98468883D01*
X153779675Y-98804081D01*
X153910463Y-99119831D01*
X154100337Y-99403998D01*
X154342002Y-99645663D01*
X154626169Y-99835537D01*
X154941919Y-99966325D01*
X155277117Y-100033000D01*
X155618883Y-100033000D01*
X155954081Y-99966325D01*
X156269831Y-99835537D01*
X156553998Y-99645663D01*
X156795663Y-99403998D01*
X156985537Y-99119831D01*
X157116325Y-98804081D01*
X157183000Y-98468883D01*
X157183000Y-98127117D01*
X157116325Y-97791919D01*
X156985537Y-97476169D01*
X156795663Y-97192002D01*
X156553998Y-96950337D01*
X156269831Y-96760463D01*
X155954081Y-96629675D01*
X155618883Y-96563000D01*
X155277117Y-96563000D01*
X154941919Y-96629675D01*
X154626169Y-96760463D01*
X154342002Y-96950337D01*
X154100337Y-97192002D01*
X153910463Y-97476169D01*
X153779675Y-97791919D01*
X153713000Y-98127117D01*
X152035792Y-98127117D01*
X151847710Y-97845634D01*
X151582366Y-97580290D01*
X151270356Y-97371811D01*
X150923668Y-97228209D01*
X150555626Y-97155000D01*
X150180374Y-97155000D01*
X149812332Y-97228209D01*
X149465644Y-97371811D01*
X149153634Y-97580290D01*
X148888290Y-97845634D01*
X148679811Y-98157644D01*
X148536209Y-98504332D01*
X148463000Y-98872374D01*
X141230085Y-98872374D01*
X141121774Y-98764063D01*
X140952256Y-98650795D01*
X140763898Y-98572774D01*
X140563939Y-98533000D01*
X140360061Y-98533000D01*
X140160102Y-98572774D01*
X139971744Y-98650795D01*
X139802226Y-98764063D01*
X139658063Y-98908226D01*
X139544795Y-99077744D01*
X139466774Y-99266102D01*
X139427000Y-99466061D01*
X139427000Y-99528198D01*
X139131199Y-99824000D01*
X138883391Y-99824000D01*
X138859472Y-99745150D01*
X138777405Y-99591614D01*
X138666962Y-99457038D01*
X138532386Y-99346595D01*
X138378850Y-99264528D01*
X138212254Y-99213992D01*
X138039000Y-99196928D01*
X136789000Y-99196928D01*
X136615746Y-99213992D01*
X136449150Y-99264528D01*
X136295614Y-99346595D01*
X136161038Y-99457038D01*
X136050595Y-99591614D01*
X135968528Y-99745150D01*
X135917992Y-99911746D01*
X135900928Y-100085000D01*
X135900928Y-101010000D01*
X135917992Y-101183254D01*
X135968528Y-101349850D01*
X136034353Y-101473000D01*
X135779407Y-101473000D01*
X135805502Y-101424180D01*
X135841812Y-101304482D01*
X135854072Y-101180000D01*
X135851000Y-100615750D01*
X135692250Y-100457000D01*
X134493000Y-100457000D01*
X134493000Y-100477000D01*
X134239000Y-100477000D01*
X134239000Y-100457000D01*
X133039750Y-100457000D01*
X132881000Y-100615750D01*
X132877928Y-101180000D01*
X132890188Y-101304482D01*
X132926498Y-101424180D01*
X132952593Y-101473000D01*
X132507072Y-101473000D01*
X132507072Y-101400000D01*
X132494812Y-101275518D01*
X132494655Y-101275000D01*
X132494812Y-101274482D01*
X132507072Y-101150000D01*
X132507072Y-100750000D01*
X132494812Y-100625518D01*
X132494012Y-100622880D01*
X132504000Y-100531750D01*
X132436032Y-100463782D01*
X132399537Y-100395506D01*
X132320185Y-100298815D01*
X132232678Y-100227000D01*
X132345250Y-100227000D01*
X132504000Y-100068250D01*
X132492741Y-99965526D01*
X132454521Y-99846424D01*
X132393800Y-99737067D01*
X132312912Y-99641657D01*
X132250239Y-99591878D01*
X132284175Y-99480000D01*
X132877928Y-99480000D01*
X132881000Y-100044250D01*
X133039750Y-100203000D01*
X134239000Y-100203000D01*
X134239000Y-99003750D01*
X134493000Y-99003750D01*
X134493000Y-100203000D01*
X135692250Y-100203000D01*
X135851000Y-100044250D01*
X135854072Y-99480000D01*
X135841812Y-99355518D01*
X135805502Y-99235820D01*
X135746537Y-99125506D01*
X135667185Y-99028815D01*
X135570494Y-98949463D01*
X135460180Y-98890498D01*
X135340482Y-98854188D01*
X135216000Y-98841928D01*
X134651750Y-98845000D01*
X134493000Y-99003750D01*
X134239000Y-99003750D01*
X134080250Y-98845000D01*
X133516000Y-98841928D01*
X133391518Y-98854188D01*
X133271820Y-98890498D01*
X133161506Y-98949463D01*
X133064815Y-99028815D01*
X132985463Y-99125506D01*
X132926498Y-99235820D01*
X132890188Y-99355518D01*
X132877928Y-99480000D01*
X132284175Y-99480000D01*
X132287938Y-99467598D01*
X132304000Y-99304521D01*
X132304000Y-98895480D01*
X132287938Y-98732403D01*
X132224468Y-98523167D01*
X132121396Y-98330334D01*
X132084192Y-98285000D01*
X135900928Y-98285000D01*
X135913188Y-98409482D01*
X135949498Y-98529180D01*
X136008463Y-98639494D01*
X136087815Y-98736185D01*
X136184506Y-98815537D01*
X136294820Y-98874502D01*
X136414518Y-98910812D01*
X136539000Y-98923072D01*
X137128250Y-98920000D01*
X137287000Y-98761250D01*
X137287000Y-97699500D01*
X137541000Y-97699500D01*
X137541000Y-98761250D01*
X137699750Y-98920000D01*
X138289000Y-98923072D01*
X138413482Y-98910812D01*
X138533180Y-98874502D01*
X138643494Y-98815537D01*
X138740185Y-98736185D01*
X138819537Y-98639494D01*
X138878502Y-98529180D01*
X138914812Y-98409482D01*
X138927072Y-98285000D01*
X138924000Y-97858250D01*
X138765250Y-97699500D01*
X137541000Y-97699500D01*
X137287000Y-97699500D01*
X136062750Y-97699500D01*
X135904000Y-97858250D01*
X135900928Y-98285000D01*
X132084192Y-98285000D01*
X131982686Y-98161314D01*
X131813666Y-98022604D01*
X131620834Y-97919532D01*
X131411598Y-97856062D01*
X131194000Y-97834630D01*
X130976403Y-97856062D01*
X130767167Y-97919532D01*
X130574335Y-98022604D01*
X130405315Y-98161314D01*
X130266604Y-98330334D01*
X130163532Y-98523166D01*
X130100062Y-98732402D01*
X130084000Y-98895479D01*
X130084000Y-99304520D01*
X130100062Y-99467597D01*
X130137762Y-99591878D01*
X130075088Y-99641657D01*
X129994200Y-99737067D01*
X129933479Y-99846424D01*
X129907072Y-99928714D01*
X129907072Y-99850000D01*
X129894812Y-99725518D01*
X129858502Y-99605820D01*
X129842028Y-99575000D01*
X129858502Y-99544180D01*
X129894812Y-99424482D01*
X129907072Y-99300000D01*
X129907072Y-98121860D01*
X129909225Y-98100000D01*
X129888373Y-97888283D01*
X129826617Y-97684702D01*
X129726332Y-97497081D01*
X129591370Y-97332630D01*
X129426919Y-97197668D01*
X129239298Y-97097383D01*
X129035717Y-97035627D01*
X128877051Y-97020000D01*
X128110949Y-97020000D01*
X127952283Y-97035627D01*
X127748702Y-97097383D01*
X127685000Y-97131432D01*
X127685000Y-96860000D01*
X135900928Y-96860000D01*
X135904000Y-97286750D01*
X136062750Y-97445500D01*
X137287000Y-97445500D01*
X137287000Y-96383750D01*
X137541000Y-96383750D01*
X137541000Y-97445500D01*
X138765250Y-97445500D01*
X138924000Y-97286750D01*
X138927072Y-96860000D01*
X138914812Y-96735518D01*
X138878502Y-96615820D01*
X138819537Y-96505506D01*
X138740185Y-96408815D01*
X138643494Y-96329463D01*
X138533180Y-96270498D01*
X138413482Y-96234188D01*
X138289000Y-96221928D01*
X137699750Y-96225000D01*
X137541000Y-96383750D01*
X137287000Y-96383750D01*
X137128250Y-96225000D01*
X136539000Y-96221928D01*
X136414518Y-96234188D01*
X136294820Y-96270498D01*
X136184506Y-96329463D01*
X136087815Y-96408815D01*
X136008463Y-96505506D01*
X135949498Y-96615820D01*
X135913188Y-96735518D01*
X135900928Y-96860000D01*
X127685000Y-96860000D01*
X127685000Y-95935000D01*
X172593000Y-95935000D01*
X172593000Y-97828999D01*
G37*
%TD.AperFunction*%
%TD*%
D20*
%TO.N,/VBAT*%
X215215000Y-100965000D02*
X213424476Y-100965000D01*
X213361641Y-100833080D01*
X213187588Y-100599731D01*
X212971355Y-100404822D01*
X212845745Y-100330000D01*
X212971355Y-100255178D01*
X213187588Y-100060269D01*
X213361641Y-99826920D01*
X213486825Y-99564099D01*
X213531476Y-99416890D01*
X213410155Y-99187000D01*
X212217000Y-99187000D01*
X212217000Y-100965000D01*
X211963000Y-100965000D01*
X211963000Y-99187000D01*
X210769845Y-99187000D01*
X210648524Y-99416890D01*
X210693175Y-99564099D01*
X210818359Y-99826920D01*
X210992412Y-100060269D01*
X211208645Y-100255178D01*
X211334255Y-100330000D01*
X211208645Y-100404822D01*
X210992412Y-100599731D01*
X210818359Y-100833080D01*
X210755524Y-100965000D01*
X205504384Y-100965000D01*
X205455988Y-100819765D01*
X205327871Y-100580076D01*
X205035852Y-100451753D01*
X204522605Y-100965000D01*
X204163395Y-100965000D01*
X204856247Y-100272148D01*
X204727924Y-99980129D01*
X204392305Y-99812277D01*
X204030389Y-99713126D01*
X203656084Y-99686486D01*
X203283773Y-99733382D01*
X202927765Y-99852012D01*
X202688076Y-99980129D01*
X202559753Y-100272148D01*
X203252605Y-100965000D01*
X202893395Y-100965000D01*
X202380148Y-100451753D01*
X202088129Y-100580076D01*
X201920277Y-100915695D01*
X201906769Y-100965000D01*
X196207509Y-100965000D01*
X196512227Y-100926618D01*
X196868235Y-100807988D01*
X197107924Y-100679871D01*
X197236247Y-100387852D01*
X196088000Y-99239605D01*
X194939753Y-100387852D01*
X195068076Y-100679871D01*
X195403695Y-100847723D01*
X195765611Y-100946874D01*
X196020290Y-100965000D01*
X182091564Y-100965000D01*
X182169477Y-100910696D01*
X182273235Y-100802778D01*
X182353946Y-100676691D01*
X182408507Y-100537281D01*
X182434823Y-100389905D01*
X182431881Y-100240227D01*
X182399796Y-100093999D01*
X182339799Y-99956840D01*
X182275647Y-99864798D01*
X181991000Y-99531530D01*
X181991000Y-99187000D01*
X181978799Y-99063118D01*
X181942664Y-98943996D01*
X181883983Y-98834213D01*
X181805013Y-98737987D01*
X181708787Y-98659017D01*
X181599004Y-98600336D01*
X181479882Y-98564201D01*
X181356000Y-98552000D01*
X181154376Y-98552000D01*
X180791481Y-98127117D01*
X189273000Y-98127117D01*
X189273000Y-98468883D01*
X189339675Y-98804081D01*
X189470463Y-99119831D01*
X189660337Y-99403998D01*
X189902002Y-99645663D01*
X190186169Y-99835537D01*
X190501919Y-99966325D01*
X190837117Y-100033000D01*
X191178883Y-100033000D01*
X191514081Y-99966325D01*
X191829831Y-99835537D01*
X192113998Y-99645663D01*
X192355663Y-99403998D01*
X192545537Y-99119831D01*
X192548815Y-99111916D01*
X194174486Y-99111916D01*
X194221382Y-99484227D01*
X194340012Y-99840235D01*
X194468129Y-100079924D01*
X194760148Y-100208247D01*
X195908395Y-99060000D01*
X196267605Y-99060000D01*
X197415852Y-100208247D01*
X197707871Y-100079924D01*
X197875723Y-99744305D01*
X197974874Y-99382389D01*
X198001514Y-99008084D01*
X197963100Y-98703110D01*
X210648524Y-98703110D01*
X210769845Y-98933000D01*
X211963000Y-98933000D01*
X211963000Y-97739186D01*
X212217000Y-97739186D01*
X212217000Y-98933000D01*
X213410155Y-98933000D01*
X213531476Y-98703110D01*
X213486825Y-98555901D01*
X213361641Y-98293080D01*
X213187588Y-98059731D01*
X212971355Y-97864822D01*
X212721252Y-97715843D01*
X212446891Y-97618519D01*
X212217000Y-97739186D01*
X211963000Y-97739186D01*
X211733109Y-97618519D01*
X211458748Y-97715843D01*
X211208645Y-97864822D01*
X210992412Y-98059731D01*
X210818359Y-98293080D01*
X210693175Y-98555901D01*
X210648524Y-98703110D01*
X197963100Y-98703110D01*
X197954618Y-98635773D01*
X197835988Y-98279765D01*
X197707871Y-98040076D01*
X197415852Y-97911753D01*
X196267605Y-99060000D01*
X195908395Y-99060000D01*
X194760148Y-97911753D01*
X194468129Y-98040076D01*
X194300277Y-98375695D01*
X194201126Y-98737611D01*
X194174486Y-99111916D01*
X192548815Y-99111916D01*
X192676325Y-98804081D01*
X192743000Y-98468883D01*
X192743000Y-98127117D01*
X192676325Y-97791919D01*
X192651568Y-97732148D01*
X194939753Y-97732148D01*
X196088000Y-98880395D01*
X197236247Y-97732148D01*
X197107924Y-97440129D01*
X196772305Y-97272277D01*
X196410389Y-97173126D01*
X196036084Y-97146486D01*
X195663773Y-97193382D01*
X195307765Y-97312012D01*
X195068076Y-97440129D01*
X194939753Y-97732148D01*
X192651568Y-97732148D01*
X192545537Y-97476169D01*
X192355663Y-97192002D01*
X192113998Y-96950337D01*
X191829831Y-96760463D01*
X191514081Y-96629675D01*
X191178883Y-96563000D01*
X190837117Y-96563000D01*
X190501919Y-96629675D01*
X190186169Y-96760463D01*
X189902002Y-96950337D01*
X189660337Y-97192002D01*
X189470463Y-97476169D01*
X189339675Y-97791919D01*
X189273000Y-98127117D01*
X180791481Y-98127117D01*
X180769252Y-98101091D01*
X180726500Y-98048998D01*
X180691710Y-98020447D01*
X180659277Y-97989264D01*
X180633990Y-97973077D01*
X180610775Y-97954025D01*
X180571087Y-97932811D01*
X180533190Y-97908552D01*
X180505232Y-97897610D01*
X180478746Y-97883453D01*
X180435670Y-97870386D01*
X180393780Y-97853992D01*
X180364229Y-97848715D01*
X180335485Y-97839996D01*
X180290692Y-97835584D01*
X180246404Y-97827676D01*
X180179095Y-97828999D01*
X173355000Y-97828999D01*
X173355000Y-95935000D01*
X215215000Y-95935000D01*
X215215000Y-100965000D01*
%TA.AperFunction,Conductor*%
D21*
G36*
X215215000Y-100965000D02*
G01*
X213424476Y-100965000D01*
X213361641Y-100833080D01*
X213187588Y-100599731D01*
X212971355Y-100404822D01*
X212845745Y-100330000D01*
X212971355Y-100255178D01*
X213187588Y-100060269D01*
X213361641Y-99826920D01*
X213486825Y-99564099D01*
X213531476Y-99416890D01*
X213410155Y-99187000D01*
X212217000Y-99187000D01*
X212217000Y-100965000D01*
X211963000Y-100965000D01*
X211963000Y-99187000D01*
X210769845Y-99187000D01*
X210648524Y-99416890D01*
X210693175Y-99564099D01*
X210818359Y-99826920D01*
X210992412Y-100060269D01*
X211208645Y-100255178D01*
X211334255Y-100330000D01*
X211208645Y-100404822D01*
X210992412Y-100599731D01*
X210818359Y-100833080D01*
X210755524Y-100965000D01*
X205504384Y-100965000D01*
X205455988Y-100819765D01*
X205327871Y-100580076D01*
X205035852Y-100451753D01*
X204522605Y-100965000D01*
X204163395Y-100965000D01*
X204856247Y-100272148D01*
X204727924Y-99980129D01*
X204392305Y-99812277D01*
X204030389Y-99713126D01*
X203656084Y-99686486D01*
X203283773Y-99733382D01*
X202927765Y-99852012D01*
X202688076Y-99980129D01*
X202559753Y-100272148D01*
X203252605Y-100965000D01*
X202893395Y-100965000D01*
X202380148Y-100451753D01*
X202088129Y-100580076D01*
X201920277Y-100915695D01*
X201906769Y-100965000D01*
X196207509Y-100965000D01*
X196512227Y-100926618D01*
X196868235Y-100807988D01*
X197107924Y-100679871D01*
X197236247Y-100387852D01*
X196088000Y-99239605D01*
X194939753Y-100387852D01*
X195068076Y-100679871D01*
X195403695Y-100847723D01*
X195765611Y-100946874D01*
X196020290Y-100965000D01*
X182091564Y-100965000D01*
X182169477Y-100910696D01*
X182273235Y-100802778D01*
X182353946Y-100676691D01*
X182408507Y-100537281D01*
X182434823Y-100389905D01*
X182431881Y-100240227D01*
X182399796Y-100093999D01*
X182339799Y-99956840D01*
X182275647Y-99864798D01*
X181991000Y-99531530D01*
X181991000Y-99187000D01*
X181978799Y-99063118D01*
X181942664Y-98943996D01*
X181883983Y-98834213D01*
X181805013Y-98737987D01*
X181708787Y-98659017D01*
X181599004Y-98600336D01*
X181479882Y-98564201D01*
X181356000Y-98552000D01*
X181154376Y-98552000D01*
X180791481Y-98127117D01*
X189273000Y-98127117D01*
X189273000Y-98468883D01*
X189339675Y-98804081D01*
X189470463Y-99119831D01*
X189660337Y-99403998D01*
X189902002Y-99645663D01*
X190186169Y-99835537D01*
X190501919Y-99966325D01*
X190837117Y-100033000D01*
X191178883Y-100033000D01*
X191514081Y-99966325D01*
X191829831Y-99835537D01*
X192113998Y-99645663D01*
X192355663Y-99403998D01*
X192545537Y-99119831D01*
X192548815Y-99111916D01*
X194174486Y-99111916D01*
X194221382Y-99484227D01*
X194340012Y-99840235D01*
X194468129Y-100079924D01*
X194760148Y-100208247D01*
X195908395Y-99060000D01*
X196267605Y-99060000D01*
X197415852Y-100208247D01*
X197707871Y-100079924D01*
X197875723Y-99744305D01*
X197974874Y-99382389D01*
X198001514Y-99008084D01*
X197963100Y-98703110D01*
X210648524Y-98703110D01*
X210769845Y-98933000D01*
X211963000Y-98933000D01*
X211963000Y-97739186D01*
X212217000Y-97739186D01*
X212217000Y-98933000D01*
X213410155Y-98933000D01*
X213531476Y-98703110D01*
X213486825Y-98555901D01*
X213361641Y-98293080D01*
X213187588Y-98059731D01*
X212971355Y-97864822D01*
X212721252Y-97715843D01*
X212446891Y-97618519D01*
X212217000Y-97739186D01*
X211963000Y-97739186D01*
X211733109Y-97618519D01*
X211458748Y-97715843D01*
X211208645Y-97864822D01*
X210992412Y-98059731D01*
X210818359Y-98293080D01*
X210693175Y-98555901D01*
X210648524Y-98703110D01*
X197963100Y-98703110D01*
X197954618Y-98635773D01*
X197835988Y-98279765D01*
X197707871Y-98040076D01*
X197415852Y-97911753D01*
X196267605Y-99060000D01*
X195908395Y-99060000D01*
X194760148Y-97911753D01*
X194468129Y-98040076D01*
X194300277Y-98375695D01*
X194201126Y-98737611D01*
X194174486Y-99111916D01*
X192548815Y-99111916D01*
X192676325Y-98804081D01*
X192743000Y-98468883D01*
X192743000Y-98127117D01*
X192676325Y-97791919D01*
X192651568Y-97732148D01*
X194939753Y-97732148D01*
X196088000Y-98880395D01*
X197236247Y-97732148D01*
X197107924Y-97440129D01*
X196772305Y-97272277D01*
X196410389Y-97173126D01*
X196036084Y-97146486D01*
X195663773Y-97193382D01*
X195307765Y-97312012D01*
X195068076Y-97440129D01*
X194939753Y-97732148D01*
X192651568Y-97732148D01*
X192545537Y-97476169D01*
X192355663Y-97192002D01*
X192113998Y-96950337D01*
X191829831Y-96760463D01*
X191514081Y-96629675D01*
X191178883Y-96563000D01*
X190837117Y-96563000D01*
X190501919Y-96629675D01*
X190186169Y-96760463D01*
X189902002Y-96950337D01*
X189660337Y-97192002D01*
X189470463Y-97476169D01*
X189339675Y-97791919D01*
X189273000Y-98127117D01*
X180791481Y-98127117D01*
X180769252Y-98101091D01*
X180726500Y-98048998D01*
X180691710Y-98020447D01*
X180659277Y-97989264D01*
X180633990Y-97973077D01*
X180610775Y-97954025D01*
X180571087Y-97932811D01*
X180533190Y-97908552D01*
X180505232Y-97897610D01*
X180478746Y-97883453D01*
X180435670Y-97870386D01*
X180393780Y-97853992D01*
X180364229Y-97848715D01*
X180335485Y-97839996D01*
X180290692Y-97835584D01*
X180246404Y-97827676D01*
X180179095Y-97828999D01*
X173355000Y-97828999D01*
X173355000Y-95935000D01*
X215215000Y-95935000D01*
X215215000Y-100965000D01*
G37*
%TD.AperFunction*%
%TD*%
D20*
%TO.N,GND*%
X179341744Y-99412795D02*
X179172226Y-99526063D01*
X179028063Y-99670226D01*
X178914795Y-99839744D01*
X178836774Y-100028102D01*
X178797000Y-100228061D01*
X178797000Y-100431939D01*
X178836774Y-100631898D01*
X178914795Y-100820256D01*
X179028063Y-100989774D01*
X179172226Y-101133937D01*
X179341744Y-101247205D01*
X179530102Y-101325226D01*
X179730061Y-101365000D01*
X179933939Y-101365000D01*
X180133898Y-101325226D01*
X180322256Y-101247205D01*
X180491774Y-101133937D01*
X180635937Y-100989774D01*
X180749205Y-100820256D01*
X180827226Y-100631898D01*
X180846994Y-100532519D01*
X181119844Y-100851976D01*
X181200721Y-100929735D01*
X181229000Y-100947837D01*
X181229000Y-102489000D01*
X173008999Y-102489000D01*
X173008999Y-101369802D01*
X174029802Y-100349000D01*
X174091939Y-100349000D01*
X174291898Y-100309226D01*
X174480256Y-100231205D01*
X174649774Y-100117937D01*
X174793937Y-99973774D01*
X174907205Y-99804256D01*
X174985226Y-99615898D01*
X175025000Y-99415939D01*
X175025000Y-99348999D01*
X179495760Y-99348999D01*
X179341744Y-99412795D01*
%TA.AperFunction,Conductor*%
D21*
G36*
X179341744Y-99412795D02*
G01*
X179172226Y-99526063D01*
X179028063Y-99670226D01*
X178914795Y-99839744D01*
X178836774Y-100028102D01*
X178797000Y-100228061D01*
X178797000Y-100431939D01*
X178836774Y-100631898D01*
X178914795Y-100820256D01*
X179028063Y-100989774D01*
X179172226Y-101133937D01*
X179341744Y-101247205D01*
X179530102Y-101325226D01*
X179730061Y-101365000D01*
X179933939Y-101365000D01*
X180133898Y-101325226D01*
X180322256Y-101247205D01*
X180491774Y-101133937D01*
X180635937Y-100989774D01*
X180749205Y-100820256D01*
X180827226Y-100631898D01*
X180846994Y-100532519D01*
X181119844Y-100851976D01*
X181200721Y-100929735D01*
X181229000Y-100947837D01*
X181229000Y-102489000D01*
X173008999Y-102489000D01*
X173008999Y-101369802D01*
X174029802Y-100349000D01*
X174091939Y-100349000D01*
X174291898Y-100309226D01*
X174480256Y-100231205D01*
X174649774Y-100117937D01*
X174793937Y-99973774D01*
X174907205Y-99804256D01*
X174985226Y-99615898D01*
X175025000Y-99415939D01*
X175025000Y-99348999D01*
X179495760Y-99348999D01*
X179341744Y-99412795D01*
G37*
%TD.AperFunction*%
%TD*%
M02*
