M48
; DRILL file {KiCad (5.1.8)-1} date 01/16/21 14:03:21
; FORMAT={-:-/ absolute / inch / decimal}
; #@! TF.CreationDate,2021-01-16T14:03:21-05:00
; #@! TF.GenerationSoftware,Kicad,Pcbnew,(5.1.8)-1
; #@! TF.FileFunction,Plated,1,2,PTH
FMAT,2
INCH
T1C0.0157
T2C0.0197
T3C0.0217
T4C0.0394
T5C0.0866
%
G90
G05
T1
X5.33Y-3.552
X5.33Y-3.904
X5.375Y-4.0785
X5.43Y-3.552
X5.4405Y-3.904
X5.503Y-4.0175
T4
X5.65Y-3.9
X5.65Y-4.0
X5.65Y-4.1
X5.1Y-4.25
X5.1Y-3.75
X5.435Y-4.31
X5.435Y-4.41
X5.315Y-4.31
X5.315Y-4.41
T5
X5.1Y-3.6
X5.65Y-4.4
X5.1Y-4.4
X5.65Y-3.6
T2
G00X5.0716Y-3.8622
M15
G01X5.046Y-3.8622
M16
G05
G00X5.0716Y-4.1378
M15
G01X5.046Y-4.1378
M16
G05
T3
G00X5.1651Y-3.8957
M15
G01X5.1651Y-3.9075
M16
G05
G00X5.1651Y-4.0925
M15
G01X5.1651Y-4.1043
M16
G05
T0
M30
