%TF.GenerationSoftware,KiCad,Pcbnew,(5.1.8)-1*%
%TF.CreationDate,2021-01-16T14:03:11-05:00*%
%TF.ProjectId,electronics-li-ion-charger,656c6563-7472-46f6-9e69-63732d6c692d,rev?*%
%TF.SameCoordinates,Original*%
%TF.FileFunction,Soldermask,Top*%
%TF.FilePolarity,Negative*%
%FSLAX46Y46*%
G04 Gerber Fmt 4.6, Leading zero omitted, Abs format (unit mm)*
G04 Created by KiCad (PCBNEW (5.1.8)-1) date 2021-01-16 14:03:11*
%MOMM*%
%LPD*%
G01*
G04 APERTURE LIST*
%ADD10C,4.400000*%
%ADD11R,1.560000X0.650000*%
%ADD12O,1.700000X1.700000*%
%ADD13R,1.700000X1.700000*%
%ADD14O,1.550000X0.890000*%
%ADD15R,1.550000X1.200000*%
%ADD16R,1.550000X1.500000*%
%ADD17O,0.950000X1.250000*%
%ADD18R,1.350000X0.400000*%
G04 APERTURE END LIST*
D10*
%TO.C,M2*%
X143510000Y-91440000D03*
%TD*%
%TO.C,M4*%
X143510000Y-111760000D03*
%TD*%
%TO.C,M3*%
X129540000Y-111760000D03*
%TD*%
%TO.C,M1*%
X129540000Y-91440000D03*
%TD*%
D11*
%TO.C,U1*%
X135175000Y-102550000D03*
X135175000Y-100650000D03*
X137875000Y-100650000D03*
X137875000Y-101600000D03*
X137875000Y-102550000D03*
%TD*%
D12*
%TO.C,JP2*%
X135001000Y-109474000D03*
D13*
X135001000Y-112014000D03*
%TD*%
D12*
%TO.C,JP1*%
X138049000Y-109474000D03*
D13*
X138049000Y-112014000D03*
%TD*%
D12*
%TO.C,J4*%
X143510000Y-99060000D03*
X143510000Y-101600000D03*
D13*
X143510000Y-104140000D03*
%TD*%
D14*
%TO.C,J3*%
X128494000Y-105100000D03*
X128494000Y-98100000D03*
D15*
X128494000Y-104500000D03*
X128494000Y-98700000D03*
D16*
X128494000Y-102600000D03*
X128494000Y-100600000D03*
D17*
X131194000Y-104100000D03*
X131194000Y-99100000D03*
D18*
X131194000Y-102900000D03*
X131194000Y-102250000D03*
X131194000Y-101600000D03*
X131194000Y-100950000D03*
X131194000Y-100300000D03*
%TD*%
D13*
%TO.C,J2*%
X129540000Y-107950000D03*
%TD*%
%TO.C,J1*%
X129540000Y-95250000D03*
%TD*%
%TO.C,D3*%
G36*
G01*
X137297000Y-93993000D02*
X138547000Y-93993000D01*
G75*
G02*
X138797000Y-94243000I0J-250000D01*
G01*
X138797000Y-95168000D01*
G75*
G02*
X138547000Y-95418000I-250000J0D01*
G01*
X137297000Y-95418000D01*
G75*
G02*
X137047000Y-95168000I0J250000D01*
G01*
X137047000Y-94243000D01*
G75*
G02*
X137297000Y-93993000I250000J0D01*
G01*
G37*
G36*
G01*
X137297000Y-91018000D02*
X138547000Y-91018000D01*
G75*
G02*
X138797000Y-91268000I0J-250000D01*
G01*
X138797000Y-92193000D01*
G75*
G02*
X138547000Y-92443000I-250000J0D01*
G01*
X137297000Y-92443000D01*
G75*
G02*
X137047000Y-92193000I0J250000D01*
G01*
X137047000Y-91268000D01*
G75*
G02*
X137297000Y-91018000I250000J0D01*
G01*
G37*
%TD*%
%TO.C,D2*%
G36*
G01*
X136007000Y-92443000D02*
X134757000Y-92443000D01*
G75*
G02*
X134507000Y-92193000I0J250000D01*
G01*
X134507000Y-91268000D01*
G75*
G02*
X134757000Y-91018000I250000J0D01*
G01*
X136007000Y-91018000D01*
G75*
G02*
X136257000Y-91268000I0J-250000D01*
G01*
X136257000Y-92193000D01*
G75*
G02*
X136007000Y-92443000I-250000J0D01*
G01*
G37*
G36*
G01*
X136007000Y-95418000D02*
X134757000Y-95418000D01*
G75*
G02*
X134507000Y-95168000I0J250000D01*
G01*
X134507000Y-94243000D01*
G75*
G02*
X134757000Y-93993000I250000J0D01*
G01*
X136007000Y-93993000D01*
G75*
G02*
X136257000Y-94243000I0J-250000D01*
G01*
X136257000Y-95168000D01*
G75*
G02*
X136007000Y-95418000I-250000J0D01*
G01*
G37*
%TD*%
M02*
