%TF.GenerationSoftware,KiCad,Pcbnew,(5.1.8)-1*%
%TF.CreationDate,2021-01-17T15:05:37-05:00*%
%TF.ProjectId,electronics-li-ion-charger,656c6563-7472-46f6-9e69-63732d6c692d,rev?*%
%TF.SameCoordinates,Original*%
%TF.FileFunction,Legend,Bot*%
%TF.FilePolarity,Positive*%
%FSLAX46Y46*%
G04 Gerber Fmt 4.6, Leading zero omitted, Abs format (unit mm)*
G04 Created by KiCad (PCBNEW (5.1.8)-1) date 2021-01-17 15:05:37*
%MOMM*%
%LPD*%
G01*
G04 APERTURE LIST*
%ADD10C,0.127000*%
%ADD11C,0.150000*%
%ADD12C,0.120000*%
G04 APERTURE END LIST*
D10*
X176841452Y-105449309D02*
X177083357Y-105449309D01*
X177083357Y-104941309D01*
X176672119Y-105449309D02*
X176672119Y-105110642D01*
X176672119Y-104941309D02*
X176696309Y-104965500D01*
X176672119Y-104989690D01*
X176647928Y-104965500D01*
X176672119Y-104941309D01*
X176672119Y-104989690D01*
X176430214Y-105255785D02*
X176043166Y-105255785D01*
X175801261Y-105449309D02*
X175801261Y-104941309D01*
X175486785Y-105449309D02*
X175535166Y-105425119D01*
X175559357Y-105400928D01*
X175583547Y-105352547D01*
X175583547Y-105207404D01*
X175559357Y-105159023D01*
X175535166Y-105134833D01*
X175486785Y-105110642D01*
X175414214Y-105110642D01*
X175365833Y-105134833D01*
X175341642Y-105159023D01*
X175317452Y-105207404D01*
X175317452Y-105352547D01*
X175341642Y-105400928D01*
X175365833Y-105425119D01*
X175414214Y-105449309D01*
X175486785Y-105449309D01*
X175099738Y-105110642D02*
X175099738Y-105449309D01*
X175099738Y-105159023D02*
X175075547Y-105134833D01*
X175027166Y-105110642D01*
X174954595Y-105110642D01*
X174906214Y-105134833D01*
X174882023Y-105183214D01*
X174882023Y-105449309D01*
X173962785Y-105400928D02*
X173986976Y-105425119D01*
X174059547Y-105449309D01*
X174107928Y-105449309D01*
X174180500Y-105425119D01*
X174228880Y-105376738D01*
X174253071Y-105328357D01*
X174277261Y-105231595D01*
X174277261Y-105159023D01*
X174253071Y-105062261D01*
X174228880Y-105013880D01*
X174180500Y-104965500D01*
X174107928Y-104941309D01*
X174059547Y-104941309D01*
X173986976Y-104965500D01*
X173962785Y-104989690D01*
X173745071Y-105449309D02*
X173745071Y-104941309D01*
X173527357Y-105449309D02*
X173527357Y-105183214D01*
X173551547Y-105134833D01*
X173599928Y-105110642D01*
X173672500Y-105110642D01*
X173720880Y-105134833D01*
X173745071Y-105159023D01*
X173067738Y-105449309D02*
X173067738Y-105183214D01*
X173091928Y-105134833D01*
X173140309Y-105110642D01*
X173237071Y-105110642D01*
X173285452Y-105134833D01*
X173067738Y-105425119D02*
X173116119Y-105449309D01*
X173237071Y-105449309D01*
X173285452Y-105425119D01*
X173309642Y-105376738D01*
X173309642Y-105328357D01*
X173285452Y-105279976D01*
X173237071Y-105255785D01*
X173116119Y-105255785D01*
X173067738Y-105231595D01*
X172825833Y-105449309D02*
X172825833Y-105110642D01*
X172825833Y-105207404D02*
X172801642Y-105159023D01*
X172777452Y-105134833D01*
X172729071Y-105110642D01*
X172680690Y-105110642D01*
X172293642Y-105110642D02*
X172293642Y-105521880D01*
X172317833Y-105570261D01*
X172342023Y-105594452D01*
X172390404Y-105618642D01*
X172462976Y-105618642D01*
X172511357Y-105594452D01*
X172293642Y-105425119D02*
X172342023Y-105449309D01*
X172438785Y-105449309D01*
X172487166Y-105425119D01*
X172511357Y-105400928D01*
X172535547Y-105352547D01*
X172535547Y-105207404D01*
X172511357Y-105159023D01*
X172487166Y-105134833D01*
X172438785Y-105110642D01*
X172342023Y-105110642D01*
X172293642Y-105134833D01*
X171858214Y-105425119D02*
X171906595Y-105449309D01*
X172003357Y-105449309D01*
X172051738Y-105425119D01*
X172075928Y-105376738D01*
X172075928Y-105183214D01*
X172051738Y-105134833D01*
X172003357Y-105110642D01*
X171906595Y-105110642D01*
X171858214Y-105134833D01*
X171834023Y-105183214D01*
X171834023Y-105231595D01*
X172075928Y-105279976D01*
X171616309Y-105449309D02*
X171616309Y-105110642D01*
X171616309Y-105207404D02*
X171592119Y-105159023D01*
X171567928Y-105134833D01*
X171519547Y-105110642D01*
X171471166Y-105110642D01*
X170624500Y-105449309D02*
X170793833Y-105207404D01*
X170914785Y-105449309D02*
X170914785Y-104941309D01*
X170721261Y-104941309D01*
X170672880Y-104965500D01*
X170648690Y-104989690D01*
X170624500Y-105038071D01*
X170624500Y-105110642D01*
X170648690Y-105159023D01*
X170672880Y-105183214D01*
X170721261Y-105207404D01*
X170914785Y-105207404D01*
X170213261Y-105425119D02*
X170261642Y-105449309D01*
X170358404Y-105449309D01*
X170406785Y-105425119D01*
X170430976Y-105376738D01*
X170430976Y-105183214D01*
X170406785Y-105134833D01*
X170358404Y-105110642D01*
X170261642Y-105110642D01*
X170213261Y-105134833D01*
X170189071Y-105183214D01*
X170189071Y-105231595D01*
X170430976Y-105279976D01*
X170019738Y-105110642D02*
X169898785Y-105449309D01*
X169777833Y-105110642D01*
X169608500Y-104989690D02*
X169584309Y-104965500D01*
X169535928Y-104941309D01*
X169414976Y-104941309D01*
X169366595Y-104965500D01*
X169342404Y-104989690D01*
X169318214Y-105038071D01*
X169318214Y-105086452D01*
X169342404Y-105159023D01*
X169632690Y-105449309D01*
X169318214Y-105449309D01*
X169100500Y-105255785D02*
X168713452Y-105255785D01*
X168374785Y-104941309D02*
X168326404Y-104941309D01*
X168278023Y-104965500D01*
X168253833Y-104989690D01*
X168229642Y-105038071D01*
X168205452Y-105134833D01*
X168205452Y-105255785D01*
X168229642Y-105352547D01*
X168253833Y-105400928D01*
X168278023Y-105425119D01*
X168326404Y-105449309D01*
X168374785Y-105449309D01*
X168423166Y-105425119D01*
X168447357Y-105400928D01*
X168471547Y-105352547D01*
X168495738Y-105255785D01*
X168495738Y-105134833D01*
X168471547Y-105038071D01*
X168447357Y-104989690D01*
X168423166Y-104965500D01*
X168374785Y-104941309D01*
X175777071Y-106193166D02*
X175535166Y-106193166D01*
X175825452Y-106338309D02*
X175656119Y-105830309D01*
X175486785Y-106338309D01*
X175244880Y-106338309D02*
X175293261Y-106314119D01*
X175317452Y-106265738D01*
X175317452Y-105830309D01*
X174857833Y-106314119D02*
X174906214Y-106338309D01*
X175002976Y-106338309D01*
X175051357Y-106314119D01*
X175075547Y-106265738D01*
X175075547Y-106072214D01*
X175051357Y-106023833D01*
X175002976Y-105999642D01*
X174906214Y-105999642D01*
X174857833Y-106023833D01*
X174833642Y-106072214D01*
X174833642Y-106120595D01*
X175075547Y-106168976D01*
X174664309Y-106338309D02*
X174398214Y-105999642D01*
X174664309Y-105999642D02*
X174398214Y-106338309D01*
X173986976Y-106338309D02*
X173986976Y-106072214D01*
X174011166Y-106023833D01*
X174059547Y-105999642D01*
X174156309Y-105999642D01*
X174204690Y-106023833D01*
X173986976Y-106314119D02*
X174035357Y-106338309D01*
X174156309Y-106338309D01*
X174204690Y-106314119D01*
X174228880Y-106265738D01*
X174228880Y-106217357D01*
X174204690Y-106168976D01*
X174156309Y-106144785D01*
X174035357Y-106144785D01*
X173986976Y-106120595D01*
X173745071Y-105999642D02*
X173745071Y-106338309D01*
X173745071Y-106048023D02*
X173720880Y-106023833D01*
X173672500Y-105999642D01*
X173599928Y-105999642D01*
X173551547Y-106023833D01*
X173527357Y-106072214D01*
X173527357Y-106338309D01*
X173067738Y-106338309D02*
X173067738Y-105830309D01*
X173067738Y-106314119D02*
X173116119Y-106338309D01*
X173212880Y-106338309D01*
X173261261Y-106314119D01*
X173285452Y-106289928D01*
X173309642Y-106241547D01*
X173309642Y-106096404D01*
X173285452Y-106048023D01*
X173261261Y-106023833D01*
X173212880Y-105999642D01*
X173116119Y-105999642D01*
X173067738Y-106023833D01*
X172632309Y-106314119D02*
X172680690Y-106338309D01*
X172777452Y-106338309D01*
X172825833Y-106314119D01*
X172850023Y-106265738D01*
X172850023Y-106072214D01*
X172825833Y-106023833D01*
X172777452Y-105999642D01*
X172680690Y-105999642D01*
X172632309Y-106023833D01*
X172608119Y-106072214D01*
X172608119Y-106120595D01*
X172850023Y-106168976D01*
X172390404Y-106338309D02*
X172390404Y-105999642D01*
X172390404Y-106096404D02*
X172366214Y-106048023D01*
X172342023Y-106023833D01*
X172293642Y-105999642D01*
X172245261Y-105999642D01*
X171519547Y-106072214D02*
X171688880Y-106072214D01*
X171688880Y-106338309D02*
X171688880Y-105830309D01*
X171446976Y-105830309D01*
X171253452Y-106338309D02*
X171253452Y-105999642D01*
X171253452Y-106096404D02*
X171229261Y-106048023D01*
X171205071Y-106023833D01*
X171156690Y-105999642D01*
X171108309Y-105999642D01*
X170721261Y-106338309D02*
X170721261Y-106072214D01*
X170745452Y-106023833D01*
X170793833Y-105999642D01*
X170890595Y-105999642D01*
X170938976Y-106023833D01*
X170721261Y-106314119D02*
X170769642Y-106338309D01*
X170890595Y-106338309D01*
X170938976Y-106314119D01*
X170963166Y-106265738D01*
X170963166Y-106217357D01*
X170938976Y-106168976D01*
X170890595Y-106144785D01*
X170769642Y-106144785D01*
X170721261Y-106120595D01*
X170503547Y-106314119D02*
X170455166Y-106338309D01*
X170358404Y-106338309D01*
X170310023Y-106314119D01*
X170285833Y-106265738D01*
X170285833Y-106241547D01*
X170310023Y-106193166D01*
X170358404Y-106168976D01*
X170430976Y-106168976D01*
X170479357Y-106144785D01*
X170503547Y-106096404D01*
X170503547Y-106072214D01*
X170479357Y-106023833D01*
X170430976Y-105999642D01*
X170358404Y-105999642D01*
X170310023Y-106023833D01*
X169874595Y-106314119D02*
X169922976Y-106338309D01*
X170019738Y-106338309D01*
X170068119Y-106314119D01*
X170092309Y-106265738D01*
X170092309Y-106072214D01*
X170068119Y-106023833D01*
X170019738Y-105999642D01*
X169922976Y-105999642D01*
X169874595Y-106023833D01*
X169850404Y-106072214D01*
X169850404Y-106120595D01*
X170092309Y-106168976D01*
X169632690Y-106338309D02*
X169632690Y-105999642D01*
X169632690Y-106096404D02*
X169608500Y-106048023D01*
X169584309Y-106023833D01*
X169535928Y-105999642D01*
X169487547Y-105999642D01*
X175571452Y-107227309D02*
X175861738Y-107227309D01*
X175716595Y-107227309D02*
X175716595Y-106719309D01*
X175764976Y-106791880D01*
X175813357Y-106840261D01*
X175861738Y-106864452D01*
X175402119Y-106719309D02*
X175063452Y-106719309D01*
X175281166Y-107227309D01*
X174337738Y-106719309D02*
X174337738Y-107082166D01*
X174361928Y-107154738D01*
X174410309Y-107203119D01*
X174482880Y-107227309D01*
X174531261Y-107227309D01*
X173878119Y-107227309D02*
X173878119Y-106961214D01*
X173902309Y-106912833D01*
X173950690Y-106888642D01*
X174047452Y-106888642D01*
X174095833Y-106912833D01*
X173878119Y-107203119D02*
X173926500Y-107227309D01*
X174047452Y-107227309D01*
X174095833Y-107203119D01*
X174120023Y-107154738D01*
X174120023Y-107106357D01*
X174095833Y-107057976D01*
X174047452Y-107033785D01*
X173926500Y-107033785D01*
X173878119Y-107009595D01*
X173636214Y-106888642D02*
X173636214Y-107227309D01*
X173636214Y-106937023D02*
X173612023Y-106912833D01*
X173563642Y-106888642D01*
X173491071Y-106888642D01*
X173442690Y-106912833D01*
X173418500Y-106961214D01*
X173418500Y-107227309D01*
X172958880Y-106888642D02*
X172958880Y-107227309D01*
X173176595Y-106888642D02*
X173176595Y-107154738D01*
X173152404Y-107203119D01*
X173104023Y-107227309D01*
X173031452Y-107227309D01*
X172983071Y-107203119D01*
X172958880Y-107178928D01*
X172499261Y-107227309D02*
X172499261Y-106961214D01*
X172523452Y-106912833D01*
X172571833Y-106888642D01*
X172668595Y-106888642D01*
X172716976Y-106912833D01*
X172499261Y-107203119D02*
X172547642Y-107227309D01*
X172668595Y-107227309D01*
X172716976Y-107203119D01*
X172741166Y-107154738D01*
X172741166Y-107106357D01*
X172716976Y-107057976D01*
X172668595Y-107033785D01*
X172547642Y-107033785D01*
X172499261Y-107009595D01*
X172257357Y-107227309D02*
X172257357Y-106888642D01*
X172257357Y-106985404D02*
X172233166Y-106937023D01*
X172208976Y-106912833D01*
X172160595Y-106888642D01*
X172112214Y-106888642D01*
X171991261Y-106888642D02*
X171870309Y-107227309D01*
X171749357Y-106888642D02*
X171870309Y-107227309D01*
X171918690Y-107348261D01*
X171942880Y-107372452D01*
X171991261Y-107396642D01*
X171192976Y-106767690D02*
X171168785Y-106743500D01*
X171120404Y-106719309D01*
X170999452Y-106719309D01*
X170951071Y-106743500D01*
X170926880Y-106767690D01*
X170902690Y-106816071D01*
X170902690Y-106864452D01*
X170926880Y-106937023D01*
X171217166Y-107227309D01*
X170902690Y-107227309D01*
X170588214Y-106719309D02*
X170539833Y-106719309D01*
X170491452Y-106743500D01*
X170467261Y-106767690D01*
X170443071Y-106816071D01*
X170418880Y-106912833D01*
X170418880Y-107033785D01*
X170443071Y-107130547D01*
X170467261Y-107178928D01*
X170491452Y-107203119D01*
X170539833Y-107227309D01*
X170588214Y-107227309D01*
X170636595Y-107203119D01*
X170660785Y-107178928D01*
X170684976Y-107130547D01*
X170709166Y-107033785D01*
X170709166Y-106912833D01*
X170684976Y-106816071D01*
X170660785Y-106767690D01*
X170636595Y-106743500D01*
X170588214Y-106719309D01*
X170225357Y-106767690D02*
X170201166Y-106743500D01*
X170152785Y-106719309D01*
X170031833Y-106719309D01*
X169983452Y-106743500D01*
X169959261Y-106767690D01*
X169935071Y-106816071D01*
X169935071Y-106864452D01*
X169959261Y-106937023D01*
X170249547Y-107227309D01*
X169935071Y-107227309D01*
X169451261Y-107227309D02*
X169741547Y-107227309D01*
X169596404Y-107227309D02*
X169596404Y-106719309D01*
X169644785Y-106791880D01*
X169693166Y-106840261D01*
X169741547Y-106864452D01*
D11*
X188070904Y-106560880D02*
X188642333Y-106560880D01*
X188356619Y-106560880D02*
X188356619Y-105560880D01*
X188451857Y-105703738D01*
X188547095Y-105798976D01*
X188642333Y-105846595D01*
X187451857Y-105560880D02*
X187356619Y-105560880D01*
X187261380Y-105608500D01*
X187213761Y-105656119D01*
X187166142Y-105751357D01*
X187118523Y-105941833D01*
X187118523Y-106179928D01*
X187166142Y-106370404D01*
X187213761Y-106465642D01*
X187261380Y-106513261D01*
X187356619Y-106560880D01*
X187451857Y-106560880D01*
X187547095Y-106513261D01*
X187594714Y-106465642D01*
X187642333Y-106370404D01*
X187689952Y-106179928D01*
X187689952Y-105941833D01*
X187642333Y-105751357D01*
X187594714Y-105656119D01*
X187547095Y-105608500D01*
X187451857Y-105560880D01*
X186499476Y-105560880D02*
X186404238Y-105560880D01*
X186309000Y-105608500D01*
X186261380Y-105656119D01*
X186213761Y-105751357D01*
X186166142Y-105941833D01*
X186166142Y-106179928D01*
X186213761Y-106370404D01*
X186261380Y-106465642D01*
X186309000Y-106513261D01*
X186404238Y-106560880D01*
X186499476Y-106560880D01*
X186594714Y-106513261D01*
X186642333Y-106465642D01*
X186689952Y-106370404D01*
X186737571Y-106179928D01*
X186737571Y-105941833D01*
X186689952Y-105751357D01*
X186642333Y-105656119D01*
X186594714Y-105608500D01*
X186499476Y-105560880D01*
X185737571Y-106560880D02*
X185737571Y-105894214D01*
X185737571Y-105989452D02*
X185689952Y-105941833D01*
X185594714Y-105894214D01*
X185451857Y-105894214D01*
X185356619Y-105941833D01*
X185309000Y-106037071D01*
X185309000Y-106560880D01*
X185309000Y-106037071D02*
X185261380Y-105941833D01*
X185166142Y-105894214D01*
X185023285Y-105894214D01*
X184928047Y-105941833D01*
X184880428Y-106037071D01*
X184880428Y-106560880D01*
X184451857Y-106275166D02*
X183975666Y-106275166D01*
X184547095Y-106560880D02*
X184213761Y-105560880D01*
X183880428Y-106560880D01*
X188182023Y-96543880D02*
X188658214Y-96543880D01*
X188705833Y-97020071D01*
X188658214Y-96972452D01*
X188562976Y-96924833D01*
X188324880Y-96924833D01*
X188229642Y-96972452D01*
X188182023Y-97020071D01*
X188134404Y-97115309D01*
X188134404Y-97353404D01*
X188182023Y-97448642D01*
X188229642Y-97496261D01*
X188324880Y-97543880D01*
X188562976Y-97543880D01*
X188658214Y-97496261D01*
X188705833Y-97448642D01*
X187515357Y-96543880D02*
X187420119Y-96543880D01*
X187324880Y-96591500D01*
X187277261Y-96639119D01*
X187229642Y-96734357D01*
X187182023Y-96924833D01*
X187182023Y-97162928D01*
X187229642Y-97353404D01*
X187277261Y-97448642D01*
X187324880Y-97496261D01*
X187420119Y-97543880D01*
X187515357Y-97543880D01*
X187610595Y-97496261D01*
X187658214Y-97448642D01*
X187705833Y-97353404D01*
X187753452Y-97162928D01*
X187753452Y-96924833D01*
X187705833Y-96734357D01*
X187658214Y-96639119D01*
X187610595Y-96591500D01*
X187515357Y-96543880D01*
X186562976Y-96543880D02*
X186467738Y-96543880D01*
X186372500Y-96591500D01*
X186324880Y-96639119D01*
X186277261Y-96734357D01*
X186229642Y-96924833D01*
X186229642Y-97162928D01*
X186277261Y-97353404D01*
X186324880Y-97448642D01*
X186372500Y-97496261D01*
X186467738Y-97543880D01*
X186562976Y-97543880D01*
X186658214Y-97496261D01*
X186705833Y-97448642D01*
X186753452Y-97353404D01*
X186801071Y-97162928D01*
X186801071Y-96924833D01*
X186753452Y-96734357D01*
X186705833Y-96639119D01*
X186658214Y-96591500D01*
X186562976Y-96543880D01*
X185801071Y-97543880D02*
X185801071Y-96877214D01*
X185801071Y-96972452D02*
X185753452Y-96924833D01*
X185658214Y-96877214D01*
X185515357Y-96877214D01*
X185420119Y-96924833D01*
X185372500Y-97020071D01*
X185372500Y-97543880D01*
X185372500Y-97020071D02*
X185324880Y-96924833D01*
X185229642Y-96877214D01*
X185086785Y-96877214D01*
X184991547Y-96924833D01*
X184943928Y-97020071D01*
X184943928Y-97543880D01*
X184515357Y-97258166D02*
X184039166Y-97258166D01*
X184610595Y-97543880D02*
X184277261Y-96543880D01*
X183943928Y-97543880D01*
X134746952Y-104973428D02*
X133985047Y-104973428D01*
X134746952Y-98369428D02*
X133985047Y-98369428D01*
X134366000Y-98750380D02*
X134366000Y-97988476D01*
X210121452Y-104211428D02*
X209359547Y-104211428D01*
X210121452Y-101671428D02*
X209359547Y-101671428D01*
X209740500Y-102052380D02*
X209740500Y-101290476D01*
X210121452Y-99131428D02*
X209359547Y-99131428D01*
X209740500Y-99512380D02*
X209740500Y-98750476D01*
D12*
%TO.C,JP2*%
X188852000Y-101933500D02*
X186052000Y-101933500D01*
X186052000Y-101933500D02*
X186052000Y-103933500D01*
X186052000Y-103933500D02*
X188852000Y-103933500D01*
X188852000Y-103933500D02*
X188852000Y-101933500D01*
%TO.C,JP1*%
X188852000Y-99139500D02*
X186052000Y-99139500D01*
X186052000Y-99139500D02*
X186052000Y-101139500D01*
X186052000Y-101139500D02*
X188852000Y-101139500D01*
X188852000Y-101139500D02*
X188852000Y-99139500D01*
%TO.C,D1*%
X166154000Y-99800000D02*
X166154000Y-103200000D01*
X164554000Y-99800000D02*
X166154000Y-99800000D01*
X164554000Y-103200000D02*
X164554000Y-99800000D01*
%TO.C,U1*%
X173620000Y-103210000D02*
X171820000Y-103210000D01*
X171820000Y-99990000D02*
X174270000Y-99990000D01*
%TO.C,R3*%
X160747064Y-100690000D02*
X159292936Y-100690000D01*
X160747064Y-102510000D02*
X159292936Y-102510000D01*
%TO.C,R2*%
X182406936Y-103767300D02*
X183861064Y-103767300D01*
X182406936Y-101947300D02*
X183861064Y-101947300D01*
%TO.C,R1*%
X182406936Y-101227300D02*
X183861064Y-101227300D01*
X182406936Y-99407300D02*
X183861064Y-99407300D01*
%TO.C,C2*%
X176890000Y-100888748D02*
X176890000Y-102311252D01*
X178710000Y-100888748D02*
X178710000Y-102311252D01*
%TO.C,C1*%
X168550000Y-100888748D02*
X168550000Y-102311252D01*
X166730000Y-100888748D02*
X166730000Y-102311252D01*
%TO.C,JP2*%
D11*
X188285333Y-104290880D02*
X188285333Y-105005166D01*
X188332952Y-105148023D01*
X188428190Y-105243261D01*
X188571047Y-105290880D01*
X188666285Y-105290880D01*
X187809142Y-105290880D02*
X187809142Y-104290880D01*
X187428190Y-104290880D01*
X187332952Y-104338500D01*
X187285333Y-104386119D01*
X187237714Y-104481357D01*
X187237714Y-104624214D01*
X187285333Y-104719452D01*
X187332952Y-104767071D01*
X187428190Y-104814690D01*
X187809142Y-104814690D01*
X186856761Y-104386119D02*
X186809142Y-104338500D01*
X186713904Y-104290880D01*
X186475809Y-104290880D01*
X186380571Y-104338500D01*
X186332952Y-104386119D01*
X186285333Y-104481357D01*
X186285333Y-104576595D01*
X186332952Y-104719452D01*
X186904380Y-105290880D01*
X186285333Y-105290880D01*
%TO.C,JP1*%
X188285333Y-97791880D02*
X188285333Y-98506166D01*
X188332952Y-98649023D01*
X188428190Y-98744261D01*
X188571047Y-98791880D01*
X188666285Y-98791880D01*
X187809142Y-98791880D02*
X187809142Y-97791880D01*
X187428190Y-97791880D01*
X187332952Y-97839500D01*
X187285333Y-97887119D01*
X187237714Y-97982357D01*
X187237714Y-98125214D01*
X187285333Y-98220452D01*
X187332952Y-98268071D01*
X187428190Y-98315690D01*
X187809142Y-98315690D01*
X186285333Y-98791880D02*
X186856761Y-98791880D01*
X186571047Y-98791880D02*
X186571047Y-97791880D01*
X186666285Y-97934738D01*
X186761523Y-98029976D01*
X186856761Y-98077595D01*
%TO.C,D1*%
X166155595Y-99575880D02*
X166155595Y-98575880D01*
X165917500Y-98575880D01*
X165774642Y-98623500D01*
X165679404Y-98718738D01*
X165631785Y-98813976D01*
X165584166Y-99004452D01*
X165584166Y-99147309D01*
X165631785Y-99337785D01*
X165679404Y-99433023D01*
X165774642Y-99528261D01*
X165917500Y-99575880D01*
X166155595Y-99575880D01*
X164631785Y-99575880D02*
X165203214Y-99575880D01*
X164917500Y-99575880D02*
X164917500Y-98575880D01*
X165012738Y-98718738D01*
X165107976Y-98813976D01*
X165203214Y-98861595D01*
%TO.C,U1*%
X173456504Y-103389180D02*
X173456504Y-104198704D01*
X173408885Y-104293942D01*
X173361266Y-104341561D01*
X173266028Y-104389180D01*
X173075552Y-104389180D01*
X172980314Y-104341561D01*
X172932695Y-104293942D01*
X172885076Y-104198704D01*
X172885076Y-103389180D01*
X171885076Y-104389180D02*
X172456504Y-104389180D01*
X172170790Y-104389180D02*
X172170790Y-103389180D01*
X172266028Y-103532038D01*
X172361266Y-103627276D01*
X172456504Y-103674895D01*
%TO.C,R3*%
X160186666Y-103830380D02*
X160520000Y-103354190D01*
X160758095Y-103830380D02*
X160758095Y-102830380D01*
X160377142Y-102830380D01*
X160281904Y-102878000D01*
X160234285Y-102925619D01*
X160186666Y-103020857D01*
X160186666Y-103163714D01*
X160234285Y-103258952D01*
X160281904Y-103306571D01*
X160377142Y-103354190D01*
X160758095Y-103354190D01*
X159853333Y-102830380D02*
X159234285Y-102830380D01*
X159567619Y-103211333D01*
X159424761Y-103211333D01*
X159329523Y-103258952D01*
X159281904Y-103306571D01*
X159234285Y-103401809D01*
X159234285Y-103639904D01*
X159281904Y-103735142D01*
X159329523Y-103782761D01*
X159424761Y-103830380D01*
X159710476Y-103830380D01*
X159805714Y-103782761D01*
X159853333Y-103735142D01*
%TO.C,R2*%
X183300666Y-105129680D02*
X183634000Y-104653490D01*
X183872095Y-105129680D02*
X183872095Y-104129680D01*
X183491142Y-104129680D01*
X183395904Y-104177300D01*
X183348285Y-104224919D01*
X183300666Y-104320157D01*
X183300666Y-104463014D01*
X183348285Y-104558252D01*
X183395904Y-104605871D01*
X183491142Y-104653490D01*
X183872095Y-104653490D01*
X182919714Y-104224919D02*
X182872095Y-104177300D01*
X182776857Y-104129680D01*
X182538761Y-104129680D01*
X182443523Y-104177300D01*
X182395904Y-104224919D01*
X182348285Y-104320157D01*
X182348285Y-104415395D01*
X182395904Y-104558252D01*
X182967333Y-105129680D01*
X182348285Y-105129680D01*
%TO.C,R1*%
X183287966Y-99067880D02*
X183621300Y-98591690D01*
X183859395Y-99067880D02*
X183859395Y-98067880D01*
X183478442Y-98067880D01*
X183383204Y-98115500D01*
X183335585Y-98163119D01*
X183287966Y-98258357D01*
X183287966Y-98401214D01*
X183335585Y-98496452D01*
X183383204Y-98544071D01*
X183478442Y-98591690D01*
X183859395Y-98591690D01*
X182335585Y-99067880D02*
X182907014Y-99067880D01*
X182621300Y-99067880D02*
X182621300Y-98067880D01*
X182716538Y-98210738D01*
X182811776Y-98305976D01*
X182907014Y-98353595D01*
%TO.C,C2*%
X179871642Y-101433333D02*
X179919261Y-101385714D01*
X179966880Y-101242857D01*
X179966880Y-101147619D01*
X179919261Y-101004761D01*
X179824023Y-100909523D01*
X179728785Y-100861904D01*
X179538309Y-100814285D01*
X179395452Y-100814285D01*
X179204976Y-100861904D01*
X179109738Y-100909523D01*
X179014500Y-101004761D01*
X178966880Y-101147619D01*
X178966880Y-101242857D01*
X179014500Y-101385714D01*
X179062119Y-101433333D01*
X179062119Y-101814285D02*
X179014500Y-101861904D01*
X178966880Y-101957142D01*
X178966880Y-102195238D01*
X179014500Y-102290476D01*
X179062119Y-102338095D01*
X179157357Y-102385714D01*
X179252595Y-102385714D01*
X179395452Y-102338095D01*
X179966880Y-101766666D01*
X179966880Y-102385714D01*
%TO.C,C1*%
X167870166Y-98845642D02*
X167917785Y-98893261D01*
X168060642Y-98940880D01*
X168155880Y-98940880D01*
X168298738Y-98893261D01*
X168393976Y-98798023D01*
X168441595Y-98702785D01*
X168489214Y-98512309D01*
X168489214Y-98369452D01*
X168441595Y-98178976D01*
X168393976Y-98083738D01*
X168298738Y-97988500D01*
X168155880Y-97940880D01*
X168060642Y-97940880D01*
X167917785Y-97988500D01*
X167870166Y-98036119D01*
X166917785Y-98940880D02*
X167489214Y-98940880D01*
X167203500Y-98940880D02*
X167203500Y-97940880D01*
X167298738Y-98083738D01*
X167393976Y-98178976D01*
X167489214Y-98226595D01*
%TD*%
M02*
