%TF.GenerationSoftware,KiCad,Pcbnew,(5.1.8)-1*%
%TF.CreationDate,2021-01-16T14:03:11-05:00*%
%TF.ProjectId,electronics-li-ion-charger,656c6563-7472-46f6-9e69-63732d6c692d,rev?*%
%TF.SameCoordinates,Original*%
%TF.FileFunction,Copper,L2,Bot*%
%TF.FilePolarity,Positive*%
%FSLAX46Y46*%
G04 Gerber Fmt 4.6, Leading zero omitted, Abs format (unit mm)*
G04 Created by KiCad (PCBNEW (5.1.8)-1) date 2021-01-16 14:03:11*
%MOMM*%
%LPD*%
G01*
G04 APERTURE LIST*
%TA.AperFunction,ComponentPad*%
%ADD10C,4.400000*%
%TD*%
%TA.AperFunction,ComponentPad*%
%ADD11O,1.700000X1.700000*%
%TD*%
%TA.AperFunction,ComponentPad*%
%ADD12R,1.700000X1.700000*%
%TD*%
%TA.AperFunction,ComponentPad*%
%ADD13O,1.550000X0.890000*%
%TD*%
%TA.AperFunction,ComponentPad*%
%ADD14O,0.950000X1.250000*%
%TD*%
%TA.AperFunction,ViaPad*%
%ADD15C,0.800000*%
%TD*%
%TA.AperFunction,Conductor*%
%ADD16C,0.250000*%
%TD*%
%TA.AperFunction,Conductor*%
%ADD17C,0.254000*%
%TD*%
%TA.AperFunction,Conductor*%
%ADD18C,0.100000*%
%TD*%
G04 APERTURE END LIST*
%TO.P,D1,1*%
%TO.N,+5V*%
%TA.AperFunction,SMDPad,CuDef*%
G36*
G01*
X133110000Y-97791000D02*
X133590000Y-97791000D01*
G75*
G02*
X133750000Y-97951000I0J-160000D01*
G01*
X133750000Y-98431000D01*
G75*
G02*
X133590000Y-98591000I-160000J0D01*
G01*
X133110000Y-98591000D01*
G75*
G02*
X132950000Y-98431000I0J160000D01*
G01*
X132950000Y-97951000D01*
G75*
G02*
X133110000Y-97791000I160000J0D01*
G01*
G37*
%TD.AperFunction*%
%TO.P,D1,2*%
%TO.N,GND*%
%TA.AperFunction,SMDPad,CuDef*%
G36*
G01*
X133020000Y-99091000D02*
X133680000Y-99091000D01*
G75*
G02*
X133900000Y-99311000I0J-220000D01*
G01*
X133900000Y-100871000D01*
G75*
G02*
X133680000Y-101091000I-220000J0D01*
G01*
X133020000Y-101091000D01*
G75*
G02*
X132800000Y-100871000I0J220000D01*
G01*
X132800000Y-99311000D01*
G75*
G02*
X133020000Y-99091000I220000J0D01*
G01*
G37*
%TD.AperFunction*%
%TD*%
D10*
%TO.P,M2,1*%
%TO.N,N/C*%
X143510000Y-91440000D03*
%TD*%
%TO.P,M4,1*%
%TO.N,N/C*%
X143510000Y-111760000D03*
%TD*%
%TO.P,M3,1*%
%TO.N,N/C*%
X129540000Y-111760000D03*
%TD*%
%TO.P,M1,1*%
%TO.N,N/C*%
X129540000Y-91440000D03*
%TD*%
%TO.P,R4,2*%
%TO.N,GND*%
%TA.AperFunction,SMDPad,CuDef*%
G36*
G01*
X137297000Y-94118000D02*
X138547000Y-94118000D01*
G75*
G02*
X138797000Y-94368000I0J-250000D01*
G01*
X138797000Y-95168000D01*
G75*
G02*
X138547000Y-95418000I-250000J0D01*
G01*
X137297000Y-95418000D01*
G75*
G02*
X137047000Y-95168000I0J250000D01*
G01*
X137047000Y-94368000D01*
G75*
G02*
X137297000Y-94118000I250000J0D01*
G01*
G37*
%TD.AperFunction*%
%TO.P,R4,1*%
%TO.N,Net-(D3-Pad1)*%
%TA.AperFunction,SMDPad,CuDef*%
G36*
G01*
X137297000Y-91018000D02*
X138547000Y-91018000D01*
G75*
G02*
X138797000Y-91268000I0J-250000D01*
G01*
X138797000Y-92068000D01*
G75*
G02*
X138547000Y-92318000I-250000J0D01*
G01*
X137297000Y-92318000D01*
G75*
G02*
X137047000Y-92068000I0J250000D01*
G01*
X137047000Y-91268000D01*
G75*
G02*
X137297000Y-91018000I250000J0D01*
G01*
G37*
%TD.AperFunction*%
%TD*%
%TO.P,R3,2*%
%TO.N,Net-(D2-Pad2)*%
%TA.AperFunction,SMDPad,CuDef*%
G36*
G01*
X136007000Y-92318000D02*
X134757000Y-92318000D01*
G75*
G02*
X134507000Y-92068000I0J250000D01*
G01*
X134507000Y-91268000D01*
G75*
G02*
X134757000Y-91018000I250000J0D01*
G01*
X136007000Y-91018000D01*
G75*
G02*
X136257000Y-91268000I0J-250000D01*
G01*
X136257000Y-92068000D01*
G75*
G02*
X136007000Y-92318000I-250000J0D01*
G01*
G37*
%TD.AperFunction*%
%TO.P,R3,1*%
%TO.N,+5V*%
%TA.AperFunction,SMDPad,CuDef*%
G36*
G01*
X136007000Y-95418000D02*
X134757000Y-95418000D01*
G75*
G02*
X134507000Y-95168000I0J250000D01*
G01*
X134507000Y-94368000D01*
G75*
G02*
X134757000Y-94118000I250000J0D01*
G01*
X136007000Y-94118000D01*
G75*
G02*
X136257000Y-94368000I0J-250000D01*
G01*
X136257000Y-95168000D01*
G75*
G02*
X136007000Y-95418000I-250000J0D01*
G01*
G37*
%TD.AperFunction*%
%TD*%
%TO.P,R2,2*%
%TO.N,Net-(JP2-Pad2)*%
%TA.AperFunction,SMDPad,CuDef*%
G36*
G01*
X134630000Y-106056000D02*
X135880000Y-106056000D01*
G75*
G02*
X136130000Y-106306000I0J-250000D01*
G01*
X136130000Y-107106000D01*
G75*
G02*
X135880000Y-107356000I-250000J0D01*
G01*
X134630000Y-107356000D01*
G75*
G02*
X134380000Y-107106000I0J250000D01*
G01*
X134380000Y-106306000D01*
G75*
G02*
X134630000Y-106056000I250000J0D01*
G01*
G37*
%TD.AperFunction*%
%TO.P,R2,1*%
%TO.N,PROG*%
%TA.AperFunction,SMDPad,CuDef*%
G36*
G01*
X134630000Y-102956000D02*
X135880000Y-102956000D01*
G75*
G02*
X136130000Y-103206000I0J-250000D01*
G01*
X136130000Y-104006000D01*
G75*
G02*
X135880000Y-104256000I-250000J0D01*
G01*
X134630000Y-104256000D01*
G75*
G02*
X134380000Y-104006000I0J250000D01*
G01*
X134380000Y-103206000D01*
G75*
G02*
X134630000Y-102956000I250000J0D01*
G01*
G37*
%TD.AperFunction*%
%TD*%
%TO.P,R1,2*%
%TO.N,Net-(JP1-Pad2)*%
%TA.AperFunction,SMDPad,CuDef*%
G36*
G01*
X137170000Y-106056000D02*
X138420000Y-106056000D01*
G75*
G02*
X138670000Y-106306000I0J-250000D01*
G01*
X138670000Y-107106000D01*
G75*
G02*
X138420000Y-107356000I-250000J0D01*
G01*
X137170000Y-107356000D01*
G75*
G02*
X136920000Y-107106000I0J250000D01*
G01*
X136920000Y-106306000D01*
G75*
G02*
X137170000Y-106056000I250000J0D01*
G01*
G37*
%TD.AperFunction*%
%TO.P,R1,1*%
%TO.N,PROG*%
%TA.AperFunction,SMDPad,CuDef*%
G36*
G01*
X137170000Y-102956000D02*
X138420000Y-102956000D01*
G75*
G02*
X138670000Y-103206000I0J-250000D01*
G01*
X138670000Y-104006000D01*
G75*
G02*
X138420000Y-104256000I-250000J0D01*
G01*
X137170000Y-104256000D01*
G75*
G02*
X136920000Y-104006000I0J250000D01*
G01*
X136920000Y-103206000D01*
G75*
G02*
X137170000Y-102956000I250000J0D01*
G01*
G37*
%TD.AperFunction*%
%TD*%
D11*
%TO.P,JP2,2*%
%TO.N,Net-(JP2-Pad2)*%
X135001000Y-109474000D03*
D12*
%TO.P,JP2,1*%
%TO.N,GND*%
X135001000Y-112014000D03*
%TD*%
D11*
%TO.P,JP1,2*%
%TO.N,Net-(JP1-Pad2)*%
X138049000Y-109474000D03*
D12*
%TO.P,JP1,1*%
%TO.N,GND*%
X138049000Y-112014000D03*
%TD*%
D11*
%TO.P,J4,3*%
%TO.N,/VBAT*%
X143510000Y-99060000D03*
%TO.P,J4,2*%
X143510000Y-101600000D03*
D12*
%TO.P,J4,1*%
%TO.N,GND*%
X143510000Y-104140000D03*
%TD*%
D13*
%TO.P,J3,6*%
%TO.N,Net-(J3-Pad6)*%
X128494000Y-105100000D03*
X128494000Y-98100000D03*
D14*
X131194000Y-104100000D03*
X131194000Y-99100000D03*
%TD*%
D12*
%TO.P,J2,1*%
%TO.N,GND*%
X129540000Y-107950000D03*
%TD*%
%TO.P,J1,1*%
%TO.N,+5V*%
X129540000Y-95250000D03*
%TD*%
%TO.P,C2,2*%
%TO.N,GND*%
%TA.AperFunction,SMDPad,CuDef*%
G36*
G01*
X137525999Y-100214000D02*
X138826001Y-100214000D01*
G75*
G02*
X139076000Y-100463999I0J-249999D01*
G01*
X139076000Y-101289001D01*
G75*
G02*
X138826001Y-101539000I-249999J0D01*
G01*
X137525999Y-101539000D01*
G75*
G02*
X137276000Y-101289001I0J249999D01*
G01*
X137276000Y-100463999D01*
G75*
G02*
X137525999Y-100214000I249999J0D01*
G01*
G37*
%TD.AperFunction*%
%TO.P,C2,1*%
%TO.N,/VBAT*%
%TA.AperFunction,SMDPad,CuDef*%
G36*
G01*
X137525999Y-97089000D02*
X138826001Y-97089000D01*
G75*
G02*
X139076000Y-97338999I0J-249999D01*
G01*
X139076000Y-98164001D01*
G75*
G02*
X138826001Y-98414000I-249999J0D01*
G01*
X137525999Y-98414000D01*
G75*
G02*
X137276000Y-98164001I0J249999D01*
G01*
X137276000Y-97338999D01*
G75*
G02*
X137525999Y-97089000I249999J0D01*
G01*
G37*
%TD.AperFunction*%
%TD*%
%TO.P,C1,1*%
%TO.N,+5V*%
%TA.AperFunction,SMDPad,CuDef*%
G36*
G01*
X134731999Y-97089000D02*
X136032001Y-97089000D01*
G75*
G02*
X136282000Y-97338999I0J-249999D01*
G01*
X136282000Y-98164001D01*
G75*
G02*
X136032001Y-98414000I-249999J0D01*
G01*
X134731999Y-98414000D01*
G75*
G02*
X134482000Y-98164001I0J249999D01*
G01*
X134482000Y-97338999D01*
G75*
G02*
X134731999Y-97089000I249999J0D01*
G01*
G37*
%TD.AperFunction*%
%TO.P,C1,2*%
%TO.N,GND*%
%TA.AperFunction,SMDPad,CuDef*%
G36*
G01*
X134731999Y-100214000D02*
X136032001Y-100214000D01*
G75*
G02*
X136282000Y-100463999I0J-249999D01*
G01*
X136282000Y-101289001D01*
G75*
G02*
X136032001Y-101539000I-249999J0D01*
G01*
X134731999Y-101539000D01*
G75*
G02*
X134482000Y-101289001I0J249999D01*
G01*
X134482000Y-100463999D01*
G75*
G02*
X134731999Y-100214000I249999J0D01*
G01*
G37*
%TD.AperFunction*%
%TD*%
D15*
%TO.N,GND*%
X139776200Y-102044500D03*
%TO.N,+5V*%
X135382000Y-99161600D03*
%TO.N,PROG*%
X136525000Y-103593900D03*
%TO.N,/VBAT*%
X138188700Y-99161600D03*
%TO.N,Net-(D2-Pad2)*%
X135382000Y-90220800D03*
%TO.N,Net-(D3-Pad1)*%
X137922000Y-90220800D03*
%TD*%
D16*
%TO.N,GND*%
X137922000Y-94768000D02*
X137922000Y-96012000D01*
X137922000Y-96012000D02*
X137668000Y-96266000D01*
X137668000Y-96266000D02*
X137160000Y-96266000D01*
X137160000Y-96266000D02*
X136779000Y-96647000D01*
X136779000Y-96647000D02*
X136779000Y-100584000D01*
X137071500Y-100876500D02*
X138176000Y-100876500D01*
X136779000Y-100584000D02*
X137071500Y-100876500D01*
X133535500Y-100876500D02*
X133350000Y-100691000D01*
X135382000Y-100876500D02*
X133535500Y-100876500D01*
X135382000Y-100876500D02*
X135382000Y-101930200D01*
%TO.N,+5V*%
X133350000Y-98191000D02*
X133839900Y-98191000D01*
X133839900Y-98191000D02*
X134823200Y-99174300D01*
X133350000Y-98191000D02*
X133624000Y-98191000D01*
X133624000Y-98191000D02*
X134581900Y-99148900D01*
%TO.N,PROG*%
X135318500Y-103542500D02*
X135255000Y-103606000D01*
X136511700Y-103606000D02*
X137795000Y-103606000D01*
X135255000Y-103606000D02*
X136511700Y-103606000D01*
X135267100Y-103593900D02*
X135255000Y-103606000D01*
X136525000Y-103593900D02*
X135267100Y-103593900D01*
X137782900Y-103593900D02*
X137795000Y-103606000D01*
X136525000Y-103593900D02*
X137782900Y-103593900D01*
%TO.N,Net-(D2-Pad2)*%
X135382000Y-90220800D02*
X135382000Y-91668000D01*
%TO.N,Net-(D3-Pad1)*%
X137922000Y-90144600D02*
X137922000Y-91668000D01*
%TO.N,Net-(JP1-Pad2)*%
X137795000Y-106706000D02*
X137795000Y-107696000D01*
X138049000Y-107950000D02*
X138049000Y-109474000D01*
X137795000Y-107696000D02*
X138049000Y-107950000D01*
%TO.N,Net-(JP2-Pad2)*%
X135255000Y-106706000D02*
X135255000Y-107823000D01*
X135001000Y-108077000D02*
X135001000Y-109474000D01*
X135255000Y-107823000D02*
X135001000Y-108077000D01*
%TD*%
D17*
%TO.N,GND*%
X130574334Y-100177396D02*
X130767166Y-100280468D01*
X130976402Y-100343938D01*
X131194000Y-100365370D01*
X131411597Y-100343938D01*
X131620833Y-100280468D01*
X131813666Y-100177396D01*
X131906268Y-100101400D01*
X132165000Y-100101400D01*
X132165000Y-100218002D01*
X132323748Y-100218002D01*
X132165000Y-100376750D01*
X132161928Y-101091000D01*
X132174188Y-101215482D01*
X132210498Y-101335180D01*
X132269463Y-101445494D01*
X132348815Y-101542185D01*
X132445506Y-101621537D01*
X132555820Y-101680502D01*
X132675518Y-101716812D01*
X132800000Y-101729072D01*
X133064250Y-101726000D01*
X133223000Y-101567250D01*
X133223000Y-100218000D01*
X133203000Y-100218000D01*
X133203000Y-100101400D01*
X133497000Y-100101400D01*
X133497000Y-100218000D01*
X133477000Y-100218000D01*
X133477000Y-101567250D01*
X133635750Y-101726000D01*
X133876000Y-101728793D01*
X133892498Y-101783180D01*
X133951463Y-101893494D01*
X134030815Y-101990185D01*
X134127506Y-102069537D01*
X134237820Y-102128502D01*
X134357518Y-102164812D01*
X134482000Y-102177072D01*
X135096250Y-102174000D01*
X135255000Y-102015250D01*
X135255000Y-101003500D01*
X135509000Y-101003500D01*
X135509000Y-102015250D01*
X135667750Y-102174000D01*
X136282000Y-102177072D01*
X136406482Y-102164812D01*
X136526180Y-102128502D01*
X136636494Y-102069537D01*
X136733185Y-101990185D01*
X136779000Y-101934359D01*
X136824815Y-101990185D01*
X136921506Y-102069537D01*
X137031820Y-102128502D01*
X137151518Y-102164812D01*
X137276000Y-102177072D01*
X137890250Y-102174000D01*
X138049000Y-102015250D01*
X138049000Y-101003500D01*
X138303000Y-101003500D01*
X138303000Y-102015250D01*
X138461750Y-102174000D01*
X139076000Y-102177072D01*
X139200482Y-102164812D01*
X139320180Y-102128502D01*
X139430494Y-102069537D01*
X139527185Y-101990185D01*
X139606537Y-101893494D01*
X139665502Y-101783180D01*
X139701812Y-101663482D01*
X139714072Y-101539000D01*
X139711000Y-101162250D01*
X139552250Y-101003500D01*
X138303000Y-101003500D01*
X138049000Y-101003500D01*
X136799750Y-101003500D01*
X136779000Y-101024250D01*
X136758250Y-101003500D01*
X135509000Y-101003500D01*
X135255000Y-101003500D01*
X135235000Y-101003500D01*
X135235000Y-100749500D01*
X135255000Y-100749500D01*
X135255000Y-100729500D01*
X135509000Y-100729500D01*
X135509000Y-100749500D01*
X136758250Y-100749500D01*
X136779000Y-100728750D01*
X136799750Y-100749500D01*
X138049000Y-100749500D01*
X138049000Y-100729500D01*
X138303000Y-100729500D01*
X138303000Y-100749500D01*
X139552250Y-100749500D01*
X139711000Y-100590750D01*
X139714072Y-100214000D01*
X139702982Y-100101400D01*
X140258800Y-100101400D01*
X140258800Y-113615000D01*
X131694295Y-113615000D01*
X131742088Y-113567207D01*
X132052344Y-113102876D01*
X132151289Y-112864000D01*
X133512928Y-112864000D01*
X133525188Y-112988482D01*
X133561498Y-113108180D01*
X133620463Y-113218494D01*
X133699815Y-113315185D01*
X133796506Y-113394537D01*
X133906820Y-113453502D01*
X134026518Y-113489812D01*
X134151000Y-113502072D01*
X134715250Y-113499000D01*
X134874000Y-113340250D01*
X134874000Y-112141000D01*
X135128000Y-112141000D01*
X135128000Y-113340250D01*
X135286750Y-113499000D01*
X135851000Y-113502072D01*
X135975482Y-113489812D01*
X136095180Y-113453502D01*
X136205494Y-113394537D01*
X136302185Y-113315185D01*
X136381537Y-113218494D01*
X136440502Y-113108180D01*
X136476812Y-112988482D01*
X136489072Y-112864000D01*
X136560928Y-112864000D01*
X136573188Y-112988482D01*
X136609498Y-113108180D01*
X136668463Y-113218494D01*
X136747815Y-113315185D01*
X136844506Y-113394537D01*
X136954820Y-113453502D01*
X137074518Y-113489812D01*
X137199000Y-113502072D01*
X137763250Y-113499000D01*
X137922000Y-113340250D01*
X137922000Y-112141000D01*
X138176000Y-112141000D01*
X138176000Y-113340250D01*
X138334750Y-113499000D01*
X138899000Y-113502072D01*
X139023482Y-113489812D01*
X139143180Y-113453502D01*
X139253494Y-113394537D01*
X139350185Y-113315185D01*
X139429537Y-113218494D01*
X139488502Y-113108180D01*
X139524812Y-112988482D01*
X139537072Y-112864000D01*
X139534000Y-112299750D01*
X139375250Y-112141000D01*
X138176000Y-112141000D01*
X137922000Y-112141000D01*
X136722750Y-112141000D01*
X136564000Y-112299750D01*
X136560928Y-112864000D01*
X136489072Y-112864000D01*
X136486000Y-112299750D01*
X136327250Y-112141000D01*
X135128000Y-112141000D01*
X134874000Y-112141000D01*
X133674750Y-112141000D01*
X133516000Y-112299750D01*
X133512928Y-112864000D01*
X132151289Y-112864000D01*
X132266052Y-112586939D01*
X132375000Y-112039223D01*
X132375000Y-111480777D01*
X132311989Y-111164000D01*
X133512928Y-111164000D01*
X133516000Y-111728250D01*
X133674750Y-111887000D01*
X134874000Y-111887000D01*
X134874000Y-111867000D01*
X135128000Y-111867000D01*
X135128000Y-111887000D01*
X136327250Y-111887000D01*
X136486000Y-111728250D01*
X136489072Y-111164000D01*
X136476812Y-111039518D01*
X136440502Y-110919820D01*
X136381537Y-110809506D01*
X136302185Y-110712815D01*
X136205494Y-110633463D01*
X136095180Y-110574498D01*
X136022620Y-110552487D01*
X136154475Y-110420632D01*
X136316990Y-110177411D01*
X136428932Y-109907158D01*
X136486000Y-109620260D01*
X136486000Y-109327740D01*
X136428932Y-109040842D01*
X136316990Y-108770589D01*
X136154475Y-108527368D01*
X135947632Y-108320525D01*
X135871570Y-108269702D01*
X135889974Y-108247276D01*
X135960546Y-108115247D01*
X136000916Y-107982163D01*
X136053254Y-107977008D01*
X136219850Y-107926472D01*
X136373386Y-107844405D01*
X136507962Y-107733962D01*
X136525000Y-107713201D01*
X136542038Y-107733962D01*
X136676614Y-107844405D01*
X136830150Y-107926472D01*
X136996746Y-107977008D01*
X137088795Y-107986074D01*
X137089454Y-107988246D01*
X137160026Y-108120276D01*
X137190994Y-108158010D01*
X137245745Y-108224724D01*
X137102368Y-108320525D01*
X136895525Y-108527368D01*
X136733010Y-108770589D01*
X136621068Y-109040842D01*
X136564000Y-109327740D01*
X136564000Y-109620260D01*
X136621068Y-109907158D01*
X136733010Y-110177411D01*
X136895525Y-110420632D01*
X137027380Y-110552487D01*
X136954820Y-110574498D01*
X136844506Y-110633463D01*
X136747815Y-110712815D01*
X136668463Y-110809506D01*
X136609498Y-110919820D01*
X136573188Y-111039518D01*
X136560928Y-111164000D01*
X136564000Y-111728250D01*
X136722750Y-111887000D01*
X137922000Y-111887000D01*
X137922000Y-111867000D01*
X138176000Y-111867000D01*
X138176000Y-111887000D01*
X139375250Y-111887000D01*
X139534000Y-111728250D01*
X139537072Y-111164000D01*
X139524812Y-111039518D01*
X139488502Y-110919820D01*
X139429537Y-110809506D01*
X139350185Y-110712815D01*
X139253494Y-110633463D01*
X139143180Y-110574498D01*
X139070620Y-110552487D01*
X139202475Y-110420632D01*
X139364990Y-110177411D01*
X139476932Y-109907158D01*
X139534000Y-109620260D01*
X139534000Y-109327740D01*
X139476932Y-109040842D01*
X139364990Y-108770589D01*
X139202475Y-108527368D01*
X138995632Y-108320525D01*
X138809000Y-108195822D01*
X138809000Y-107987322D01*
X138812676Y-107949999D01*
X138809000Y-107912676D01*
X138809000Y-107912667D01*
X138807834Y-107900824D01*
X138913386Y-107844405D01*
X139047962Y-107733962D01*
X139158405Y-107599386D01*
X139240472Y-107445850D01*
X139291008Y-107279254D01*
X139308072Y-107106000D01*
X139308072Y-106306000D01*
X139291008Y-106132746D01*
X139240472Y-105966150D01*
X139158405Y-105812614D01*
X139047962Y-105678038D01*
X138913386Y-105567595D01*
X138759850Y-105485528D01*
X138593254Y-105434992D01*
X138420000Y-105417928D01*
X137170000Y-105417928D01*
X136996746Y-105434992D01*
X136830150Y-105485528D01*
X136676614Y-105567595D01*
X136542038Y-105678038D01*
X136525000Y-105698799D01*
X136507962Y-105678038D01*
X136373386Y-105567595D01*
X136219850Y-105485528D01*
X136053254Y-105434992D01*
X135880000Y-105417928D01*
X134630000Y-105417928D01*
X134456746Y-105434992D01*
X134290150Y-105485528D01*
X134136614Y-105567595D01*
X134002038Y-105678038D01*
X133891595Y-105812614D01*
X133809528Y-105966150D01*
X133758992Y-106132746D01*
X133741928Y-106306000D01*
X133741928Y-107106000D01*
X133758992Y-107279254D01*
X133809528Y-107445850D01*
X133891595Y-107599386D01*
X134002038Y-107733962D01*
X134136614Y-107844405D01*
X134257723Y-107909139D01*
X134251997Y-107928015D01*
X134241000Y-108039668D01*
X134241000Y-108039678D01*
X134237324Y-108077000D01*
X134241000Y-108114323D01*
X134241000Y-108195821D01*
X134054368Y-108320525D01*
X133847525Y-108527368D01*
X133685010Y-108770589D01*
X133573068Y-109040842D01*
X133516000Y-109327740D01*
X133516000Y-109620260D01*
X133573068Y-109907158D01*
X133685010Y-110177411D01*
X133847525Y-110420632D01*
X133979380Y-110552487D01*
X133906820Y-110574498D01*
X133796506Y-110633463D01*
X133699815Y-110712815D01*
X133620463Y-110809506D01*
X133561498Y-110919820D01*
X133525188Y-111039518D01*
X133512928Y-111164000D01*
X132311989Y-111164000D01*
X132266052Y-110933061D01*
X132052344Y-110417124D01*
X131742088Y-109952793D01*
X131347207Y-109557912D01*
X130882876Y-109247656D01*
X130853923Y-109235663D01*
X130920537Y-109154494D01*
X130979502Y-109044180D01*
X131015812Y-108924482D01*
X131028072Y-108800000D01*
X131025000Y-108235750D01*
X130866250Y-108077000D01*
X129667000Y-108077000D01*
X129667000Y-108097000D01*
X129413000Y-108097000D01*
X129413000Y-108077000D01*
X128213750Y-108077000D01*
X128055000Y-108235750D01*
X128051928Y-108800000D01*
X128064188Y-108924482D01*
X128100498Y-109044180D01*
X128159463Y-109154494D01*
X128226077Y-109235663D01*
X128197124Y-109247656D01*
X127732793Y-109557912D01*
X127685000Y-109605705D01*
X127685000Y-107100000D01*
X128051928Y-107100000D01*
X128055000Y-107664250D01*
X128213750Y-107823000D01*
X129413000Y-107823000D01*
X129413000Y-106623750D01*
X129667000Y-106623750D01*
X129667000Y-107823000D01*
X130866250Y-107823000D01*
X131025000Y-107664250D01*
X131028072Y-107100000D01*
X131015812Y-106975518D01*
X130979502Y-106855820D01*
X130920537Y-106745506D01*
X130841185Y-106648815D01*
X130744494Y-106569463D01*
X130634180Y-106510498D01*
X130514482Y-106474188D01*
X130390000Y-106461928D01*
X129825750Y-106465000D01*
X129667000Y-106623750D01*
X129413000Y-106623750D01*
X129254250Y-106465000D01*
X128690000Y-106461928D01*
X128565518Y-106474188D01*
X128445820Y-106510498D01*
X128335506Y-106569463D01*
X128238815Y-106648815D01*
X128159463Y-106745506D01*
X128100498Y-106855820D01*
X128064188Y-106975518D01*
X128051928Y-107100000D01*
X127685000Y-107100000D01*
X127685000Y-106068568D01*
X127748702Y-106102617D01*
X127952283Y-106164373D01*
X128110949Y-106180000D01*
X128877051Y-106180000D01*
X129035717Y-106164373D01*
X129239298Y-106102617D01*
X129426919Y-106002332D01*
X129591370Y-105867370D01*
X129726332Y-105702919D01*
X129826617Y-105515298D01*
X129888373Y-105311717D01*
X129909225Y-105100000D01*
X129888373Y-104888283D01*
X129826617Y-104684702D01*
X129726332Y-104497081D01*
X129591370Y-104332630D01*
X129426919Y-104197668D01*
X129239298Y-104097383D01*
X129035717Y-104035627D01*
X128877051Y-104020000D01*
X128110949Y-104020000D01*
X127952283Y-104035627D01*
X127748702Y-104097383D01*
X127685000Y-104131432D01*
X127685000Y-103895479D01*
X130084000Y-103895479D01*
X130084000Y-104304520D01*
X130100062Y-104467597D01*
X130163532Y-104676833D01*
X130266604Y-104869666D01*
X130405314Y-105038686D01*
X130574334Y-105177396D01*
X130767166Y-105280468D01*
X130976402Y-105343938D01*
X131194000Y-105365370D01*
X131411597Y-105343938D01*
X131620833Y-105280468D01*
X131813666Y-105177396D01*
X131982686Y-105038686D01*
X132121396Y-104869666D01*
X132224468Y-104676834D01*
X132287938Y-104467598D01*
X132304000Y-104304521D01*
X132304000Y-103895480D01*
X132287938Y-103732403D01*
X132224468Y-103523167D01*
X132121396Y-103330334D01*
X132019359Y-103206000D01*
X133741928Y-103206000D01*
X133741928Y-104006000D01*
X133758992Y-104179254D01*
X133809528Y-104345850D01*
X133891595Y-104499386D01*
X134002038Y-104633962D01*
X134136614Y-104744405D01*
X134290150Y-104826472D01*
X134456746Y-104877008D01*
X134630000Y-104894072D01*
X135880000Y-104894072D01*
X136053254Y-104877008D01*
X136219850Y-104826472D01*
X136373386Y-104744405D01*
X136507962Y-104633962D01*
X136512116Y-104628900D01*
X136537884Y-104628900D01*
X136542038Y-104633962D01*
X136676614Y-104744405D01*
X136830150Y-104826472D01*
X136996746Y-104877008D01*
X137170000Y-104894072D01*
X138420000Y-104894072D01*
X138593254Y-104877008D01*
X138759850Y-104826472D01*
X138913386Y-104744405D01*
X139047962Y-104633962D01*
X139158405Y-104499386D01*
X139240472Y-104345850D01*
X139291008Y-104179254D01*
X139308072Y-104006000D01*
X139308072Y-103206000D01*
X139291008Y-103032746D01*
X139240472Y-102866150D01*
X139158405Y-102712614D01*
X139047962Y-102578038D01*
X138913386Y-102467595D01*
X138759850Y-102385528D01*
X138593254Y-102334992D01*
X138420000Y-102317928D01*
X137170000Y-102317928D01*
X136996746Y-102334992D01*
X136830150Y-102385528D01*
X136676614Y-102467595D01*
X136565358Y-102558900D01*
X136484642Y-102558900D01*
X136373386Y-102467595D01*
X136219850Y-102385528D01*
X136053254Y-102334992D01*
X135880000Y-102317928D01*
X134630000Y-102317928D01*
X134456746Y-102334992D01*
X134290150Y-102385528D01*
X134136614Y-102467595D01*
X134002038Y-102578038D01*
X133891595Y-102712614D01*
X133809528Y-102866150D01*
X133758992Y-103032746D01*
X133741928Y-103206000D01*
X132019359Y-103206000D01*
X131982686Y-103161314D01*
X131813666Y-103022604D01*
X131620834Y-102919532D01*
X131411598Y-102856062D01*
X131194000Y-102834630D01*
X130976403Y-102856062D01*
X130767167Y-102919532D01*
X130574335Y-103022604D01*
X130405315Y-103161314D01*
X130266604Y-103330334D01*
X130163532Y-103523166D01*
X130100062Y-103732402D01*
X130084000Y-103895479D01*
X127685000Y-103895479D01*
X127685000Y-100101400D01*
X130481732Y-100101400D01*
X130574334Y-100177396D01*
%TA.AperFunction,Conductor*%
D18*
G36*
X130574334Y-100177396D02*
G01*
X130767166Y-100280468D01*
X130976402Y-100343938D01*
X131194000Y-100365370D01*
X131411597Y-100343938D01*
X131620833Y-100280468D01*
X131813666Y-100177396D01*
X131906268Y-100101400D01*
X132165000Y-100101400D01*
X132165000Y-100218002D01*
X132323748Y-100218002D01*
X132165000Y-100376750D01*
X132161928Y-101091000D01*
X132174188Y-101215482D01*
X132210498Y-101335180D01*
X132269463Y-101445494D01*
X132348815Y-101542185D01*
X132445506Y-101621537D01*
X132555820Y-101680502D01*
X132675518Y-101716812D01*
X132800000Y-101729072D01*
X133064250Y-101726000D01*
X133223000Y-101567250D01*
X133223000Y-100218000D01*
X133203000Y-100218000D01*
X133203000Y-100101400D01*
X133497000Y-100101400D01*
X133497000Y-100218000D01*
X133477000Y-100218000D01*
X133477000Y-101567250D01*
X133635750Y-101726000D01*
X133876000Y-101728793D01*
X133892498Y-101783180D01*
X133951463Y-101893494D01*
X134030815Y-101990185D01*
X134127506Y-102069537D01*
X134237820Y-102128502D01*
X134357518Y-102164812D01*
X134482000Y-102177072D01*
X135096250Y-102174000D01*
X135255000Y-102015250D01*
X135255000Y-101003500D01*
X135509000Y-101003500D01*
X135509000Y-102015250D01*
X135667750Y-102174000D01*
X136282000Y-102177072D01*
X136406482Y-102164812D01*
X136526180Y-102128502D01*
X136636494Y-102069537D01*
X136733185Y-101990185D01*
X136779000Y-101934359D01*
X136824815Y-101990185D01*
X136921506Y-102069537D01*
X137031820Y-102128502D01*
X137151518Y-102164812D01*
X137276000Y-102177072D01*
X137890250Y-102174000D01*
X138049000Y-102015250D01*
X138049000Y-101003500D01*
X138303000Y-101003500D01*
X138303000Y-102015250D01*
X138461750Y-102174000D01*
X139076000Y-102177072D01*
X139200482Y-102164812D01*
X139320180Y-102128502D01*
X139430494Y-102069537D01*
X139527185Y-101990185D01*
X139606537Y-101893494D01*
X139665502Y-101783180D01*
X139701812Y-101663482D01*
X139714072Y-101539000D01*
X139711000Y-101162250D01*
X139552250Y-101003500D01*
X138303000Y-101003500D01*
X138049000Y-101003500D01*
X136799750Y-101003500D01*
X136779000Y-101024250D01*
X136758250Y-101003500D01*
X135509000Y-101003500D01*
X135255000Y-101003500D01*
X135235000Y-101003500D01*
X135235000Y-100749500D01*
X135255000Y-100749500D01*
X135255000Y-100729500D01*
X135509000Y-100729500D01*
X135509000Y-100749500D01*
X136758250Y-100749500D01*
X136779000Y-100728750D01*
X136799750Y-100749500D01*
X138049000Y-100749500D01*
X138049000Y-100729500D01*
X138303000Y-100729500D01*
X138303000Y-100749500D01*
X139552250Y-100749500D01*
X139711000Y-100590750D01*
X139714072Y-100214000D01*
X139702982Y-100101400D01*
X140258800Y-100101400D01*
X140258800Y-113615000D01*
X131694295Y-113615000D01*
X131742088Y-113567207D01*
X132052344Y-113102876D01*
X132151289Y-112864000D01*
X133512928Y-112864000D01*
X133525188Y-112988482D01*
X133561498Y-113108180D01*
X133620463Y-113218494D01*
X133699815Y-113315185D01*
X133796506Y-113394537D01*
X133906820Y-113453502D01*
X134026518Y-113489812D01*
X134151000Y-113502072D01*
X134715250Y-113499000D01*
X134874000Y-113340250D01*
X134874000Y-112141000D01*
X135128000Y-112141000D01*
X135128000Y-113340250D01*
X135286750Y-113499000D01*
X135851000Y-113502072D01*
X135975482Y-113489812D01*
X136095180Y-113453502D01*
X136205494Y-113394537D01*
X136302185Y-113315185D01*
X136381537Y-113218494D01*
X136440502Y-113108180D01*
X136476812Y-112988482D01*
X136489072Y-112864000D01*
X136560928Y-112864000D01*
X136573188Y-112988482D01*
X136609498Y-113108180D01*
X136668463Y-113218494D01*
X136747815Y-113315185D01*
X136844506Y-113394537D01*
X136954820Y-113453502D01*
X137074518Y-113489812D01*
X137199000Y-113502072D01*
X137763250Y-113499000D01*
X137922000Y-113340250D01*
X137922000Y-112141000D01*
X138176000Y-112141000D01*
X138176000Y-113340250D01*
X138334750Y-113499000D01*
X138899000Y-113502072D01*
X139023482Y-113489812D01*
X139143180Y-113453502D01*
X139253494Y-113394537D01*
X139350185Y-113315185D01*
X139429537Y-113218494D01*
X139488502Y-113108180D01*
X139524812Y-112988482D01*
X139537072Y-112864000D01*
X139534000Y-112299750D01*
X139375250Y-112141000D01*
X138176000Y-112141000D01*
X137922000Y-112141000D01*
X136722750Y-112141000D01*
X136564000Y-112299750D01*
X136560928Y-112864000D01*
X136489072Y-112864000D01*
X136486000Y-112299750D01*
X136327250Y-112141000D01*
X135128000Y-112141000D01*
X134874000Y-112141000D01*
X133674750Y-112141000D01*
X133516000Y-112299750D01*
X133512928Y-112864000D01*
X132151289Y-112864000D01*
X132266052Y-112586939D01*
X132375000Y-112039223D01*
X132375000Y-111480777D01*
X132311989Y-111164000D01*
X133512928Y-111164000D01*
X133516000Y-111728250D01*
X133674750Y-111887000D01*
X134874000Y-111887000D01*
X134874000Y-111867000D01*
X135128000Y-111867000D01*
X135128000Y-111887000D01*
X136327250Y-111887000D01*
X136486000Y-111728250D01*
X136489072Y-111164000D01*
X136476812Y-111039518D01*
X136440502Y-110919820D01*
X136381537Y-110809506D01*
X136302185Y-110712815D01*
X136205494Y-110633463D01*
X136095180Y-110574498D01*
X136022620Y-110552487D01*
X136154475Y-110420632D01*
X136316990Y-110177411D01*
X136428932Y-109907158D01*
X136486000Y-109620260D01*
X136486000Y-109327740D01*
X136428932Y-109040842D01*
X136316990Y-108770589D01*
X136154475Y-108527368D01*
X135947632Y-108320525D01*
X135871570Y-108269702D01*
X135889974Y-108247276D01*
X135960546Y-108115247D01*
X136000916Y-107982163D01*
X136053254Y-107977008D01*
X136219850Y-107926472D01*
X136373386Y-107844405D01*
X136507962Y-107733962D01*
X136525000Y-107713201D01*
X136542038Y-107733962D01*
X136676614Y-107844405D01*
X136830150Y-107926472D01*
X136996746Y-107977008D01*
X137088795Y-107986074D01*
X137089454Y-107988246D01*
X137160026Y-108120276D01*
X137190994Y-108158010D01*
X137245745Y-108224724D01*
X137102368Y-108320525D01*
X136895525Y-108527368D01*
X136733010Y-108770589D01*
X136621068Y-109040842D01*
X136564000Y-109327740D01*
X136564000Y-109620260D01*
X136621068Y-109907158D01*
X136733010Y-110177411D01*
X136895525Y-110420632D01*
X137027380Y-110552487D01*
X136954820Y-110574498D01*
X136844506Y-110633463D01*
X136747815Y-110712815D01*
X136668463Y-110809506D01*
X136609498Y-110919820D01*
X136573188Y-111039518D01*
X136560928Y-111164000D01*
X136564000Y-111728250D01*
X136722750Y-111887000D01*
X137922000Y-111887000D01*
X137922000Y-111867000D01*
X138176000Y-111867000D01*
X138176000Y-111887000D01*
X139375250Y-111887000D01*
X139534000Y-111728250D01*
X139537072Y-111164000D01*
X139524812Y-111039518D01*
X139488502Y-110919820D01*
X139429537Y-110809506D01*
X139350185Y-110712815D01*
X139253494Y-110633463D01*
X139143180Y-110574498D01*
X139070620Y-110552487D01*
X139202475Y-110420632D01*
X139364990Y-110177411D01*
X139476932Y-109907158D01*
X139534000Y-109620260D01*
X139534000Y-109327740D01*
X139476932Y-109040842D01*
X139364990Y-108770589D01*
X139202475Y-108527368D01*
X138995632Y-108320525D01*
X138809000Y-108195822D01*
X138809000Y-107987322D01*
X138812676Y-107949999D01*
X138809000Y-107912676D01*
X138809000Y-107912667D01*
X138807834Y-107900824D01*
X138913386Y-107844405D01*
X139047962Y-107733962D01*
X139158405Y-107599386D01*
X139240472Y-107445850D01*
X139291008Y-107279254D01*
X139308072Y-107106000D01*
X139308072Y-106306000D01*
X139291008Y-106132746D01*
X139240472Y-105966150D01*
X139158405Y-105812614D01*
X139047962Y-105678038D01*
X138913386Y-105567595D01*
X138759850Y-105485528D01*
X138593254Y-105434992D01*
X138420000Y-105417928D01*
X137170000Y-105417928D01*
X136996746Y-105434992D01*
X136830150Y-105485528D01*
X136676614Y-105567595D01*
X136542038Y-105678038D01*
X136525000Y-105698799D01*
X136507962Y-105678038D01*
X136373386Y-105567595D01*
X136219850Y-105485528D01*
X136053254Y-105434992D01*
X135880000Y-105417928D01*
X134630000Y-105417928D01*
X134456746Y-105434992D01*
X134290150Y-105485528D01*
X134136614Y-105567595D01*
X134002038Y-105678038D01*
X133891595Y-105812614D01*
X133809528Y-105966150D01*
X133758992Y-106132746D01*
X133741928Y-106306000D01*
X133741928Y-107106000D01*
X133758992Y-107279254D01*
X133809528Y-107445850D01*
X133891595Y-107599386D01*
X134002038Y-107733962D01*
X134136614Y-107844405D01*
X134257723Y-107909139D01*
X134251997Y-107928015D01*
X134241000Y-108039668D01*
X134241000Y-108039678D01*
X134237324Y-108077000D01*
X134241000Y-108114323D01*
X134241000Y-108195821D01*
X134054368Y-108320525D01*
X133847525Y-108527368D01*
X133685010Y-108770589D01*
X133573068Y-109040842D01*
X133516000Y-109327740D01*
X133516000Y-109620260D01*
X133573068Y-109907158D01*
X133685010Y-110177411D01*
X133847525Y-110420632D01*
X133979380Y-110552487D01*
X133906820Y-110574498D01*
X133796506Y-110633463D01*
X133699815Y-110712815D01*
X133620463Y-110809506D01*
X133561498Y-110919820D01*
X133525188Y-111039518D01*
X133512928Y-111164000D01*
X132311989Y-111164000D01*
X132266052Y-110933061D01*
X132052344Y-110417124D01*
X131742088Y-109952793D01*
X131347207Y-109557912D01*
X130882876Y-109247656D01*
X130853923Y-109235663D01*
X130920537Y-109154494D01*
X130979502Y-109044180D01*
X131015812Y-108924482D01*
X131028072Y-108800000D01*
X131025000Y-108235750D01*
X130866250Y-108077000D01*
X129667000Y-108077000D01*
X129667000Y-108097000D01*
X129413000Y-108097000D01*
X129413000Y-108077000D01*
X128213750Y-108077000D01*
X128055000Y-108235750D01*
X128051928Y-108800000D01*
X128064188Y-108924482D01*
X128100498Y-109044180D01*
X128159463Y-109154494D01*
X128226077Y-109235663D01*
X128197124Y-109247656D01*
X127732793Y-109557912D01*
X127685000Y-109605705D01*
X127685000Y-107100000D01*
X128051928Y-107100000D01*
X128055000Y-107664250D01*
X128213750Y-107823000D01*
X129413000Y-107823000D01*
X129413000Y-106623750D01*
X129667000Y-106623750D01*
X129667000Y-107823000D01*
X130866250Y-107823000D01*
X131025000Y-107664250D01*
X131028072Y-107100000D01*
X131015812Y-106975518D01*
X130979502Y-106855820D01*
X130920537Y-106745506D01*
X130841185Y-106648815D01*
X130744494Y-106569463D01*
X130634180Y-106510498D01*
X130514482Y-106474188D01*
X130390000Y-106461928D01*
X129825750Y-106465000D01*
X129667000Y-106623750D01*
X129413000Y-106623750D01*
X129254250Y-106465000D01*
X128690000Y-106461928D01*
X128565518Y-106474188D01*
X128445820Y-106510498D01*
X128335506Y-106569463D01*
X128238815Y-106648815D01*
X128159463Y-106745506D01*
X128100498Y-106855820D01*
X128064188Y-106975518D01*
X128051928Y-107100000D01*
X127685000Y-107100000D01*
X127685000Y-106068568D01*
X127748702Y-106102617D01*
X127952283Y-106164373D01*
X128110949Y-106180000D01*
X128877051Y-106180000D01*
X129035717Y-106164373D01*
X129239298Y-106102617D01*
X129426919Y-106002332D01*
X129591370Y-105867370D01*
X129726332Y-105702919D01*
X129826617Y-105515298D01*
X129888373Y-105311717D01*
X129909225Y-105100000D01*
X129888373Y-104888283D01*
X129826617Y-104684702D01*
X129726332Y-104497081D01*
X129591370Y-104332630D01*
X129426919Y-104197668D01*
X129239298Y-104097383D01*
X129035717Y-104035627D01*
X128877051Y-104020000D01*
X128110949Y-104020000D01*
X127952283Y-104035627D01*
X127748702Y-104097383D01*
X127685000Y-104131432D01*
X127685000Y-103895479D01*
X130084000Y-103895479D01*
X130084000Y-104304520D01*
X130100062Y-104467597D01*
X130163532Y-104676833D01*
X130266604Y-104869666D01*
X130405314Y-105038686D01*
X130574334Y-105177396D01*
X130767166Y-105280468D01*
X130976402Y-105343938D01*
X131194000Y-105365370D01*
X131411597Y-105343938D01*
X131620833Y-105280468D01*
X131813666Y-105177396D01*
X131982686Y-105038686D01*
X132121396Y-104869666D01*
X132224468Y-104676834D01*
X132287938Y-104467598D01*
X132304000Y-104304521D01*
X132304000Y-103895480D01*
X132287938Y-103732403D01*
X132224468Y-103523167D01*
X132121396Y-103330334D01*
X132019359Y-103206000D01*
X133741928Y-103206000D01*
X133741928Y-104006000D01*
X133758992Y-104179254D01*
X133809528Y-104345850D01*
X133891595Y-104499386D01*
X134002038Y-104633962D01*
X134136614Y-104744405D01*
X134290150Y-104826472D01*
X134456746Y-104877008D01*
X134630000Y-104894072D01*
X135880000Y-104894072D01*
X136053254Y-104877008D01*
X136219850Y-104826472D01*
X136373386Y-104744405D01*
X136507962Y-104633962D01*
X136512116Y-104628900D01*
X136537884Y-104628900D01*
X136542038Y-104633962D01*
X136676614Y-104744405D01*
X136830150Y-104826472D01*
X136996746Y-104877008D01*
X137170000Y-104894072D01*
X138420000Y-104894072D01*
X138593254Y-104877008D01*
X138759850Y-104826472D01*
X138913386Y-104744405D01*
X139047962Y-104633962D01*
X139158405Y-104499386D01*
X139240472Y-104345850D01*
X139291008Y-104179254D01*
X139308072Y-104006000D01*
X139308072Y-103206000D01*
X139291008Y-103032746D01*
X139240472Y-102866150D01*
X139158405Y-102712614D01*
X139047962Y-102578038D01*
X138913386Y-102467595D01*
X138759850Y-102385528D01*
X138593254Y-102334992D01*
X138420000Y-102317928D01*
X137170000Y-102317928D01*
X136996746Y-102334992D01*
X136830150Y-102385528D01*
X136676614Y-102467595D01*
X136565358Y-102558900D01*
X136484642Y-102558900D01*
X136373386Y-102467595D01*
X136219850Y-102385528D01*
X136053254Y-102334992D01*
X135880000Y-102317928D01*
X134630000Y-102317928D01*
X134456746Y-102334992D01*
X134290150Y-102385528D01*
X134136614Y-102467595D01*
X134002038Y-102578038D01*
X133891595Y-102712614D01*
X133809528Y-102866150D01*
X133758992Y-103032746D01*
X133741928Y-103206000D01*
X132019359Y-103206000D01*
X131982686Y-103161314D01*
X131813666Y-103022604D01*
X131620834Y-102919532D01*
X131411598Y-102856062D01*
X131194000Y-102834630D01*
X130976403Y-102856062D01*
X130767167Y-102919532D01*
X130574335Y-103022604D01*
X130405315Y-103161314D01*
X130266604Y-103330334D01*
X130163532Y-103523166D01*
X130100062Y-103732402D01*
X130084000Y-103895479D01*
X127685000Y-103895479D01*
X127685000Y-100101400D01*
X130481732Y-100101400D01*
X130574334Y-100177396D01*
G37*
%TD.AperFunction*%
%TD*%
D17*
%TO.N,GND*%
X142034188Y-103165518D02*
X142021928Y-103290000D01*
X142025000Y-103854250D01*
X142183750Y-104013000D01*
X143383000Y-104013000D01*
X143383000Y-103993000D01*
X143637000Y-103993000D01*
X143637000Y-104013000D01*
X144836250Y-104013000D01*
X144995000Y-103854250D01*
X144998072Y-103290000D01*
X144985812Y-103165518D01*
X144950103Y-103047800D01*
X145365001Y-103047800D01*
X145365001Y-109605706D01*
X145317207Y-109557912D01*
X144852876Y-109247656D01*
X144336939Y-109033948D01*
X143789223Y-108925000D01*
X143230777Y-108925000D01*
X142683061Y-109033948D01*
X142167124Y-109247656D01*
X141702793Y-109557912D01*
X141307912Y-109952793D01*
X140997656Y-110417124D01*
X140783948Y-110933061D01*
X140675000Y-111480777D01*
X140675000Y-112039223D01*
X140783948Y-112586939D01*
X140997656Y-113102876D01*
X141307912Y-113567207D01*
X141355705Y-113615000D01*
X140335000Y-113615000D01*
X140335000Y-104990000D01*
X142021928Y-104990000D01*
X142034188Y-105114482D01*
X142070498Y-105234180D01*
X142129463Y-105344494D01*
X142208815Y-105441185D01*
X142305506Y-105520537D01*
X142415820Y-105579502D01*
X142535518Y-105615812D01*
X142660000Y-105628072D01*
X143224250Y-105625000D01*
X143383000Y-105466250D01*
X143383000Y-104267000D01*
X143637000Y-104267000D01*
X143637000Y-105466250D01*
X143795750Y-105625000D01*
X144360000Y-105628072D01*
X144484482Y-105615812D01*
X144604180Y-105579502D01*
X144714494Y-105520537D01*
X144811185Y-105441185D01*
X144890537Y-105344494D01*
X144949502Y-105234180D01*
X144985812Y-105114482D01*
X144998072Y-104990000D01*
X144995000Y-104425750D01*
X144836250Y-104267000D01*
X143637000Y-104267000D01*
X143383000Y-104267000D01*
X142183750Y-104267000D01*
X142025000Y-104425750D01*
X142021928Y-104990000D01*
X140335000Y-104990000D01*
X140335000Y-103047800D01*
X142069897Y-103047800D01*
X142034188Y-103165518D01*
%TA.AperFunction,Conductor*%
D18*
G36*
X142034188Y-103165518D02*
G01*
X142021928Y-103290000D01*
X142025000Y-103854250D01*
X142183750Y-104013000D01*
X143383000Y-104013000D01*
X143383000Y-103993000D01*
X143637000Y-103993000D01*
X143637000Y-104013000D01*
X144836250Y-104013000D01*
X144995000Y-103854250D01*
X144998072Y-103290000D01*
X144985812Y-103165518D01*
X144950103Y-103047800D01*
X145365001Y-103047800D01*
X145365001Y-109605706D01*
X145317207Y-109557912D01*
X144852876Y-109247656D01*
X144336939Y-109033948D01*
X143789223Y-108925000D01*
X143230777Y-108925000D01*
X142683061Y-109033948D01*
X142167124Y-109247656D01*
X141702793Y-109557912D01*
X141307912Y-109952793D01*
X140997656Y-110417124D01*
X140783948Y-110933061D01*
X140675000Y-111480777D01*
X140675000Y-112039223D01*
X140783948Y-112586939D01*
X140997656Y-113102876D01*
X141307912Y-113567207D01*
X141355705Y-113615000D01*
X140335000Y-113615000D01*
X140335000Y-104990000D01*
X142021928Y-104990000D01*
X142034188Y-105114482D01*
X142070498Y-105234180D01*
X142129463Y-105344494D01*
X142208815Y-105441185D01*
X142305506Y-105520537D01*
X142415820Y-105579502D01*
X142535518Y-105615812D01*
X142660000Y-105628072D01*
X143224250Y-105625000D01*
X143383000Y-105466250D01*
X143383000Y-104267000D01*
X143637000Y-104267000D01*
X143637000Y-105466250D01*
X143795750Y-105625000D01*
X144360000Y-105628072D01*
X144484482Y-105615812D01*
X144604180Y-105579502D01*
X144714494Y-105520537D01*
X144811185Y-105441185D01*
X144890537Y-105344494D01*
X144949502Y-105234180D01*
X144985812Y-105114482D01*
X144998072Y-104990000D01*
X144995000Y-104425750D01*
X144836250Y-104267000D01*
X143637000Y-104267000D01*
X143383000Y-104267000D01*
X142183750Y-104267000D01*
X142025000Y-104425750D01*
X142021928Y-104990000D01*
X140335000Y-104990000D01*
X140335000Y-103047800D01*
X142069897Y-103047800D01*
X142034188Y-103165518D01*
G37*
%TD.AperFunction*%
%TD*%
D17*
%TO.N,+5V*%
X134464795Y-89730544D02*
X134386774Y-89918902D01*
X134347000Y-90118861D01*
X134347000Y-90322739D01*
X134376178Y-90469428D01*
X134263614Y-90529595D01*
X134129038Y-90640038D01*
X134018595Y-90774614D01*
X133936528Y-90928150D01*
X133885992Y-91094746D01*
X133868928Y-91268000D01*
X133868928Y-92068000D01*
X133885992Y-92241254D01*
X133936528Y-92407850D01*
X134018595Y-92561386D01*
X134129038Y-92695962D01*
X134263614Y-92806405D01*
X134417150Y-92888472D01*
X134583746Y-92939008D01*
X134757000Y-92956072D01*
X136007000Y-92956072D01*
X136180254Y-92939008D01*
X136346850Y-92888472D01*
X136500386Y-92806405D01*
X136525000Y-92786205D01*
X136525000Y-93541230D01*
X136501180Y-93528498D01*
X136381482Y-93492188D01*
X136257000Y-93479928D01*
X135667750Y-93483000D01*
X135509000Y-93641750D01*
X135509000Y-94641000D01*
X135529000Y-94641000D01*
X135529000Y-94895000D01*
X135509000Y-94895000D01*
X135509000Y-95894250D01*
X135667750Y-96053000D01*
X136257000Y-96056072D01*
X136299292Y-96051907D01*
X136268003Y-96083196D01*
X136238999Y-96106999D01*
X136183871Y-96174174D01*
X136144026Y-96222724D01*
X136120894Y-96266001D01*
X136073454Y-96354754D01*
X136043919Y-96452119D01*
X135667750Y-96454000D01*
X135509000Y-96612750D01*
X135509000Y-97624500D01*
X135529000Y-97624500D01*
X135529000Y-97878500D01*
X135509000Y-97878500D01*
X135509000Y-98890250D01*
X135667750Y-99049000D01*
X136019001Y-99050757D01*
X136019001Y-99339400D01*
X134538072Y-99339400D01*
X134538072Y-99311000D01*
X134521584Y-99143598D01*
X134493802Y-99052013D01*
X135096250Y-99049000D01*
X135255000Y-98890250D01*
X135255000Y-97878500D01*
X135235000Y-97878500D01*
X135235000Y-97624500D01*
X135255000Y-97624500D01*
X135255000Y-96612750D01*
X135096250Y-96454000D01*
X134482000Y-96450928D01*
X134357518Y-96463188D01*
X134237820Y-96499498D01*
X134127506Y-96558463D01*
X134030815Y-96637815D01*
X133951463Y-96734506D01*
X133892498Y-96844820D01*
X133856188Y-96964518D01*
X133843928Y-97089000D01*
X133844525Y-97162238D01*
X133750000Y-97152928D01*
X133635750Y-97156000D01*
X133477000Y-97314750D01*
X133477000Y-98064000D01*
X133497000Y-98064000D01*
X133497000Y-98318000D01*
X133477000Y-98318000D01*
X133477000Y-98338000D01*
X133223000Y-98338000D01*
X133223000Y-98318000D01*
X132473750Y-98318000D01*
X132315000Y-98476750D01*
X132311928Y-98591000D01*
X132324188Y-98715482D01*
X132345737Y-98786518D01*
X132306539Y-98834281D01*
X132299305Y-98847814D01*
X132287938Y-98732403D01*
X132224468Y-98523167D01*
X132121396Y-98330334D01*
X131982686Y-98161314D01*
X131813666Y-98022604D01*
X131620834Y-97919532D01*
X131411598Y-97856062D01*
X131194000Y-97834630D01*
X130976403Y-97856062D01*
X130767167Y-97919532D01*
X130574335Y-98022604D01*
X130405315Y-98161314D01*
X130266604Y-98330334D01*
X130163532Y-98523166D01*
X130100062Y-98732402D01*
X130084000Y-98895479D01*
X130084000Y-99304520D01*
X130087435Y-99339400D01*
X127685000Y-99339400D01*
X127685000Y-99068568D01*
X127748702Y-99102617D01*
X127952283Y-99164373D01*
X128110949Y-99180000D01*
X128877051Y-99180000D01*
X129035717Y-99164373D01*
X129239298Y-99102617D01*
X129426919Y-99002332D01*
X129591370Y-98867370D01*
X129726332Y-98702919D01*
X129826617Y-98515298D01*
X129888373Y-98311717D01*
X129909225Y-98100000D01*
X129888373Y-97888283D01*
X129858863Y-97791000D01*
X132311928Y-97791000D01*
X132315000Y-97905250D01*
X132473750Y-98064000D01*
X133223000Y-98064000D01*
X133223000Y-97314750D01*
X133064250Y-97156000D01*
X132950000Y-97152928D01*
X132825518Y-97165188D01*
X132705820Y-97201498D01*
X132595506Y-97260463D01*
X132498815Y-97339815D01*
X132419463Y-97436506D01*
X132360498Y-97546820D01*
X132324188Y-97666518D01*
X132311928Y-97791000D01*
X129858863Y-97791000D01*
X129826617Y-97684702D01*
X129726332Y-97497081D01*
X129591370Y-97332630D01*
X129426919Y-97197668D01*
X129239298Y-97097383D01*
X129035717Y-97035627D01*
X128877051Y-97020000D01*
X128110949Y-97020000D01*
X127952283Y-97035627D01*
X127748702Y-97097383D01*
X127685000Y-97131432D01*
X127685000Y-96100000D01*
X128051928Y-96100000D01*
X128064188Y-96224482D01*
X128100498Y-96344180D01*
X128159463Y-96454494D01*
X128238815Y-96551185D01*
X128335506Y-96630537D01*
X128445820Y-96689502D01*
X128565518Y-96725812D01*
X128690000Y-96738072D01*
X129254250Y-96735000D01*
X129413000Y-96576250D01*
X129413000Y-95377000D01*
X129667000Y-95377000D01*
X129667000Y-96576250D01*
X129825750Y-96735000D01*
X130390000Y-96738072D01*
X130514482Y-96725812D01*
X130634180Y-96689502D01*
X130744494Y-96630537D01*
X130841185Y-96551185D01*
X130920537Y-96454494D01*
X130979502Y-96344180D01*
X131015812Y-96224482D01*
X131028072Y-96100000D01*
X131025000Y-95535750D01*
X130907250Y-95418000D01*
X133868928Y-95418000D01*
X133881188Y-95542482D01*
X133917498Y-95662180D01*
X133976463Y-95772494D01*
X134055815Y-95869185D01*
X134152506Y-95948537D01*
X134262820Y-96007502D01*
X134382518Y-96043812D01*
X134507000Y-96056072D01*
X135096250Y-96053000D01*
X135255000Y-95894250D01*
X135255000Y-94895000D01*
X134030750Y-94895000D01*
X133872000Y-95053750D01*
X133868928Y-95418000D01*
X130907250Y-95418000D01*
X130866250Y-95377000D01*
X129667000Y-95377000D01*
X129413000Y-95377000D01*
X128213750Y-95377000D01*
X128055000Y-95535750D01*
X128051928Y-96100000D01*
X127685000Y-96100000D01*
X127685000Y-93594295D01*
X127732793Y-93642088D01*
X128197124Y-93952344D01*
X128226077Y-93964337D01*
X128159463Y-94045506D01*
X128100498Y-94155820D01*
X128064188Y-94275518D01*
X128051928Y-94400000D01*
X128055000Y-94964250D01*
X128213750Y-95123000D01*
X129413000Y-95123000D01*
X129413000Y-95103000D01*
X129667000Y-95103000D01*
X129667000Y-95123000D01*
X130866250Y-95123000D01*
X131025000Y-94964250D01*
X131028072Y-94400000D01*
X131015812Y-94275518D01*
X130979502Y-94155820D01*
X130959287Y-94118000D01*
X133868928Y-94118000D01*
X133872000Y-94482250D01*
X134030750Y-94641000D01*
X135255000Y-94641000D01*
X135255000Y-93641750D01*
X135096250Y-93483000D01*
X134507000Y-93479928D01*
X134382518Y-93492188D01*
X134262820Y-93528498D01*
X134152506Y-93587463D01*
X134055815Y-93666815D01*
X133976463Y-93763506D01*
X133917498Y-93873820D01*
X133881188Y-93993518D01*
X133868928Y-94118000D01*
X130959287Y-94118000D01*
X130920537Y-94045506D01*
X130853923Y-93964337D01*
X130882876Y-93952344D01*
X131347207Y-93642088D01*
X131742088Y-93247207D01*
X132052344Y-92782876D01*
X132266052Y-92266939D01*
X132375000Y-91719223D01*
X132375000Y-91160777D01*
X132266052Y-90613061D01*
X132052344Y-90097124D01*
X131742088Y-89632793D01*
X131694295Y-89585000D01*
X134562044Y-89585000D01*
X134464795Y-89730544D01*
%TA.AperFunction,Conductor*%
D18*
G36*
X134464795Y-89730544D02*
G01*
X134386774Y-89918902D01*
X134347000Y-90118861D01*
X134347000Y-90322739D01*
X134376178Y-90469428D01*
X134263614Y-90529595D01*
X134129038Y-90640038D01*
X134018595Y-90774614D01*
X133936528Y-90928150D01*
X133885992Y-91094746D01*
X133868928Y-91268000D01*
X133868928Y-92068000D01*
X133885992Y-92241254D01*
X133936528Y-92407850D01*
X134018595Y-92561386D01*
X134129038Y-92695962D01*
X134263614Y-92806405D01*
X134417150Y-92888472D01*
X134583746Y-92939008D01*
X134757000Y-92956072D01*
X136007000Y-92956072D01*
X136180254Y-92939008D01*
X136346850Y-92888472D01*
X136500386Y-92806405D01*
X136525000Y-92786205D01*
X136525000Y-93541230D01*
X136501180Y-93528498D01*
X136381482Y-93492188D01*
X136257000Y-93479928D01*
X135667750Y-93483000D01*
X135509000Y-93641750D01*
X135509000Y-94641000D01*
X135529000Y-94641000D01*
X135529000Y-94895000D01*
X135509000Y-94895000D01*
X135509000Y-95894250D01*
X135667750Y-96053000D01*
X136257000Y-96056072D01*
X136299292Y-96051907D01*
X136268003Y-96083196D01*
X136238999Y-96106999D01*
X136183871Y-96174174D01*
X136144026Y-96222724D01*
X136120894Y-96266001D01*
X136073454Y-96354754D01*
X136043919Y-96452119D01*
X135667750Y-96454000D01*
X135509000Y-96612750D01*
X135509000Y-97624500D01*
X135529000Y-97624500D01*
X135529000Y-97878500D01*
X135509000Y-97878500D01*
X135509000Y-98890250D01*
X135667750Y-99049000D01*
X136019001Y-99050757D01*
X136019001Y-99339400D01*
X134538072Y-99339400D01*
X134538072Y-99311000D01*
X134521584Y-99143598D01*
X134493802Y-99052013D01*
X135096250Y-99049000D01*
X135255000Y-98890250D01*
X135255000Y-97878500D01*
X135235000Y-97878500D01*
X135235000Y-97624500D01*
X135255000Y-97624500D01*
X135255000Y-96612750D01*
X135096250Y-96454000D01*
X134482000Y-96450928D01*
X134357518Y-96463188D01*
X134237820Y-96499498D01*
X134127506Y-96558463D01*
X134030815Y-96637815D01*
X133951463Y-96734506D01*
X133892498Y-96844820D01*
X133856188Y-96964518D01*
X133843928Y-97089000D01*
X133844525Y-97162238D01*
X133750000Y-97152928D01*
X133635750Y-97156000D01*
X133477000Y-97314750D01*
X133477000Y-98064000D01*
X133497000Y-98064000D01*
X133497000Y-98318000D01*
X133477000Y-98318000D01*
X133477000Y-98338000D01*
X133223000Y-98338000D01*
X133223000Y-98318000D01*
X132473750Y-98318000D01*
X132315000Y-98476750D01*
X132311928Y-98591000D01*
X132324188Y-98715482D01*
X132345737Y-98786518D01*
X132306539Y-98834281D01*
X132299305Y-98847814D01*
X132287938Y-98732403D01*
X132224468Y-98523167D01*
X132121396Y-98330334D01*
X131982686Y-98161314D01*
X131813666Y-98022604D01*
X131620834Y-97919532D01*
X131411598Y-97856062D01*
X131194000Y-97834630D01*
X130976403Y-97856062D01*
X130767167Y-97919532D01*
X130574335Y-98022604D01*
X130405315Y-98161314D01*
X130266604Y-98330334D01*
X130163532Y-98523166D01*
X130100062Y-98732402D01*
X130084000Y-98895479D01*
X130084000Y-99304520D01*
X130087435Y-99339400D01*
X127685000Y-99339400D01*
X127685000Y-99068568D01*
X127748702Y-99102617D01*
X127952283Y-99164373D01*
X128110949Y-99180000D01*
X128877051Y-99180000D01*
X129035717Y-99164373D01*
X129239298Y-99102617D01*
X129426919Y-99002332D01*
X129591370Y-98867370D01*
X129726332Y-98702919D01*
X129826617Y-98515298D01*
X129888373Y-98311717D01*
X129909225Y-98100000D01*
X129888373Y-97888283D01*
X129858863Y-97791000D01*
X132311928Y-97791000D01*
X132315000Y-97905250D01*
X132473750Y-98064000D01*
X133223000Y-98064000D01*
X133223000Y-97314750D01*
X133064250Y-97156000D01*
X132950000Y-97152928D01*
X132825518Y-97165188D01*
X132705820Y-97201498D01*
X132595506Y-97260463D01*
X132498815Y-97339815D01*
X132419463Y-97436506D01*
X132360498Y-97546820D01*
X132324188Y-97666518D01*
X132311928Y-97791000D01*
X129858863Y-97791000D01*
X129826617Y-97684702D01*
X129726332Y-97497081D01*
X129591370Y-97332630D01*
X129426919Y-97197668D01*
X129239298Y-97097383D01*
X129035717Y-97035627D01*
X128877051Y-97020000D01*
X128110949Y-97020000D01*
X127952283Y-97035627D01*
X127748702Y-97097383D01*
X127685000Y-97131432D01*
X127685000Y-96100000D01*
X128051928Y-96100000D01*
X128064188Y-96224482D01*
X128100498Y-96344180D01*
X128159463Y-96454494D01*
X128238815Y-96551185D01*
X128335506Y-96630537D01*
X128445820Y-96689502D01*
X128565518Y-96725812D01*
X128690000Y-96738072D01*
X129254250Y-96735000D01*
X129413000Y-96576250D01*
X129413000Y-95377000D01*
X129667000Y-95377000D01*
X129667000Y-96576250D01*
X129825750Y-96735000D01*
X130390000Y-96738072D01*
X130514482Y-96725812D01*
X130634180Y-96689502D01*
X130744494Y-96630537D01*
X130841185Y-96551185D01*
X130920537Y-96454494D01*
X130979502Y-96344180D01*
X131015812Y-96224482D01*
X131028072Y-96100000D01*
X131025000Y-95535750D01*
X130907250Y-95418000D01*
X133868928Y-95418000D01*
X133881188Y-95542482D01*
X133917498Y-95662180D01*
X133976463Y-95772494D01*
X134055815Y-95869185D01*
X134152506Y-95948537D01*
X134262820Y-96007502D01*
X134382518Y-96043812D01*
X134507000Y-96056072D01*
X135096250Y-96053000D01*
X135255000Y-95894250D01*
X135255000Y-94895000D01*
X134030750Y-94895000D01*
X133872000Y-95053750D01*
X133868928Y-95418000D01*
X130907250Y-95418000D01*
X130866250Y-95377000D01*
X129667000Y-95377000D01*
X129413000Y-95377000D01*
X128213750Y-95377000D01*
X128055000Y-95535750D01*
X128051928Y-96100000D01*
X127685000Y-96100000D01*
X127685000Y-93594295D01*
X127732793Y-93642088D01*
X128197124Y-93952344D01*
X128226077Y-93964337D01*
X128159463Y-94045506D01*
X128100498Y-94155820D01*
X128064188Y-94275518D01*
X128051928Y-94400000D01*
X128055000Y-94964250D01*
X128213750Y-95123000D01*
X129413000Y-95123000D01*
X129413000Y-95103000D01*
X129667000Y-95103000D01*
X129667000Y-95123000D01*
X130866250Y-95123000D01*
X131025000Y-94964250D01*
X131028072Y-94400000D01*
X131015812Y-94275518D01*
X130979502Y-94155820D01*
X130959287Y-94118000D01*
X133868928Y-94118000D01*
X133872000Y-94482250D01*
X134030750Y-94641000D01*
X135255000Y-94641000D01*
X135255000Y-93641750D01*
X135096250Y-93483000D01*
X134507000Y-93479928D01*
X134382518Y-93492188D01*
X134262820Y-93528498D01*
X134152506Y-93587463D01*
X134055815Y-93666815D01*
X133976463Y-93763506D01*
X133917498Y-93873820D01*
X133881188Y-93993518D01*
X133868928Y-94118000D01*
X130959287Y-94118000D01*
X130920537Y-94045506D01*
X130853923Y-93964337D01*
X130882876Y-93952344D01*
X131347207Y-93642088D01*
X131742088Y-93247207D01*
X132052344Y-92782876D01*
X132266052Y-92266939D01*
X132375000Y-91719223D01*
X132375000Y-91160777D01*
X132266052Y-90613061D01*
X132052344Y-90097124D01*
X131742088Y-89632793D01*
X131694295Y-89585000D01*
X134562044Y-89585000D01*
X134464795Y-89730544D01*
G37*
%TD.AperFunction*%
%TD*%
D17*
%TO.N,/VBAT*%
X141307912Y-89632793D02*
X140997656Y-90097124D01*
X140783948Y-90613061D01*
X140675000Y-91160777D01*
X140675000Y-91719223D01*
X140783948Y-92266939D01*
X140997656Y-92782876D01*
X141307912Y-93247207D01*
X141702793Y-93642088D01*
X142167124Y-93952344D01*
X142683061Y-94166052D01*
X143230777Y-94275000D01*
X143789223Y-94275000D01*
X144336939Y-94166052D01*
X144852876Y-93952344D01*
X145317207Y-93642088D01*
X145365000Y-93594295D01*
X145365001Y-102285800D01*
X144820279Y-102285800D01*
X144906825Y-102104099D01*
X144951476Y-101956890D01*
X144830155Y-101727000D01*
X143637000Y-101727000D01*
X143637000Y-101747000D01*
X143383000Y-101747000D01*
X143383000Y-101727000D01*
X142189845Y-101727000D01*
X142068524Y-101956890D01*
X142113175Y-102104099D01*
X142199721Y-102285800D01*
X141020800Y-102285800D01*
X141020800Y-99974400D01*
X141008599Y-99850518D01*
X140972464Y-99731396D01*
X140913783Y-99621613D01*
X140834813Y-99525387D01*
X140738587Y-99446417D01*
X140683347Y-99416890D01*
X142068524Y-99416890D01*
X142113175Y-99564099D01*
X142238359Y-99826920D01*
X142412412Y-100060269D01*
X142628645Y-100255178D01*
X142754255Y-100330000D01*
X142628645Y-100404822D01*
X142412412Y-100599731D01*
X142238359Y-100833080D01*
X142113175Y-101095901D01*
X142068524Y-101243110D01*
X142189845Y-101473000D01*
X143383000Y-101473000D01*
X143383000Y-99187000D01*
X143637000Y-99187000D01*
X143637000Y-101473000D01*
X144830155Y-101473000D01*
X144951476Y-101243110D01*
X144906825Y-101095901D01*
X144781641Y-100833080D01*
X144607588Y-100599731D01*
X144391355Y-100404822D01*
X144265745Y-100330000D01*
X144391355Y-100255178D01*
X144607588Y-100060269D01*
X144781641Y-99826920D01*
X144906825Y-99564099D01*
X144951476Y-99416890D01*
X144830155Y-99187000D01*
X143637000Y-99187000D01*
X143383000Y-99187000D01*
X142189845Y-99187000D01*
X142068524Y-99416890D01*
X140683347Y-99416890D01*
X140628804Y-99387736D01*
X140509682Y-99351601D01*
X140385800Y-99339400D01*
X137539000Y-99339400D01*
X137539000Y-99050757D01*
X137890250Y-99049000D01*
X138049000Y-98890250D01*
X138049000Y-97878500D01*
X138303000Y-97878500D01*
X138303000Y-98890250D01*
X138461750Y-99049000D01*
X139076000Y-99052072D01*
X139200482Y-99039812D01*
X139320180Y-99003502D01*
X139430494Y-98944537D01*
X139527185Y-98865185D01*
X139606537Y-98768494D01*
X139641486Y-98703110D01*
X142068524Y-98703110D01*
X142189845Y-98933000D01*
X143383000Y-98933000D01*
X143383000Y-97739186D01*
X143637000Y-97739186D01*
X143637000Y-98933000D01*
X144830155Y-98933000D01*
X144951476Y-98703110D01*
X144906825Y-98555901D01*
X144781641Y-98293080D01*
X144607588Y-98059731D01*
X144391355Y-97864822D01*
X144141252Y-97715843D01*
X143866891Y-97618519D01*
X143637000Y-97739186D01*
X143383000Y-97739186D01*
X143153109Y-97618519D01*
X142878748Y-97715843D01*
X142628645Y-97864822D01*
X142412412Y-98059731D01*
X142238359Y-98293080D01*
X142113175Y-98555901D01*
X142068524Y-98703110D01*
X139641486Y-98703110D01*
X139665502Y-98658180D01*
X139701812Y-98538482D01*
X139714072Y-98414000D01*
X139711000Y-98037250D01*
X139552250Y-97878500D01*
X138303000Y-97878500D01*
X138049000Y-97878500D01*
X138029000Y-97878500D01*
X138029000Y-97624500D01*
X138049000Y-97624500D01*
X138049000Y-97604500D01*
X138303000Y-97604500D01*
X138303000Y-97624500D01*
X139552250Y-97624500D01*
X139711000Y-97465750D01*
X139714072Y-97089000D01*
X139701812Y-96964518D01*
X139665502Y-96844820D01*
X139606537Y-96734506D01*
X139527185Y-96637815D01*
X139430494Y-96558463D01*
X139320180Y-96499498D01*
X139200482Y-96463188D01*
X139076000Y-96450928D01*
X138542761Y-96453595D01*
X138556974Y-96436276D01*
X138627546Y-96304247D01*
X138671003Y-96160986D01*
X138682000Y-96049333D01*
X138682000Y-96049324D01*
X138682651Y-96042712D01*
X138720254Y-96039008D01*
X138886850Y-95988472D01*
X139040386Y-95906405D01*
X139174962Y-95795962D01*
X139285405Y-95661386D01*
X139367472Y-95507850D01*
X139418008Y-95341254D01*
X139435072Y-95168000D01*
X139435072Y-94368000D01*
X139418008Y-94194746D01*
X139367472Y-94028150D01*
X139285405Y-93874614D01*
X139174962Y-93740038D01*
X139040386Y-93629595D01*
X138886850Y-93547528D01*
X138720254Y-93496992D01*
X138547000Y-93479928D01*
X137297000Y-93479928D01*
X137287000Y-93480913D01*
X137287000Y-92955087D01*
X137297000Y-92956072D01*
X138547000Y-92956072D01*
X138720254Y-92939008D01*
X138886850Y-92888472D01*
X139040386Y-92806405D01*
X139174962Y-92695962D01*
X139285405Y-92561386D01*
X139367472Y-92407850D01*
X139418008Y-92241254D01*
X139435072Y-92068000D01*
X139435072Y-91268000D01*
X139418008Y-91094746D01*
X139367472Y-90928150D01*
X139285405Y-90774614D01*
X139174962Y-90640038D01*
X139040386Y-90529595D01*
X138927822Y-90469428D01*
X138957000Y-90322739D01*
X138957000Y-90118861D01*
X138917226Y-89918902D01*
X138839205Y-89730544D01*
X138741956Y-89585000D01*
X141355705Y-89585000D01*
X141307912Y-89632793D01*
%TA.AperFunction,Conductor*%
D18*
G36*
X141307912Y-89632793D02*
G01*
X140997656Y-90097124D01*
X140783948Y-90613061D01*
X140675000Y-91160777D01*
X140675000Y-91719223D01*
X140783948Y-92266939D01*
X140997656Y-92782876D01*
X141307912Y-93247207D01*
X141702793Y-93642088D01*
X142167124Y-93952344D01*
X142683061Y-94166052D01*
X143230777Y-94275000D01*
X143789223Y-94275000D01*
X144336939Y-94166052D01*
X144852876Y-93952344D01*
X145317207Y-93642088D01*
X145365000Y-93594295D01*
X145365001Y-102285800D01*
X144820279Y-102285800D01*
X144906825Y-102104099D01*
X144951476Y-101956890D01*
X144830155Y-101727000D01*
X143637000Y-101727000D01*
X143637000Y-101747000D01*
X143383000Y-101747000D01*
X143383000Y-101727000D01*
X142189845Y-101727000D01*
X142068524Y-101956890D01*
X142113175Y-102104099D01*
X142199721Y-102285800D01*
X141020800Y-102285800D01*
X141020800Y-99974400D01*
X141008599Y-99850518D01*
X140972464Y-99731396D01*
X140913783Y-99621613D01*
X140834813Y-99525387D01*
X140738587Y-99446417D01*
X140683347Y-99416890D01*
X142068524Y-99416890D01*
X142113175Y-99564099D01*
X142238359Y-99826920D01*
X142412412Y-100060269D01*
X142628645Y-100255178D01*
X142754255Y-100330000D01*
X142628645Y-100404822D01*
X142412412Y-100599731D01*
X142238359Y-100833080D01*
X142113175Y-101095901D01*
X142068524Y-101243110D01*
X142189845Y-101473000D01*
X143383000Y-101473000D01*
X143383000Y-99187000D01*
X143637000Y-99187000D01*
X143637000Y-101473000D01*
X144830155Y-101473000D01*
X144951476Y-101243110D01*
X144906825Y-101095901D01*
X144781641Y-100833080D01*
X144607588Y-100599731D01*
X144391355Y-100404822D01*
X144265745Y-100330000D01*
X144391355Y-100255178D01*
X144607588Y-100060269D01*
X144781641Y-99826920D01*
X144906825Y-99564099D01*
X144951476Y-99416890D01*
X144830155Y-99187000D01*
X143637000Y-99187000D01*
X143383000Y-99187000D01*
X142189845Y-99187000D01*
X142068524Y-99416890D01*
X140683347Y-99416890D01*
X140628804Y-99387736D01*
X140509682Y-99351601D01*
X140385800Y-99339400D01*
X137539000Y-99339400D01*
X137539000Y-99050757D01*
X137890250Y-99049000D01*
X138049000Y-98890250D01*
X138049000Y-97878500D01*
X138303000Y-97878500D01*
X138303000Y-98890250D01*
X138461750Y-99049000D01*
X139076000Y-99052072D01*
X139200482Y-99039812D01*
X139320180Y-99003502D01*
X139430494Y-98944537D01*
X139527185Y-98865185D01*
X139606537Y-98768494D01*
X139641486Y-98703110D01*
X142068524Y-98703110D01*
X142189845Y-98933000D01*
X143383000Y-98933000D01*
X143383000Y-97739186D01*
X143637000Y-97739186D01*
X143637000Y-98933000D01*
X144830155Y-98933000D01*
X144951476Y-98703110D01*
X144906825Y-98555901D01*
X144781641Y-98293080D01*
X144607588Y-98059731D01*
X144391355Y-97864822D01*
X144141252Y-97715843D01*
X143866891Y-97618519D01*
X143637000Y-97739186D01*
X143383000Y-97739186D01*
X143153109Y-97618519D01*
X142878748Y-97715843D01*
X142628645Y-97864822D01*
X142412412Y-98059731D01*
X142238359Y-98293080D01*
X142113175Y-98555901D01*
X142068524Y-98703110D01*
X139641486Y-98703110D01*
X139665502Y-98658180D01*
X139701812Y-98538482D01*
X139714072Y-98414000D01*
X139711000Y-98037250D01*
X139552250Y-97878500D01*
X138303000Y-97878500D01*
X138049000Y-97878500D01*
X138029000Y-97878500D01*
X138029000Y-97624500D01*
X138049000Y-97624500D01*
X138049000Y-97604500D01*
X138303000Y-97604500D01*
X138303000Y-97624500D01*
X139552250Y-97624500D01*
X139711000Y-97465750D01*
X139714072Y-97089000D01*
X139701812Y-96964518D01*
X139665502Y-96844820D01*
X139606537Y-96734506D01*
X139527185Y-96637815D01*
X139430494Y-96558463D01*
X139320180Y-96499498D01*
X139200482Y-96463188D01*
X139076000Y-96450928D01*
X138542761Y-96453595D01*
X138556974Y-96436276D01*
X138627546Y-96304247D01*
X138671003Y-96160986D01*
X138682000Y-96049333D01*
X138682000Y-96049324D01*
X138682651Y-96042712D01*
X138720254Y-96039008D01*
X138886850Y-95988472D01*
X139040386Y-95906405D01*
X139174962Y-95795962D01*
X139285405Y-95661386D01*
X139367472Y-95507850D01*
X139418008Y-95341254D01*
X139435072Y-95168000D01*
X139435072Y-94368000D01*
X139418008Y-94194746D01*
X139367472Y-94028150D01*
X139285405Y-93874614D01*
X139174962Y-93740038D01*
X139040386Y-93629595D01*
X138886850Y-93547528D01*
X138720254Y-93496992D01*
X138547000Y-93479928D01*
X137297000Y-93479928D01*
X137287000Y-93480913D01*
X137287000Y-92955087D01*
X137297000Y-92956072D01*
X138547000Y-92956072D01*
X138720254Y-92939008D01*
X138886850Y-92888472D01*
X139040386Y-92806405D01*
X139174962Y-92695962D01*
X139285405Y-92561386D01*
X139367472Y-92407850D01*
X139418008Y-92241254D01*
X139435072Y-92068000D01*
X139435072Y-91268000D01*
X139418008Y-91094746D01*
X139367472Y-90928150D01*
X139285405Y-90774614D01*
X139174962Y-90640038D01*
X139040386Y-90529595D01*
X138927822Y-90469428D01*
X138957000Y-90322739D01*
X138957000Y-90118861D01*
X138917226Y-89918902D01*
X138839205Y-89730544D01*
X138741956Y-89585000D01*
X141355705Y-89585000D01*
X141307912Y-89632793D01*
G37*
%TD.AperFunction*%
%TD*%
M02*
