%TF.GenerationSoftware,KiCad,Pcbnew,(5.1.8)-1*%
%TF.CreationDate,2021-01-16T14:03:11-05:00*%
%TF.ProjectId,electronics-li-ion-charger,656c6563-7472-46f6-9e69-63732d6c692d,rev?*%
%TF.SameCoordinates,Original*%
%TF.FileFunction,Legend,Top*%
%TF.FilePolarity,Positive*%
%FSLAX46Y46*%
G04 Gerber Fmt 4.6, Leading zero omitted, Abs format (unit mm)*
G04 Created by KiCad (PCBNEW (5.1.8)-1) date 2021-01-16 14:03:11*
%MOMM*%
%LPD*%
G01*
G04 APERTURE LIST*
%ADD10C,0.127000*%
%ADD11C,0.120000*%
%ADD12C,0.150000*%
G04 APERTURE END LIST*
D10*
X141514890Y-95417519D02*
X141587461Y-95441709D01*
X141708414Y-95441709D01*
X141756795Y-95417519D01*
X141780985Y-95393328D01*
X141805176Y-95344947D01*
X141805176Y-95296566D01*
X141780985Y-95248185D01*
X141756795Y-95223995D01*
X141708414Y-95199804D01*
X141611652Y-95175614D01*
X141563271Y-95151423D01*
X141539080Y-95127233D01*
X141514890Y-95078852D01*
X141514890Y-95030471D01*
X141539080Y-94982090D01*
X141563271Y-94957900D01*
X141611652Y-94933709D01*
X141732604Y-94933709D01*
X141805176Y-94957900D01*
X142022890Y-95441709D02*
X142022890Y-95103042D01*
X142022890Y-94933709D02*
X141998700Y-94957900D01*
X142022890Y-94982090D01*
X142047080Y-94957900D01*
X142022890Y-94933709D01*
X142022890Y-94982090D01*
X142264795Y-95103042D02*
X142264795Y-95441709D01*
X142264795Y-95151423D02*
X142288985Y-95127233D01*
X142337366Y-95103042D01*
X142409938Y-95103042D01*
X142458319Y-95127233D01*
X142482509Y-95175614D01*
X142482509Y-95441709D01*
X142942128Y-95103042D02*
X142942128Y-95514280D01*
X142917938Y-95562661D01*
X142893747Y-95586852D01*
X142845366Y-95611042D01*
X142772795Y-95611042D01*
X142724414Y-95586852D01*
X142942128Y-95417519D02*
X142893747Y-95441709D01*
X142796985Y-95441709D01*
X142748604Y-95417519D01*
X142724414Y-95393328D01*
X142700223Y-95344947D01*
X142700223Y-95199804D01*
X142724414Y-95151423D01*
X142748604Y-95127233D01*
X142796985Y-95103042D01*
X142893747Y-95103042D01*
X142942128Y-95127233D01*
X143256604Y-95441709D02*
X143208223Y-95417519D01*
X143184033Y-95369138D01*
X143184033Y-94933709D01*
X143643652Y-95417519D02*
X143595271Y-95441709D01*
X143498509Y-95441709D01*
X143450128Y-95417519D01*
X143425938Y-95369138D01*
X143425938Y-95175614D01*
X143450128Y-95127233D01*
X143498509Y-95103042D01*
X143595271Y-95103042D01*
X143643652Y-95127233D01*
X143667842Y-95175614D01*
X143667842Y-95223995D01*
X143425938Y-95272376D01*
X144562890Y-95393328D02*
X144538700Y-95417519D01*
X144466128Y-95441709D01*
X144417747Y-95441709D01*
X144345176Y-95417519D01*
X144296795Y-95369138D01*
X144272604Y-95320757D01*
X144248414Y-95223995D01*
X144248414Y-95151423D01*
X144272604Y-95054661D01*
X144296795Y-95006280D01*
X144345176Y-94957900D01*
X144417747Y-94933709D01*
X144466128Y-94933709D01*
X144538700Y-94957900D01*
X144562890Y-94982090D01*
X144974128Y-95417519D02*
X144925747Y-95441709D01*
X144828985Y-95441709D01*
X144780604Y-95417519D01*
X144756414Y-95369138D01*
X144756414Y-95175614D01*
X144780604Y-95127233D01*
X144828985Y-95103042D01*
X144925747Y-95103042D01*
X144974128Y-95127233D01*
X144998319Y-95175614D01*
X144998319Y-95223995D01*
X144756414Y-95272376D01*
X145288604Y-95441709D02*
X145240223Y-95417519D01*
X145216033Y-95369138D01*
X145216033Y-94933709D01*
X145554700Y-95441709D02*
X145506319Y-95417519D01*
X145482128Y-95369138D01*
X145482128Y-94933709D01*
X142772795Y-95822709D02*
X143087271Y-95822709D01*
X142917938Y-96016233D01*
X142990509Y-96016233D01*
X143038890Y-96040423D01*
X143063080Y-96064614D01*
X143087271Y-96112995D01*
X143087271Y-96233947D01*
X143063080Y-96282328D01*
X143038890Y-96306519D01*
X142990509Y-96330709D01*
X142845366Y-96330709D01*
X142796985Y-96306519D01*
X142772795Y-96282328D01*
X143304985Y-96282328D02*
X143329176Y-96306519D01*
X143304985Y-96330709D01*
X143280795Y-96306519D01*
X143304985Y-96282328D01*
X143304985Y-96330709D01*
X143498509Y-95822709D02*
X143837176Y-95822709D01*
X143619461Y-96330709D01*
X143958128Y-95822709D02*
X144127461Y-96330709D01*
X144296795Y-95822709D01*
X134009795Y-105081009D02*
X133767890Y-105081009D01*
X133767890Y-104573009D01*
X134179128Y-105081009D02*
X134179128Y-104742342D01*
X134179128Y-104573009D02*
X134154938Y-104597200D01*
X134179128Y-104621390D01*
X134203319Y-104597200D01*
X134179128Y-104573009D01*
X134179128Y-104621390D01*
X134421033Y-104887485D02*
X134808080Y-104887485D01*
X135049985Y-105081009D02*
X135049985Y-104573009D01*
X135364461Y-105081009D02*
X135316080Y-105056819D01*
X135291890Y-105032628D01*
X135267700Y-104984247D01*
X135267700Y-104839104D01*
X135291890Y-104790723D01*
X135316080Y-104766533D01*
X135364461Y-104742342D01*
X135437033Y-104742342D01*
X135485414Y-104766533D01*
X135509604Y-104790723D01*
X135533795Y-104839104D01*
X135533795Y-104984247D01*
X135509604Y-105032628D01*
X135485414Y-105056819D01*
X135437033Y-105081009D01*
X135364461Y-105081009D01*
X135751509Y-104742342D02*
X135751509Y-105081009D01*
X135751509Y-104790723D02*
X135775700Y-104766533D01*
X135824080Y-104742342D01*
X135896652Y-104742342D01*
X135945033Y-104766533D01*
X135969223Y-104814914D01*
X135969223Y-105081009D01*
X136888461Y-105032628D02*
X136864271Y-105056819D01*
X136791700Y-105081009D01*
X136743319Y-105081009D01*
X136670747Y-105056819D01*
X136622366Y-105008438D01*
X136598176Y-104960057D01*
X136573985Y-104863295D01*
X136573985Y-104790723D01*
X136598176Y-104693961D01*
X136622366Y-104645580D01*
X136670747Y-104597200D01*
X136743319Y-104573009D01*
X136791700Y-104573009D01*
X136864271Y-104597200D01*
X136888461Y-104621390D01*
X137106176Y-105081009D02*
X137106176Y-104573009D01*
X137323890Y-105081009D02*
X137323890Y-104814914D01*
X137299700Y-104766533D01*
X137251319Y-104742342D01*
X137178747Y-104742342D01*
X137130366Y-104766533D01*
X137106176Y-104790723D01*
X137783509Y-105081009D02*
X137783509Y-104814914D01*
X137759319Y-104766533D01*
X137710938Y-104742342D01*
X137614176Y-104742342D01*
X137565795Y-104766533D01*
X137783509Y-105056819D02*
X137735128Y-105081009D01*
X137614176Y-105081009D01*
X137565795Y-105056819D01*
X137541604Y-105008438D01*
X137541604Y-104960057D01*
X137565795Y-104911676D01*
X137614176Y-104887485D01*
X137735128Y-104887485D01*
X137783509Y-104863295D01*
X138025414Y-105081009D02*
X138025414Y-104742342D01*
X138025414Y-104839104D02*
X138049604Y-104790723D01*
X138073795Y-104766533D01*
X138122176Y-104742342D01*
X138170557Y-104742342D01*
X138557604Y-104742342D02*
X138557604Y-105153580D01*
X138533414Y-105201961D01*
X138509223Y-105226152D01*
X138460842Y-105250342D01*
X138388271Y-105250342D01*
X138339890Y-105226152D01*
X138557604Y-105056819D02*
X138509223Y-105081009D01*
X138412461Y-105081009D01*
X138364080Y-105056819D01*
X138339890Y-105032628D01*
X138315700Y-104984247D01*
X138315700Y-104839104D01*
X138339890Y-104790723D01*
X138364080Y-104766533D01*
X138412461Y-104742342D01*
X138509223Y-104742342D01*
X138557604Y-104766533D01*
X138993033Y-105056819D02*
X138944652Y-105081009D01*
X138847890Y-105081009D01*
X138799509Y-105056819D01*
X138775319Y-105008438D01*
X138775319Y-104814914D01*
X138799509Y-104766533D01*
X138847890Y-104742342D01*
X138944652Y-104742342D01*
X138993033Y-104766533D01*
X139017223Y-104814914D01*
X139017223Y-104863295D01*
X138775319Y-104911676D01*
X139234938Y-105081009D02*
X139234938Y-104742342D01*
X139234938Y-104839104D02*
X139259128Y-104790723D01*
X139283319Y-104766533D01*
X139331700Y-104742342D01*
X139380080Y-104742342D01*
X135291890Y-105970009D02*
X135122557Y-105728104D01*
X135001604Y-105970009D02*
X135001604Y-105462009D01*
X135195128Y-105462009D01*
X135243509Y-105486200D01*
X135267700Y-105510390D01*
X135291890Y-105558771D01*
X135291890Y-105631342D01*
X135267700Y-105679723D01*
X135243509Y-105703914D01*
X135195128Y-105728104D01*
X135001604Y-105728104D01*
X135703128Y-105945819D02*
X135654747Y-105970009D01*
X135557985Y-105970009D01*
X135509604Y-105945819D01*
X135485414Y-105897438D01*
X135485414Y-105703914D01*
X135509604Y-105655533D01*
X135557985Y-105631342D01*
X135654747Y-105631342D01*
X135703128Y-105655533D01*
X135727319Y-105703914D01*
X135727319Y-105752295D01*
X135485414Y-105800676D01*
X135896652Y-105631342D02*
X136017604Y-105970009D01*
X136138557Y-105631342D01*
X136985223Y-105970009D02*
X136694938Y-105970009D01*
X136840080Y-105970009D02*
X136840080Y-105462009D01*
X136791700Y-105534580D01*
X136743319Y-105582961D01*
X136694938Y-105607152D01*
X137202938Y-105776485D02*
X137589985Y-105776485D01*
X137928652Y-105462009D02*
X137977033Y-105462009D01*
X138025414Y-105486200D01*
X138049604Y-105510390D01*
X138073795Y-105558771D01*
X138097985Y-105655533D01*
X138097985Y-105776485D01*
X138073795Y-105873247D01*
X138049604Y-105921628D01*
X138025414Y-105945819D01*
X137977033Y-105970009D01*
X137928652Y-105970009D01*
X137880271Y-105945819D01*
X137856080Y-105921628D01*
X137831890Y-105873247D01*
X137807700Y-105776485D01*
X137807700Y-105655533D01*
X137831890Y-105558771D01*
X137856080Y-105510390D01*
X137880271Y-105486200D01*
X137928652Y-105462009D01*
X133417128Y-106713866D02*
X133659033Y-106713866D01*
X133368747Y-106859009D02*
X133538080Y-106351009D01*
X133707414Y-106859009D01*
X133949319Y-106859009D02*
X133900938Y-106834819D01*
X133876747Y-106786438D01*
X133876747Y-106351009D01*
X134336366Y-106834819D02*
X134287985Y-106859009D01*
X134191223Y-106859009D01*
X134142842Y-106834819D01*
X134118652Y-106786438D01*
X134118652Y-106592914D01*
X134142842Y-106544533D01*
X134191223Y-106520342D01*
X134287985Y-106520342D01*
X134336366Y-106544533D01*
X134360557Y-106592914D01*
X134360557Y-106641295D01*
X134118652Y-106689676D01*
X134529890Y-106859009D02*
X134795985Y-106520342D01*
X134529890Y-106520342D02*
X134795985Y-106859009D01*
X135207223Y-106859009D02*
X135207223Y-106592914D01*
X135183033Y-106544533D01*
X135134652Y-106520342D01*
X135037890Y-106520342D01*
X134989509Y-106544533D01*
X135207223Y-106834819D02*
X135158842Y-106859009D01*
X135037890Y-106859009D01*
X134989509Y-106834819D01*
X134965319Y-106786438D01*
X134965319Y-106738057D01*
X134989509Y-106689676D01*
X135037890Y-106665485D01*
X135158842Y-106665485D01*
X135207223Y-106641295D01*
X135449128Y-106520342D02*
X135449128Y-106859009D01*
X135449128Y-106568723D02*
X135473319Y-106544533D01*
X135521700Y-106520342D01*
X135594271Y-106520342D01*
X135642652Y-106544533D01*
X135666842Y-106592914D01*
X135666842Y-106859009D01*
X136126461Y-106859009D02*
X136126461Y-106351009D01*
X136126461Y-106834819D02*
X136078080Y-106859009D01*
X135981319Y-106859009D01*
X135932938Y-106834819D01*
X135908747Y-106810628D01*
X135884557Y-106762247D01*
X135884557Y-106617104D01*
X135908747Y-106568723D01*
X135932938Y-106544533D01*
X135981319Y-106520342D01*
X136078080Y-106520342D01*
X136126461Y-106544533D01*
X136561890Y-106834819D02*
X136513509Y-106859009D01*
X136416747Y-106859009D01*
X136368366Y-106834819D01*
X136344176Y-106786438D01*
X136344176Y-106592914D01*
X136368366Y-106544533D01*
X136416747Y-106520342D01*
X136513509Y-106520342D01*
X136561890Y-106544533D01*
X136586080Y-106592914D01*
X136586080Y-106641295D01*
X136344176Y-106689676D01*
X136803795Y-106859009D02*
X136803795Y-106520342D01*
X136803795Y-106617104D02*
X136827985Y-106568723D01*
X136852176Y-106544533D01*
X136900557Y-106520342D01*
X136948938Y-106520342D01*
X137674652Y-106592914D02*
X137505319Y-106592914D01*
X137505319Y-106859009D02*
X137505319Y-106351009D01*
X137747223Y-106351009D01*
X137940747Y-106859009D02*
X137940747Y-106520342D01*
X137940747Y-106617104D02*
X137964938Y-106568723D01*
X137989128Y-106544533D01*
X138037509Y-106520342D01*
X138085890Y-106520342D01*
X138472938Y-106859009D02*
X138472938Y-106592914D01*
X138448747Y-106544533D01*
X138400366Y-106520342D01*
X138303604Y-106520342D01*
X138255223Y-106544533D01*
X138472938Y-106834819D02*
X138424557Y-106859009D01*
X138303604Y-106859009D01*
X138255223Y-106834819D01*
X138231033Y-106786438D01*
X138231033Y-106738057D01*
X138255223Y-106689676D01*
X138303604Y-106665485D01*
X138424557Y-106665485D01*
X138472938Y-106641295D01*
X138690652Y-106834819D02*
X138739033Y-106859009D01*
X138835795Y-106859009D01*
X138884176Y-106834819D01*
X138908366Y-106786438D01*
X138908366Y-106762247D01*
X138884176Y-106713866D01*
X138835795Y-106689676D01*
X138763223Y-106689676D01*
X138714842Y-106665485D01*
X138690652Y-106617104D01*
X138690652Y-106592914D01*
X138714842Y-106544533D01*
X138763223Y-106520342D01*
X138835795Y-106520342D01*
X138884176Y-106544533D01*
X139319604Y-106834819D02*
X139271223Y-106859009D01*
X139174461Y-106859009D01*
X139126080Y-106834819D01*
X139101890Y-106786438D01*
X139101890Y-106592914D01*
X139126080Y-106544533D01*
X139174461Y-106520342D01*
X139271223Y-106520342D01*
X139319604Y-106544533D01*
X139343795Y-106592914D01*
X139343795Y-106641295D01*
X139101890Y-106689676D01*
X139561509Y-106859009D02*
X139561509Y-106520342D01*
X139561509Y-106617104D02*
X139585700Y-106568723D01*
X139609890Y-106544533D01*
X139658271Y-106520342D01*
X139706652Y-106520342D01*
X133622747Y-107748009D02*
X133332461Y-107748009D01*
X133477604Y-107748009D02*
X133477604Y-107240009D01*
X133429223Y-107312580D01*
X133380842Y-107360961D01*
X133332461Y-107385152D01*
X134058176Y-107240009D02*
X133961414Y-107240009D01*
X133913033Y-107264200D01*
X133888842Y-107288390D01*
X133840461Y-107360961D01*
X133816271Y-107457723D01*
X133816271Y-107651247D01*
X133840461Y-107699628D01*
X133864652Y-107723819D01*
X133913033Y-107748009D01*
X134009795Y-107748009D01*
X134058176Y-107723819D01*
X134082366Y-107699628D01*
X134106557Y-107651247D01*
X134106557Y-107530295D01*
X134082366Y-107481914D01*
X134058176Y-107457723D01*
X134009795Y-107433533D01*
X133913033Y-107433533D01*
X133864652Y-107457723D01*
X133840461Y-107481914D01*
X133816271Y-107530295D01*
X134856461Y-107240009D02*
X134856461Y-107602866D01*
X134832271Y-107675438D01*
X134783890Y-107723819D01*
X134711319Y-107748009D01*
X134662938Y-107748009D01*
X135316080Y-107748009D02*
X135316080Y-107481914D01*
X135291890Y-107433533D01*
X135243509Y-107409342D01*
X135146747Y-107409342D01*
X135098366Y-107433533D01*
X135316080Y-107723819D02*
X135267700Y-107748009D01*
X135146747Y-107748009D01*
X135098366Y-107723819D01*
X135074176Y-107675438D01*
X135074176Y-107627057D01*
X135098366Y-107578676D01*
X135146747Y-107554485D01*
X135267700Y-107554485D01*
X135316080Y-107530295D01*
X135557985Y-107409342D02*
X135557985Y-107748009D01*
X135557985Y-107457723D02*
X135582176Y-107433533D01*
X135630557Y-107409342D01*
X135703128Y-107409342D01*
X135751509Y-107433533D01*
X135775700Y-107481914D01*
X135775700Y-107748009D01*
X136235319Y-107409342D02*
X136235319Y-107748009D01*
X136017604Y-107409342D02*
X136017604Y-107675438D01*
X136041795Y-107723819D01*
X136090176Y-107748009D01*
X136162747Y-107748009D01*
X136211128Y-107723819D01*
X136235319Y-107699628D01*
X136694938Y-107748009D02*
X136694938Y-107481914D01*
X136670747Y-107433533D01*
X136622366Y-107409342D01*
X136525604Y-107409342D01*
X136477223Y-107433533D01*
X136694938Y-107723819D02*
X136646557Y-107748009D01*
X136525604Y-107748009D01*
X136477223Y-107723819D01*
X136453033Y-107675438D01*
X136453033Y-107627057D01*
X136477223Y-107578676D01*
X136525604Y-107554485D01*
X136646557Y-107554485D01*
X136694938Y-107530295D01*
X136936842Y-107748009D02*
X136936842Y-107409342D01*
X136936842Y-107506104D02*
X136961033Y-107457723D01*
X136985223Y-107433533D01*
X137033604Y-107409342D01*
X137081985Y-107409342D01*
X137202938Y-107409342D02*
X137323890Y-107748009D01*
X137444842Y-107409342D02*
X137323890Y-107748009D01*
X137275509Y-107868961D01*
X137251319Y-107893152D01*
X137202938Y-107917342D01*
X138001223Y-107288390D02*
X138025414Y-107264200D01*
X138073795Y-107240009D01*
X138194747Y-107240009D01*
X138243128Y-107264200D01*
X138267319Y-107288390D01*
X138291509Y-107336771D01*
X138291509Y-107385152D01*
X138267319Y-107457723D01*
X137977033Y-107748009D01*
X138291509Y-107748009D01*
X138605985Y-107240009D02*
X138654366Y-107240009D01*
X138702747Y-107264200D01*
X138726938Y-107288390D01*
X138751128Y-107336771D01*
X138775319Y-107433533D01*
X138775319Y-107554485D01*
X138751128Y-107651247D01*
X138726938Y-107699628D01*
X138702747Y-107723819D01*
X138654366Y-107748009D01*
X138605985Y-107748009D01*
X138557604Y-107723819D01*
X138533414Y-107699628D01*
X138509223Y-107651247D01*
X138485033Y-107554485D01*
X138485033Y-107433533D01*
X138509223Y-107336771D01*
X138533414Y-107288390D01*
X138557604Y-107264200D01*
X138605985Y-107240009D01*
X138968842Y-107288390D02*
X138993033Y-107264200D01*
X139041414Y-107240009D01*
X139162366Y-107240009D01*
X139210747Y-107264200D01*
X139234938Y-107288390D01*
X139259128Y-107336771D01*
X139259128Y-107385152D01*
X139234938Y-107457723D01*
X138944652Y-107748009D01*
X139259128Y-107748009D01*
X139742938Y-107748009D02*
X139452652Y-107748009D01*
X139597795Y-107748009D02*
X139597795Y-107240009D01*
X139549414Y-107312580D01*
X139501033Y-107360961D01*
X139452652Y-107385152D01*
D11*
X140906500Y-101574600D02*
X140906500Y-99682300D01*
X141935200Y-101574600D02*
X140906500Y-101574600D01*
D12*
X140422380Y-98950471D02*
X140565238Y-98998090D01*
X140612857Y-99045709D01*
X140660476Y-99140947D01*
X140660476Y-99283804D01*
X140612857Y-99379042D01*
X140565238Y-99426661D01*
X140470000Y-99474280D01*
X140089047Y-99474280D01*
X140089047Y-98474280D01*
X140422380Y-98474280D01*
X140517619Y-98521900D01*
X140565238Y-98569519D01*
X140612857Y-98664757D01*
X140612857Y-98759995D01*
X140565238Y-98855233D01*
X140517619Y-98902852D01*
X140422380Y-98950471D01*
X140089047Y-98950471D01*
X141089047Y-99093328D02*
X141850952Y-99093328D01*
X141470000Y-99474280D02*
X141470000Y-98712376D01*
X140384280Y-104005071D02*
X140527138Y-104052690D01*
X140574757Y-104100309D01*
X140622376Y-104195547D01*
X140622376Y-104338404D01*
X140574757Y-104433642D01*
X140527138Y-104481261D01*
X140431900Y-104528880D01*
X140050947Y-104528880D01*
X140050947Y-103528880D01*
X140384280Y-103528880D01*
X140479519Y-103576500D01*
X140527138Y-103624119D01*
X140574757Y-103719357D01*
X140574757Y-103814595D01*
X140527138Y-103909833D01*
X140479519Y-103957452D01*
X140384280Y-104005071D01*
X140050947Y-104005071D01*
X141050947Y-104147928D02*
X141812852Y-104147928D01*
X131135500Y-108673804D02*
X131087880Y-108769042D01*
X131087880Y-108911900D01*
X131135500Y-109054757D01*
X131230738Y-109149995D01*
X131325976Y-109197614D01*
X131516452Y-109245233D01*
X131659309Y-109245233D01*
X131849785Y-109197614D01*
X131945023Y-109149995D01*
X132040261Y-109054757D01*
X132087880Y-108911900D01*
X132087880Y-108816661D01*
X132040261Y-108673804D01*
X131992642Y-108626185D01*
X131659309Y-108626185D01*
X131659309Y-108816661D01*
X132087880Y-108197614D02*
X131087880Y-108197614D01*
X132087880Y-107626185D01*
X131087880Y-107626185D01*
X132087880Y-107149995D02*
X131087880Y-107149995D01*
X131087880Y-106911900D01*
X131135500Y-106769042D01*
X131230738Y-106673804D01*
X131325976Y-106626185D01*
X131516452Y-106578566D01*
X131659309Y-106578566D01*
X131849785Y-106626185D01*
X131945023Y-106673804D01*
X132040261Y-106769042D01*
X132087880Y-106911900D01*
X132087880Y-107149995D01*
X131706928Y-96624614D02*
X131706928Y-95862709D01*
X132087880Y-96243661D02*
X131325976Y-96243661D01*
X131087880Y-94910328D02*
X131087880Y-95386519D01*
X131564071Y-95434138D01*
X131516452Y-95386519D01*
X131468833Y-95291280D01*
X131468833Y-95053185D01*
X131516452Y-94957947D01*
X131564071Y-94910328D01*
X131659309Y-94862709D01*
X131897404Y-94862709D01*
X131992642Y-94910328D01*
X132040261Y-94957947D01*
X132087880Y-95053185D01*
X132087880Y-95291280D01*
X132040261Y-95386519D01*
X131992642Y-95434138D01*
X131087880Y-94576995D02*
X132087880Y-94243661D01*
X131087880Y-93910328D01*
X133370580Y-112531304D02*
X133370580Y-113102733D01*
X133370580Y-112817019D02*
X132370580Y-112817019D01*
X132513438Y-112912257D01*
X132608676Y-113007495D01*
X132656295Y-113102733D01*
X132370580Y-111912257D02*
X132370580Y-111817019D01*
X132418200Y-111721780D01*
X132465819Y-111674161D01*
X132561057Y-111626542D01*
X132751533Y-111578923D01*
X132989628Y-111578923D01*
X133180104Y-111626542D01*
X133275342Y-111674161D01*
X133322961Y-111721780D01*
X133370580Y-111817019D01*
X133370580Y-111912257D01*
X133322961Y-112007495D01*
X133275342Y-112055114D01*
X133180104Y-112102733D01*
X132989628Y-112150352D01*
X132751533Y-112150352D01*
X132561057Y-112102733D01*
X132465819Y-112055114D01*
X132418200Y-112007495D01*
X132370580Y-111912257D01*
X132370580Y-110959876D02*
X132370580Y-110864638D01*
X132418200Y-110769400D01*
X132465819Y-110721780D01*
X132561057Y-110674161D01*
X132751533Y-110626542D01*
X132989628Y-110626542D01*
X133180104Y-110674161D01*
X133275342Y-110721780D01*
X133322961Y-110769400D01*
X133370580Y-110864638D01*
X133370580Y-110959876D01*
X133322961Y-111055114D01*
X133275342Y-111102733D01*
X133180104Y-111150352D01*
X132989628Y-111197971D01*
X132751533Y-111197971D01*
X132561057Y-111150352D01*
X132465819Y-111102733D01*
X132418200Y-111055114D01*
X132370580Y-110959876D01*
X133370580Y-110197971D02*
X132703914Y-110197971D01*
X132799152Y-110197971D02*
X132751533Y-110150352D01*
X132703914Y-110055114D01*
X132703914Y-109912257D01*
X132751533Y-109817019D01*
X132846771Y-109769400D01*
X133370580Y-109769400D01*
X132846771Y-109769400D02*
X132751533Y-109721780D01*
X132703914Y-109626542D01*
X132703914Y-109483685D01*
X132751533Y-109388447D01*
X132846771Y-109340828D01*
X133370580Y-109340828D01*
X133084866Y-108912257D02*
X133084866Y-108436066D01*
X133370580Y-109007495D02*
X132370580Y-108674161D01*
X133370580Y-108340828D01*
X139609580Y-112667823D02*
X139609580Y-113144014D01*
X140085771Y-113191633D01*
X140038152Y-113144014D01*
X139990533Y-113048776D01*
X139990533Y-112810680D01*
X140038152Y-112715442D01*
X140085771Y-112667823D01*
X140181009Y-112620204D01*
X140419104Y-112620204D01*
X140514342Y-112667823D01*
X140561961Y-112715442D01*
X140609580Y-112810680D01*
X140609580Y-113048776D01*
X140561961Y-113144014D01*
X140514342Y-113191633D01*
X139609580Y-112001157D02*
X139609580Y-111905919D01*
X139657200Y-111810680D01*
X139704819Y-111763061D01*
X139800057Y-111715442D01*
X139990533Y-111667823D01*
X140228628Y-111667823D01*
X140419104Y-111715442D01*
X140514342Y-111763061D01*
X140561961Y-111810680D01*
X140609580Y-111905919D01*
X140609580Y-112001157D01*
X140561961Y-112096395D01*
X140514342Y-112144014D01*
X140419104Y-112191633D01*
X140228628Y-112239252D01*
X139990533Y-112239252D01*
X139800057Y-112191633D01*
X139704819Y-112144014D01*
X139657200Y-112096395D01*
X139609580Y-112001157D01*
X139609580Y-111048776D02*
X139609580Y-110953538D01*
X139657200Y-110858300D01*
X139704819Y-110810680D01*
X139800057Y-110763061D01*
X139990533Y-110715442D01*
X140228628Y-110715442D01*
X140419104Y-110763061D01*
X140514342Y-110810680D01*
X140561961Y-110858300D01*
X140609580Y-110953538D01*
X140609580Y-111048776D01*
X140561961Y-111144014D01*
X140514342Y-111191633D01*
X140419104Y-111239252D01*
X140228628Y-111286871D01*
X139990533Y-111286871D01*
X139800057Y-111239252D01*
X139704819Y-111191633D01*
X139657200Y-111144014D01*
X139609580Y-111048776D01*
X140609580Y-110286871D02*
X139942914Y-110286871D01*
X140038152Y-110286871D02*
X139990533Y-110239252D01*
X139942914Y-110144014D01*
X139942914Y-110001157D01*
X139990533Y-109905919D01*
X140085771Y-109858300D01*
X140609580Y-109858300D01*
X140085771Y-109858300D02*
X139990533Y-109810680D01*
X139942914Y-109715442D01*
X139942914Y-109572585D01*
X139990533Y-109477347D01*
X140085771Y-109429728D01*
X140609580Y-109429728D01*
X140323866Y-109001157D02*
X140323866Y-108524966D01*
X140609580Y-109096395D02*
X139609580Y-108763061D01*
X140609580Y-108429728D01*
X140419080Y-94929104D02*
X139419080Y-94929104D01*
X139419080Y-94691009D01*
X139466700Y-94548152D01*
X139561938Y-94452914D01*
X139657176Y-94405295D01*
X139847652Y-94357676D01*
X139990509Y-94357676D01*
X140180985Y-94405295D01*
X140276223Y-94452914D01*
X140371461Y-94548152D01*
X140419080Y-94691009D01*
X140419080Y-94929104D01*
X139419080Y-93738628D02*
X139419080Y-93548152D01*
X139466700Y-93452914D01*
X139561938Y-93357676D01*
X139752414Y-93310057D01*
X140085747Y-93310057D01*
X140276223Y-93357676D01*
X140371461Y-93452914D01*
X140419080Y-93548152D01*
X140419080Y-93738628D01*
X140371461Y-93833866D01*
X140276223Y-93929104D01*
X140085747Y-93976723D01*
X139752414Y-93976723D01*
X139561938Y-93929104D01*
X139466700Y-93833866D01*
X139419080Y-93738628D01*
X140419080Y-92881485D02*
X139419080Y-92881485D01*
X140419080Y-92310057D01*
X139419080Y-92310057D01*
X139895271Y-91833866D02*
X139895271Y-91500533D01*
X140419080Y-91357676D02*
X140419080Y-91833866D01*
X139419080Y-91833866D01*
X139419080Y-91357676D01*
X133783342Y-94033885D02*
X133830961Y-94081504D01*
X133878580Y-94224361D01*
X133878580Y-94319600D01*
X133830961Y-94462457D01*
X133735723Y-94557695D01*
X133640485Y-94605314D01*
X133450009Y-94652933D01*
X133307152Y-94652933D01*
X133116676Y-94605314D01*
X133021438Y-94557695D01*
X132926200Y-94462457D01*
X132878580Y-94319600D01*
X132878580Y-94224361D01*
X132926200Y-94081504D01*
X132973819Y-94033885D01*
X133878580Y-93605314D02*
X132878580Y-93605314D01*
X133354771Y-93605314D02*
X133354771Y-93033885D01*
X133878580Y-93033885D02*
X132878580Y-93033885D01*
X132926200Y-92033885D02*
X132878580Y-92129123D01*
X132878580Y-92271980D01*
X132926200Y-92414838D01*
X133021438Y-92510076D01*
X133116676Y-92557695D01*
X133307152Y-92605314D01*
X133450009Y-92605314D01*
X133640485Y-92557695D01*
X133735723Y-92510076D01*
X133830961Y-92414838D01*
X133878580Y-92271980D01*
X133878580Y-92176742D01*
X133830961Y-92033885D01*
X133783342Y-91986266D01*
X133450009Y-91986266D01*
X133450009Y-92176742D01*
D11*
%TO.C,U1*%
X137425000Y-99990000D02*
X135625000Y-99990000D01*
X135625000Y-103210000D02*
X138075000Y-103210000D01*
%TO.C,JP2*%
X136331000Y-108144000D02*
X133671000Y-108144000D01*
X136331000Y-110744000D02*
X136331000Y-108144000D01*
X133671000Y-110744000D02*
X133671000Y-108144000D01*
X136331000Y-110744000D02*
X133671000Y-110744000D01*
X136331000Y-112014000D02*
X136331000Y-113344000D01*
X136331000Y-113344000D02*
X135001000Y-113344000D01*
%TO.C,JP1*%
X139379000Y-108144000D02*
X136719000Y-108144000D01*
X139379000Y-110744000D02*
X139379000Y-108144000D01*
X136719000Y-110744000D02*
X136719000Y-108144000D01*
X139379000Y-110744000D02*
X136719000Y-110744000D01*
X139379000Y-112014000D02*
X139379000Y-113344000D01*
X139379000Y-113344000D02*
X138049000Y-113344000D01*
%TO.C,J4*%
X144840000Y-97730000D02*
X142180000Y-97730000D01*
X144840000Y-102870000D02*
X144840000Y-97730000D01*
X142180000Y-102870000D02*
X142180000Y-97730000D01*
X144840000Y-102870000D02*
X142180000Y-102870000D01*
X144840000Y-104140000D02*
X144840000Y-105470000D01*
X144840000Y-105470000D02*
X143510000Y-105470000D01*
%TO.C,J3*%
X131684000Y-99840000D02*
X132134000Y-99840000D01*
X132134000Y-100290000D02*
X132134000Y-99840000D01*
X131454000Y-97840000D02*
X131454000Y-98260000D01*
X129474000Y-97840000D02*
X131454000Y-97840000D01*
X127104000Y-97840000D02*
X127504000Y-97840000D01*
X127504000Y-105360000D02*
X127104000Y-105360000D01*
X131454000Y-105360000D02*
X131454000Y-104940000D01*
X129474000Y-105360000D02*
X131454000Y-105360000D01*
%TO.C,J2*%
X128210000Y-106620000D02*
X128210000Y-109280000D01*
X128270000Y-106620000D02*
X128210000Y-106620000D01*
X128270000Y-109280000D02*
X128210000Y-109280000D01*
X128270000Y-106620000D02*
X128270000Y-109280000D01*
X129540000Y-106620000D02*
X130870000Y-106620000D01*
X130870000Y-106620000D02*
X130870000Y-107950000D01*
%TO.C,J1*%
X128210000Y-93920000D02*
X128210000Y-96580000D01*
X128270000Y-93920000D02*
X128210000Y-93920000D01*
X128270000Y-96580000D02*
X128210000Y-96580000D01*
X128270000Y-93920000D02*
X128270000Y-96580000D01*
X129540000Y-93920000D02*
X130870000Y-93920000D01*
X130870000Y-93920000D02*
X130870000Y-95250000D01*
%TO.C,D3*%
X139057000Y-94818000D02*
X139057000Y-90758000D01*
X139057000Y-90758000D02*
X136787000Y-90758000D01*
X136787000Y-90758000D02*
X136787000Y-94818000D01*
%TO.C,D2*%
X134247000Y-91618000D02*
X134247000Y-95678000D01*
X134247000Y-95678000D02*
X136517000Y-95678000D01*
X136517000Y-95678000D02*
X136517000Y-91618000D01*
%TO.C,U1*%
D12*
X135737695Y-98715580D02*
X135737695Y-99525104D01*
X135785314Y-99620342D01*
X135832933Y-99667961D01*
X135928171Y-99715580D01*
X136118647Y-99715580D01*
X136213885Y-99667961D01*
X136261504Y-99620342D01*
X136309123Y-99525104D01*
X136309123Y-98715580D01*
X137309123Y-99715580D02*
X136737695Y-99715580D01*
X137023409Y-99715580D02*
X137023409Y-98715580D01*
X136928171Y-98858438D01*
X136832933Y-98953676D01*
X136737695Y-99001295D01*
%TO.C,J4*%
X143138566Y-96556580D02*
X143138566Y-97270866D01*
X143090947Y-97413723D01*
X142995709Y-97508961D01*
X142852852Y-97556580D01*
X142757614Y-97556580D01*
X144043328Y-96889914D02*
X144043328Y-97556580D01*
X143805233Y-96508961D02*
X143567138Y-97223247D01*
X144186185Y-97223247D01*
%TO.C,J3*%
X132434080Y-101920633D02*
X133148366Y-101920633D01*
X133291223Y-101968252D01*
X133386461Y-102063490D01*
X133434080Y-102206347D01*
X133434080Y-102301585D01*
X132434080Y-101539680D02*
X132434080Y-100920633D01*
X132815033Y-101253966D01*
X132815033Y-101111109D01*
X132862652Y-101015871D01*
X132910271Y-100968252D01*
X133005509Y-100920633D01*
X133243604Y-100920633D01*
X133338842Y-100968252D01*
X133386461Y-101015871D01*
X133434080Y-101111109D01*
X133434080Y-101396823D01*
X133386461Y-101492061D01*
X133338842Y-101539680D01*
%TO.C,D3*%
X137120404Y-96972380D02*
X137120404Y-95972380D01*
X137358500Y-95972380D01*
X137501357Y-96020000D01*
X137596595Y-96115238D01*
X137644214Y-96210476D01*
X137691833Y-96400952D01*
X137691833Y-96543809D01*
X137644214Y-96734285D01*
X137596595Y-96829523D01*
X137501357Y-96924761D01*
X137358500Y-96972380D01*
X137120404Y-96972380D01*
X138025166Y-95972380D02*
X138644214Y-95972380D01*
X138310880Y-96353333D01*
X138453738Y-96353333D01*
X138548976Y-96400952D01*
X138596595Y-96448571D01*
X138644214Y-96543809D01*
X138644214Y-96781904D01*
X138596595Y-96877142D01*
X138548976Y-96924761D01*
X138453738Y-96972380D01*
X138168023Y-96972380D01*
X138072785Y-96924761D01*
X138025166Y-96877142D01*
%TO.C,D2*%
X134593104Y-96972380D02*
X134593104Y-95972380D01*
X134831200Y-95972380D01*
X134974057Y-96020000D01*
X135069295Y-96115238D01*
X135116914Y-96210476D01*
X135164533Y-96400952D01*
X135164533Y-96543809D01*
X135116914Y-96734285D01*
X135069295Y-96829523D01*
X134974057Y-96924761D01*
X134831200Y-96972380D01*
X134593104Y-96972380D01*
X135545485Y-96067619D02*
X135593104Y-96020000D01*
X135688342Y-95972380D01*
X135926438Y-95972380D01*
X136021676Y-96020000D01*
X136069295Y-96067619D01*
X136116914Y-96162857D01*
X136116914Y-96258095D01*
X136069295Y-96400952D01*
X135497866Y-96972380D01*
X136116914Y-96972380D01*
%TD*%
M02*
