%TF.GenerationSoftware,KiCad,Pcbnew,(5.1.8)-1*%
%TF.CreationDate,2021-01-17T15:05:37-05:00*%
%TF.ProjectId,electronics-li-ion-charger,656c6563-7472-46f6-9e69-63732d6c692d,rev?*%
%TF.SameCoordinates,Original*%
%TF.FileFunction,Soldermask,Top*%
%TF.FilePolarity,Negative*%
%FSLAX46Y46*%
G04 Gerber Fmt 4.6, Leading zero omitted, Abs format (unit mm)*
G04 Created by KiCad (PCBNEW (5.1.8)-1) date 2021-01-17 15:05:37*
%MOMM*%
%LPD*%
G01*
G04 APERTURE LIST*
%ADD10C,2.200000*%
%ADD11C,2.540000*%
%ADD12O,1.700000X1.700000*%
%ADD13R,1.700000X1.700000*%
%ADD14O,1.550000X0.890000*%
%ADD15R,1.550000X1.200000*%
%ADD16R,1.550000X1.500000*%
%ADD17O,0.950000X1.250000*%
%ADD18R,1.350000X0.400000*%
G04 APERTURE END LIST*
D10*
%TO.C,M2*%
X155448000Y-104902000D03*
%TD*%
%TO.C,M1*%
X155448000Y-98298000D03*
%TD*%
%TO.C,M4*%
X191008000Y-104902000D03*
%TD*%
%TO.C,M3*%
X191008000Y-98298000D03*
%TD*%
D11*
%TO.C,BT1*%
X150368000Y-104140000D03*
X150368000Y-99060000D03*
X142748000Y-101600000D03*
X196088000Y-99060000D03*
X196088000Y-104140000D03*
X203708000Y-101600000D03*
%TD*%
D12*
%TO.C,J4*%
X212090000Y-99060000D03*
X212090000Y-101600000D03*
D13*
X212090000Y-104140000D03*
%TD*%
D14*
%TO.C,J3*%
X128494000Y-105100000D03*
X128494000Y-98100000D03*
D15*
X128494000Y-104500000D03*
X128494000Y-98700000D03*
D16*
X128494000Y-102600000D03*
X128494000Y-100600000D03*
D17*
X131194000Y-104100000D03*
X131194000Y-99100000D03*
D18*
X131194000Y-102900000D03*
X131194000Y-102250000D03*
X131194000Y-101600000D03*
X131194000Y-100950000D03*
X131194000Y-100300000D03*
%TD*%
D13*
%TO.C,J2*%
X134366000Y-102870000D03*
%TD*%
%TO.C,J1*%
X134366000Y-100330000D03*
%TD*%
%TO.C,D3*%
G36*
G01*
X138039000Y-103365000D02*
X136789000Y-103365000D01*
G75*
G02*
X136539000Y-103115000I0J250000D01*
G01*
X136539000Y-102190000D01*
G75*
G02*
X136789000Y-101940000I250000J0D01*
G01*
X138039000Y-101940000D01*
G75*
G02*
X138289000Y-102190000I0J-250000D01*
G01*
X138289000Y-103115000D01*
G75*
G02*
X138039000Y-103365000I-250000J0D01*
G01*
G37*
G36*
G01*
X138039000Y-106340000D02*
X136789000Y-106340000D01*
G75*
G02*
X136539000Y-106090000I0J250000D01*
G01*
X136539000Y-105165000D01*
G75*
G02*
X136789000Y-104915000I250000J0D01*
G01*
X138039000Y-104915000D01*
G75*
G02*
X138289000Y-105165000I0J-250000D01*
G01*
X138289000Y-106090000D01*
G75*
G02*
X138039000Y-106340000I-250000J0D01*
G01*
G37*
%TD*%
%TO.C,D2*%
G36*
G01*
X138039000Y-98285000D02*
X136789000Y-98285000D01*
G75*
G02*
X136539000Y-98035000I0J250000D01*
G01*
X136539000Y-97110000D01*
G75*
G02*
X136789000Y-96860000I250000J0D01*
G01*
X138039000Y-96860000D01*
G75*
G02*
X138289000Y-97110000I0J-250000D01*
G01*
X138289000Y-98035000D01*
G75*
G02*
X138039000Y-98285000I-250000J0D01*
G01*
G37*
G36*
G01*
X138039000Y-101260000D02*
X136789000Y-101260000D01*
G75*
G02*
X136539000Y-101010000I0J250000D01*
G01*
X136539000Y-100085000D01*
G75*
G02*
X136789000Y-99835000I250000J0D01*
G01*
X138039000Y-99835000D01*
G75*
G02*
X138289000Y-100085000I0J-250000D01*
G01*
X138289000Y-101010000D01*
G75*
G02*
X138039000Y-101260000I-250000J0D01*
G01*
G37*
%TD*%
M02*
