%TF.GenerationSoftware,KiCad,Pcbnew,(5.1.8)-1*%
%TF.CreationDate,2021-01-16T14:03:11-05:00*%
%TF.ProjectId,electronics-li-ion-charger,656c6563-7472-46f6-9e69-63732d6c692d,rev?*%
%TF.SameCoordinates,Original*%
%TF.FileFunction,Legend,Bot*%
%TF.FilePolarity,Positive*%
%FSLAX46Y46*%
G04 Gerber Fmt 4.6, Leading zero omitted, Abs format (unit mm)*
G04 Created by KiCad (PCBNEW (5.1.8)-1) date 2021-01-16 14:03:11*
%MOMM*%
%LPD*%
G01*
G04 APERTURE LIST*
%ADD10C,0.150000*%
%ADD11C,0.120000*%
G04 APERTURE END LIST*
D10*
X131495752Y-107907128D02*
X130733847Y-107907128D01*
X131495752Y-95270628D02*
X130733847Y-95270628D01*
X131114800Y-95651580D02*
X131114800Y-94889676D01*
X142278052Y-104147928D02*
X141516147Y-104147928D01*
X142278052Y-101646028D02*
X141516147Y-101646028D01*
X141897100Y-102026980D02*
X141897100Y-101265076D01*
X142316152Y-99093328D02*
X141554247Y-99093328D01*
X141935200Y-99474280D02*
X141935200Y-98712376D01*
D11*
X134861300Y-96291400D02*
X135343900Y-96748600D01*
X134277100Y-96291400D02*
X134861300Y-96291400D01*
%TO.C,D1*%
X134150000Y-97641000D02*
X134150000Y-101041000D01*
X132550000Y-97641000D02*
X134150000Y-97641000D01*
X132550000Y-101041000D02*
X132550000Y-97641000D01*
%TO.C,R4*%
X137012000Y-92490936D02*
X137012000Y-93945064D01*
X138832000Y-92490936D02*
X138832000Y-93945064D01*
%TO.C,R3*%
X136292000Y-93945064D02*
X136292000Y-92490936D01*
X134472000Y-93945064D02*
X134472000Y-92490936D01*
%TO.C,R2*%
X134345000Y-104428936D02*
X134345000Y-105883064D01*
X136165000Y-104428936D02*
X136165000Y-105883064D01*
%TO.C,R1*%
X136885000Y-104428936D02*
X136885000Y-105883064D01*
X138705000Y-104428936D02*
X138705000Y-105883064D01*
%TO.C,C2*%
X137266000Y-98602748D02*
X137266000Y-100025252D01*
X139086000Y-98602748D02*
X139086000Y-100025252D01*
%TO.C,C1*%
X136292000Y-98602748D02*
X136292000Y-100025252D01*
X134472000Y-98602748D02*
X134472000Y-100025252D01*
%TO.C,D1*%
D10*
X132176780Y-100468204D02*
X131176780Y-100468204D01*
X131176780Y-100706300D01*
X131224400Y-100849157D01*
X131319638Y-100944395D01*
X131414876Y-100992014D01*
X131605352Y-101039633D01*
X131748209Y-101039633D01*
X131938685Y-100992014D01*
X132033923Y-100944395D01*
X132129161Y-100849157D01*
X132176780Y-100706300D01*
X132176780Y-100468204D01*
X132176780Y-101992014D02*
X132176780Y-101420585D01*
X132176780Y-101706300D02*
X131176780Y-101706300D01*
X131319638Y-101611061D01*
X131414876Y-101515823D01*
X131462495Y-101420585D01*
%TO.C,R4*%
X140279380Y-93038633D02*
X139803190Y-92705300D01*
X140279380Y-92467204D02*
X139279380Y-92467204D01*
X139279380Y-92848157D01*
X139327000Y-92943395D01*
X139374619Y-92991014D01*
X139469857Y-93038633D01*
X139612714Y-93038633D01*
X139707952Y-92991014D01*
X139755571Y-92943395D01*
X139803190Y-92848157D01*
X139803190Y-92467204D01*
X139612714Y-93895776D02*
X140279380Y-93895776D01*
X139231761Y-93657680D02*
X139946047Y-93419585D01*
X139946047Y-94038633D01*
%TO.C,R3*%
X134056380Y-93051333D02*
X133580190Y-92718000D01*
X134056380Y-92479904D02*
X133056380Y-92479904D01*
X133056380Y-92860857D01*
X133104000Y-92956095D01*
X133151619Y-93003714D01*
X133246857Y-93051333D01*
X133389714Y-93051333D01*
X133484952Y-93003714D01*
X133532571Y-92956095D01*
X133580190Y-92860857D01*
X133580190Y-92479904D01*
X133056380Y-93384666D02*
X133056380Y-94003714D01*
X133437333Y-93670380D01*
X133437333Y-93813238D01*
X133484952Y-93908476D01*
X133532571Y-93956095D01*
X133627809Y-94003714D01*
X133865904Y-94003714D01*
X133961142Y-93956095D01*
X134008761Y-93908476D01*
X134056380Y-93813238D01*
X134056380Y-93527523D01*
X134008761Y-93432285D01*
X133961142Y-93384666D01*
%TO.C,R2*%
X133887380Y-104989333D02*
X133411190Y-104656000D01*
X133887380Y-104417904D02*
X132887380Y-104417904D01*
X132887380Y-104798857D01*
X132935000Y-104894095D01*
X132982619Y-104941714D01*
X133077857Y-104989333D01*
X133220714Y-104989333D01*
X133315952Y-104941714D01*
X133363571Y-104894095D01*
X133411190Y-104798857D01*
X133411190Y-104417904D01*
X132982619Y-105370285D02*
X132935000Y-105417904D01*
X132887380Y-105513142D01*
X132887380Y-105751238D01*
X132935000Y-105846476D01*
X132982619Y-105894095D01*
X133077857Y-105941714D01*
X133173095Y-105941714D01*
X133315952Y-105894095D01*
X133887380Y-105322666D01*
X133887380Y-105941714D01*
%TO.C,R1*%
X140139680Y-104976633D02*
X139663490Y-104643300D01*
X140139680Y-104405204D02*
X139139680Y-104405204D01*
X139139680Y-104786157D01*
X139187300Y-104881395D01*
X139234919Y-104929014D01*
X139330157Y-104976633D01*
X139473014Y-104976633D01*
X139568252Y-104929014D01*
X139615871Y-104881395D01*
X139663490Y-104786157D01*
X139663490Y-104405204D01*
X140139680Y-105929014D02*
X140139680Y-105357585D01*
X140139680Y-105643300D02*
X139139680Y-105643300D01*
X139282538Y-105548061D01*
X139377776Y-105452823D01*
X139425395Y-105357585D01*
%TO.C,C2*%
X140463542Y-99147333D02*
X140511161Y-99099714D01*
X140558780Y-98956857D01*
X140558780Y-98861619D01*
X140511161Y-98718761D01*
X140415923Y-98623523D01*
X140320685Y-98575904D01*
X140130209Y-98528285D01*
X139987352Y-98528285D01*
X139796876Y-98575904D01*
X139701638Y-98623523D01*
X139606400Y-98718761D01*
X139558780Y-98861619D01*
X139558780Y-98956857D01*
X139606400Y-99099714D01*
X139654019Y-99147333D01*
X139654019Y-99528285D02*
X139606400Y-99575904D01*
X139558780Y-99671142D01*
X139558780Y-99909238D01*
X139606400Y-100004476D01*
X139654019Y-100052095D01*
X139749257Y-100099714D01*
X139844495Y-100099714D01*
X139987352Y-100052095D01*
X140558780Y-99480666D01*
X140558780Y-100099714D01*
%TO.C,C1*%
X133948442Y-96162833D02*
X133996061Y-96115214D01*
X134043680Y-95972357D01*
X134043680Y-95877119D01*
X133996061Y-95734261D01*
X133900823Y-95639023D01*
X133805585Y-95591404D01*
X133615109Y-95543785D01*
X133472252Y-95543785D01*
X133281776Y-95591404D01*
X133186538Y-95639023D01*
X133091300Y-95734261D01*
X133043680Y-95877119D01*
X133043680Y-95972357D01*
X133091300Y-96115214D01*
X133138919Y-96162833D01*
X134043680Y-97115214D02*
X134043680Y-96543785D01*
X134043680Y-96829500D02*
X133043680Y-96829500D01*
X133186538Y-96734261D01*
X133281776Y-96639023D01*
X133329395Y-96543785D01*
%TD*%
M02*
